<svg width="74" height="74" viewBox="0 0 74 74" fill="none" xmlns="http://www.w3.org/2000/svg">
<circle cx="37" cy="37" r="37" fill="#F26440"/>
<path d="M16.3842 34.1538L32.2015 50.9387L24.5848 34.1538H16.3842ZM37 53.6394L45.8608 34.1538H28.1392L37 53.6394ZM24.661 30.9231L29.8403 21.2308H23.1884L15.8764 30.9231H24.661ZM41.7985 50.9387L57.6158 34.1538H49.4152L41.7985 50.9387ZM28.3424 30.9231H45.6576L40.4783 21.2308H33.5217L28.3424 30.9231ZM49.339 30.9231H58.1236L50.8116 21.2308H44.1597L49.339 30.9231ZM52.9189 18.6562L62.6683 31.5793C62.9052 31.8822 63.0152 32.2314 62.9983 32.6268C62.9814 33.0222 62.8375 33.363 62.5667 33.649L38.1933 59.4952C37.8886 59.8317 37.4909 60 37 60C36.5091 60 36.1114 59.8317 35.8067 59.4952L11.4333 33.649C11.1625 33.363 11.0186 33.0222 11.0017 32.6268C10.9848 32.2314 11.0948 31.8822 11.3317 31.5793L21.0811 18.6562C21.3858 18.2187 21.8174 18 22.376 18H51.6241C52.1826 18 52.6142 18.2187 52.9189 18.6562Z" fill="white"/>
</svg>
