<svg width="75" height="84" viewBox="0 0 75 84" fill="none" xmlns="http://www.w3.org/2000/svg">
<path d="M1.88565 80V68.3636H5.95384C6.76444 68.3636 7.433 68.5038 7.95952 68.7841C8.48603 69.0606 8.87808 69.4337 9.13565 69.9034C9.39323 70.3693 9.52202 70.8864 9.52202 71.4545C9.52202 71.9545 9.433 72.3674 9.25497 72.6932C9.08073 73.0189 8.84967 73.2765 8.56179 73.4659C8.2777 73.6553 7.96899 73.7955 7.63565 73.8864V74C7.99171 74.0227 8.34967 74.1477 8.70952 74.375C9.06937 74.6023 9.3705 74.928 9.61293 75.3523C9.85535 75.7765 9.97656 76.2955 9.97656 76.9091C9.97656 77.4924 9.84399 78.017 9.57884 78.483C9.31368 78.9489 8.89512 79.3182 8.32315 79.5909C7.75118 79.8636 7.00687 80 6.0902 80H1.88565ZM3.29474 78.75H6.0902C7.01065 78.75 7.66406 78.572 8.05043 78.2159C8.44058 77.8561 8.63565 77.4205 8.63565 76.9091C8.63565 76.5152 8.53527 76.1515 8.33452 75.8182C8.13376 75.4811 7.84777 75.2121 7.47656 75.0114C7.10535 74.8068 6.66596 74.7045 6.15838 74.7045H3.29474V78.75ZM3.29474 73.4773H5.90838C6.33262 73.4773 6.7152 73.3939 7.05611 73.2273C7.4008 73.0606 7.67353 72.8258 7.87429 72.5227C8.07884 72.2197 8.18111 71.8636 8.18111 71.4545C8.18111 70.9432 8.00308 70.5095 7.64702 70.1534C7.29096 69.7936 6.72656 69.6136 5.95384 69.6136H3.29474V73.4773ZM15.6555 80.1818C14.8677 80.1818 14.1764 79.9943 13.5817 79.6193C12.9908 79.2443 12.5286 78.7197 12.1953 78.0455C11.8658 77.3712 11.701 76.5833 11.701 75.6818C11.701 74.7727 11.8658 73.9792 12.1953 73.3011C12.5286 72.6231 12.9908 72.0966 13.5817 71.7216C14.1764 71.3466 14.8677 71.1591 15.6555 71.1591C16.4434 71.1591 17.1328 71.3466 17.7237 71.7216C18.3184 72.0966 18.7805 72.6231 19.1101 73.3011C19.4434 73.9792 19.6101 74.7727 19.6101 75.6818C19.6101 76.5833 19.4434 77.3712 19.1101 78.0455C18.7805 78.7197 18.3184 79.2443 17.7237 79.6193C17.1328 79.9943 16.4434 80.1818 15.6555 80.1818ZM15.6555 78.9773C16.254 78.9773 16.7464 78.8239 17.1328 78.517C17.5192 78.2102 17.8052 77.8068 17.9908 77.3068C18.1764 76.8068 18.2692 76.2652 18.2692 75.6818C18.2692 75.0985 18.1764 74.5549 17.9908 74.0511C17.8052 73.5473 17.5192 73.1402 17.1328 72.8295C16.7464 72.5189 16.254 72.3636 15.6555 72.3636C15.0571 72.3636 14.5646 72.5189 14.1783 72.8295C13.7919 73.1402 13.5059 73.5473 13.3203 74.0511C13.1347 74.5549 13.0419 75.0985 13.0419 75.6818C13.0419 76.2652 13.1347 76.8068 13.3203 77.3068C13.5059 77.8068 13.7919 78.2102 14.1783 78.517C14.5646 78.8239 15.0571 78.9773 15.6555 78.9773ZM25.2024 80.1818C24.4145 80.1818 23.7232 79.9943 23.1286 79.6193C22.5376 79.2443 22.0755 78.7197 21.7422 78.0455C21.4126 77.3712 21.2479 76.5833 21.2479 75.6818C21.2479 74.7727 21.4126 73.9792 21.7422 73.3011C22.0755 72.6231 22.5376 72.0966 23.1286 71.7216C23.7232 71.3466 24.4145 71.1591 25.2024 71.1591C25.9903 71.1591 26.6797 71.3466 27.2706 71.7216C27.8653 72.0966 28.3274 72.6231 28.657 73.3011C28.9903 73.9792 29.157 74.7727 29.157 75.6818C29.157 76.5833 28.9903 77.3712 28.657 78.0455C28.3274 78.7197 27.8653 79.2443 27.2706 79.6193C26.6797 79.9943 25.9903 80.1818 25.2024 80.1818ZM25.2024 78.9773C25.8009 78.9773 26.2933 78.8239 26.6797 78.517C27.0661 78.2102 27.352 77.8068 27.5376 77.3068C27.7232 76.8068 27.8161 76.2652 27.8161 75.6818C27.8161 75.0985 27.7232 74.5549 27.5376 74.0511C27.352 73.5473 27.0661 73.1402 26.6797 72.8295C26.2933 72.5189 25.8009 72.3636 25.2024 72.3636C24.6039 72.3636 24.1115 72.5189 23.7251 72.8295C23.3388 73.1402 23.0528 73.5473 22.8672 74.0511C22.6816 74.5549 22.5888 75.0985 22.5888 75.6818C22.5888 76.2652 22.6816 76.8068 22.8672 77.3068C23.0528 77.8068 23.3388 78.2102 23.7251 78.517C24.1115 78.8239 24.6039 78.9773 25.2024 78.9773ZM34.9993 71.2727V72.4091H30.4766V71.2727H34.9993ZM31.7947 69.1818H33.1357V77.5C33.1357 77.8788 33.1906 78.1629 33.3004 78.3523C33.4141 78.5379 33.558 78.6629 33.7322 78.7273C33.9103 78.7879 34.0978 78.8182 34.2947 78.8182C34.4425 78.8182 34.5637 78.8106 34.6584 78.7955C34.7531 78.7765 34.8288 78.7614 34.8857 78.75L35.1584 79.9545C35.0675 79.9886 34.9406 80.0227 34.7777 80.0568C34.6148 80.0947 34.4084 80.1136 34.1584 80.1136C33.7796 80.1136 33.4084 80.0322 33.0447 79.8693C32.6849 79.7064 32.3857 79.4583 32.147 79.125C31.9122 78.7917 31.7947 78.3712 31.7947 77.8636V69.1818ZM43.0419 73.2273L41.8374 73.5682C41.7616 73.3674 41.6499 73.1723 41.5021 72.983C41.3582 72.7898 41.1612 72.6307 40.9112 72.5057C40.6612 72.3807 40.3411 72.3182 39.951 72.3182C39.4169 72.3182 38.9718 72.4413 38.6158 72.6875C38.2635 72.9299 38.0874 73.2386 38.0874 73.6136C38.0874 73.947 38.2086 74.2102 38.451 74.4034C38.6934 74.5966 39.0722 74.7576 39.5874 74.8864L40.8828 75.2045C41.6631 75.3939 42.2446 75.6837 42.6271 76.0739C43.0097 76.4602 43.201 76.9583 43.201 77.5682C43.201 78.0682 43.0571 78.5152 42.7692 78.9091C42.4851 79.303 42.0874 79.6136 41.576 79.8409C41.0646 80.0682 40.4699 80.1818 39.7919 80.1818C38.9018 80.1818 38.165 79.9886 37.5817 79.6023C36.9983 79.2159 36.629 78.6515 36.4737 77.9091L37.7464 77.5909C37.8677 78.0606 38.0968 78.4129 38.4339 78.6477C38.7749 78.8826 39.2199 79 39.7692 79C40.3942 79 40.8904 78.8674 41.2578 78.6023C41.629 78.3333 41.8146 78.0114 41.8146 77.6364C41.8146 77.3333 41.7086 77.0795 41.4964 76.875C41.2843 76.6667 40.9586 76.5114 40.5192 76.4091L39.0646 76.0682C38.2654 75.8788 37.6783 75.5852 37.3033 75.1875C36.9321 74.786 36.7464 74.2841 36.7464 73.6818C36.7464 73.1894 36.8847 72.7538 37.1612 72.375C37.4415 71.9962 37.8222 71.6989 38.3033 71.483C38.7881 71.267 39.3374 71.1591 39.951 71.1591C40.8146 71.1591 41.4927 71.3485 41.9851 71.7273C42.4813 72.1061 42.8336 72.6061 43.0419 73.2273ZM49.0149 71.2727V72.4091H44.4922V71.2727H49.0149ZM45.8104 69.1818H47.1513V77.5C47.1513 77.8788 47.2062 78.1629 47.3161 78.3523C47.4297 78.5379 47.5736 78.6629 47.7479 78.7273C47.9259 78.7879 48.1134 78.8182 48.3104 78.8182C48.4581 78.8182 48.5793 78.8106 48.674 78.7955C48.7687 78.7765 48.8445 78.7614 48.9013 78.75L49.174 79.9545C49.0831 79.9886 48.9562 80.0227 48.7933 80.0568C48.6304 80.0947 48.424 80.1136 48.174 80.1136C47.7952 80.1136 47.424 80.0322 47.0604 79.8693C46.7005 79.7064 46.4013 79.4583 46.1626 79.125C45.9278 78.7917 45.8104 78.3712 45.8104 77.8636V69.1818ZM51.032 80V71.2727H52.3274V72.5909H52.4183C52.5774 72.1591 52.8653 71.8087 53.282 71.5398C53.6986 71.2708 54.1683 71.1364 54.6911 71.1364C54.7895 71.1364 54.9126 71.1383 55.0604 71.142C55.2081 71.1458 55.3198 71.1515 55.3956 71.1591V72.5227C55.3501 72.5114 55.246 72.4943 55.0831 72.4716C54.924 72.4451 54.7554 72.4318 54.5774 72.4318C54.1532 72.4318 53.7744 72.5208 53.4411 72.6989C53.1115 72.8731 52.8501 73.1155 52.657 73.4261C52.4676 73.733 52.3729 74.0833 52.3729 74.4773V80H51.032ZM59.5533 80.2045C59.0002 80.2045 58.4983 80.1004 58.0476 79.892C57.5968 79.6799 57.2389 79.375 56.9737 78.9773C56.7086 78.5758 56.576 78.0909 56.576 77.5227C56.576 77.0227 56.6745 76.6174 56.8714 76.3068C57.0684 75.9924 57.3317 75.7462 57.6612 75.5682C57.9908 75.3902 58.3544 75.2576 58.7521 75.1705C59.1536 75.0795 59.5571 75.0076 59.9624 74.9545C60.4927 74.8864 60.9226 74.8352 61.2521 74.8011C61.5855 74.7633 61.8279 74.7008 61.9794 74.6136C62.1347 74.5265 62.2124 74.375 62.2124 74.1591V74.1136C62.2124 73.553 62.0589 73.1174 61.7521 72.8068C61.4491 72.4962 60.9889 72.3409 60.3714 72.3409C59.7313 72.3409 59.2294 72.4811 58.8658 72.7614C58.5021 73.0417 58.2464 73.3409 58.0987 73.6591L56.826 73.2045C57.0533 72.6742 57.3563 72.2614 57.7351 71.9659C58.1177 71.6667 58.5343 71.4583 58.9851 71.3409C59.4396 71.2197 59.8866 71.1591 60.326 71.1591C60.6063 71.1591 60.9283 71.1932 61.2919 71.2614C61.6593 71.3258 62.0135 71.4602 62.3544 71.6648C62.6991 71.8693 62.9851 72.178 63.2124 72.5909C63.4396 73.0038 63.5533 73.5568 63.5533 74.25V80H62.2124V78.8182H62.1442C62.0533 79.0076 61.9018 79.2102 61.6896 79.4261C61.4775 79.642 61.1953 79.8258 60.843 79.9773C60.4908 80.1288 60.0608 80.2045 59.5533 80.2045ZM59.7578 79C60.2881 79 60.7351 78.8958 61.0987 78.6875C61.4661 78.4792 61.7427 78.2102 61.9283 77.8807C62.1177 77.5511 62.2124 77.2045 62.2124 76.8409V75.6136C62.1555 75.6818 62.0305 75.7443 61.8374 75.8011C61.648 75.8542 61.4283 75.9015 61.1783 75.9432C60.9321 75.9811 60.6915 76.0152 60.4567 76.0455C60.2256 76.072 60.0381 76.0947 59.8942 76.1136C59.5457 76.1591 59.2199 76.233 58.9169 76.3352C58.6177 76.4337 58.3752 76.5833 58.1896 76.7841C58.0078 76.9811 57.9169 77.25 57.9169 77.5909C57.9169 78.0568 58.0893 78.4091 58.4339 78.6477C58.7824 78.8826 59.2237 79 59.7578 79ZM66.0007 83.2727V71.2727H67.2962V72.6591H67.4553C67.5537 72.5076 67.6901 72.3144 67.8643 72.0795C68.0424 71.8409 68.2962 71.6288 68.6257 71.4432C68.959 71.2538 69.4098 71.1591 69.978 71.1591C70.7128 71.1591 71.3606 71.3428 71.9212 71.7102C72.4818 72.0777 72.9193 72.5985 73.2337 73.2727C73.5481 73.947 73.7053 74.7424 73.7053 75.6591C73.7053 76.5833 73.5481 77.3845 73.2337 78.0625C72.9193 78.7367 72.4837 79.2595 71.9268 79.6307C71.37 79.9981 70.728 80.1818 70.0007 80.1818C69.4401 80.1818 68.9912 80.089 68.6541 79.9034C68.317 79.714 68.0575 79.5 67.8757 79.2614C67.6939 79.0189 67.5537 78.8182 67.4553 78.6591H67.3416V83.2727H66.0007ZM67.3189 75.6364C67.3189 76.2955 67.4155 76.8769 67.6087 77.3807C67.8018 77.8807 68.084 78.2727 68.4553 78.5568C68.8265 78.8371 69.281 78.9773 69.8189 78.9773C70.3795 78.9773 70.8473 78.8295 71.2223 78.5341C71.6011 78.2348 71.8852 77.8333 72.0746 77.3295C72.2678 76.822 72.3643 76.2576 72.3643 75.6364C72.3643 75.0227 72.2696 74.4697 72.0803 73.9773C71.8946 73.4811 71.6125 73.089 71.2337 72.8011C70.8587 72.5095 70.3871 72.3636 69.8189 72.3636C69.2734 72.3636 68.8151 72.5019 68.4439 72.7784C68.0727 73.0511 67.7924 73.4337 67.603 73.9261C67.4136 74.4148 67.3189 74.9848 67.3189 75.6364Z" fill="black"/>
<path d="M13 43.5529C13 47.1139 15.8865 50 19.4471 50H56.5527C60.1139 50 63 47.1135 63 43.5529V6.44727C63 2.88613 60.1135 0 56.5529 0H19.4473C15.8861 0 13 2.88652 13 6.44707V43.5527V43.5529Z" fill="#563D7C"/>
<path d="M33.734 22.1168V15.0361H39.9666C40.5604 15.0361 41.1326 15.0855 41.6838 15.1846C42.235 15.2834 42.7227 15.46 43.1467 15.7145C43.5705 15.9689 43.9098 16.3223 44.1643 16.7744C44.4186 17.2268 44.5459 17.8063 44.5459 18.5127C44.5459 19.7848 44.1643 20.7035 43.401 21.2688C42.6379 21.8342 41.6627 22.1168 40.4754 22.1168H33.734ZM27.0771 9.86328V40.1367H41.7475C43.1043 40.1367 44.4258 39.9672 45.7119 39.6279C46.998 39.2887 48.1428 38.7658 49.1463 38.0592C50.1496 37.3525 50.9482 36.4408 51.5418 35.3244C52.1355 34.2078 52.4322 32.8863 52.4322 31.36C52.4322 29.466 51.9729 27.8479 51.0543 26.5053C50.1355 25.1625 48.7434 24.2227 46.8777 23.6855C48.2346 23.0355 49.2594 22.2016 49.952 21.184C50.6443 20.1664 50.9906 18.8945 50.9906 17.368C50.9906 15.9547 50.7574 14.7676 50.291 13.8064C49.8246 12.8455 49.1674 12.0752 48.3193 11.4957C47.4715 10.9162 46.4539 10.4992 45.2666 10.2449C44.0795 9.99043 42.765 9.86328 41.3234 9.86328H27.0771ZM33.734 34.9639V26.6535H40.9842C42.4258 26.6535 43.5848 26.9855 44.4611 27.65C45.3373 28.3143 45.7756 29.4236 45.7756 30.9783C45.7756 31.7699 45.6412 32.4199 45.3727 32.9287C45.1041 33.4375 44.7438 33.8404 44.2914 34.1371C43.8393 34.434 43.3162 34.6459 42.7227 34.7732C42.1289 34.9002 41.5072 34.9639 40.857 34.9639H33.734Z" fill="white"/>
</svg>
