<svg width="74" height="74" viewBox="0 0 74 74" fill="none" xmlns="http://www.w3.org/2000/svg">
<circle cx="37" cy="37" r="37" fill="#EDBF48"/>
<path d="M27.1989 46.1646L29.8031 42.9104L21.4197 36.2042L29.8031 29.4979L27.1989 26.2437L16.7822 34.5771C16.5382 34.7723 16.3411 35.0198 16.2057 35.3015C16.0703 35.5831 16 35.8917 16 36.2042C16 36.5167 16.0703 36.8252 16.2057 37.1068C16.3411 37.3885 16.5382 37.6361 16.7822 37.8313L27.1989 46.1646ZM46.4697 26.2437L43.8656 29.4979L52.2489 36.2042L43.8656 42.9104L46.4697 46.1646L56.8864 37.8313C57.1305 37.6361 57.3275 37.3885 57.4629 37.1068C57.5983 36.8252 57.6686 36.5167 57.6686 36.2042C57.6686 35.8917 57.5983 35.5831 57.4629 35.3015C57.3275 35.0198 57.1305 34.7723 56.8864 34.5771L46.4697 26.2437ZM43.0343 17.9042L34.701 55.4042L30.6322 54.5L38.9656 17L43.0343 17.9042Z" fill="white"/>
</svg>
