<svg width="70" height="83" viewBox="0 0 70 83" fill="none" xmlns="http://www.w3.org/2000/svg">
<path d="M10.2031 80H6.61222V68.3636H10.3622C11.491 68.3636 12.4569 68.5966 13.2599 69.0625C14.063 69.5246 14.6785 70.1894 15.1065 71.0568C15.5346 71.9205 15.7486 72.9545 15.7486 74.1591C15.7486 75.3712 15.5327 76.4148 15.1009 77.2898C14.669 78.161 14.0402 78.8314 13.2145 79.3011C12.3887 79.767 11.3849 80 10.2031 80ZM8.02131 78.75H10.1122C11.0743 78.75 11.8717 78.5644 12.5043 78.1932C13.1368 77.822 13.6084 77.2936 13.919 76.608C14.2296 75.9223 14.3849 75.1061 14.3849 74.1591C14.3849 73.2197 14.2315 72.411 13.9247 71.733C13.6179 71.0511 13.1596 70.5284 12.5497 70.1648C11.9399 69.7973 11.1804 69.6136 10.2713 69.6136H8.02131V78.75ZM21.4759 80.1818C20.688 80.1818 19.9967 79.9943 19.402 79.6193C18.8111 79.2443 18.349 78.7197 18.0156 78.0455C17.6861 77.3712 17.5213 76.5833 17.5213 75.6818C17.5213 74.7727 17.6861 73.9792 18.0156 73.3011C18.349 72.6231 18.8111 72.0966 19.402 71.7216C19.9967 71.3466 20.688 71.1591 21.4759 71.1591C22.2637 71.1591 22.9531 71.3466 23.544 71.7216C24.1387 72.0966 24.6009 72.6231 24.9304 73.3011C25.2637 73.9792 25.4304 74.7727 25.4304 75.6818C25.4304 76.5833 25.2637 77.3712 24.9304 78.0455C24.6009 78.7197 24.1387 79.2443 23.544 79.6193C22.9531 79.9943 22.2637 80.1818 21.4759 80.1818ZM21.4759 78.9773C22.0743 78.9773 22.5668 78.8239 22.9531 78.517C23.3395 78.2102 23.6255 77.8068 23.8111 77.3068C23.9967 76.8068 24.0895 76.2652 24.0895 75.6818C24.0895 75.0985 23.9967 74.5549 23.8111 74.0511C23.6255 73.5473 23.3395 73.1402 22.9531 72.8295C22.5668 72.5189 22.0743 72.3636 21.4759 72.3636C20.8774 72.3636 20.3849 72.5189 19.9986 72.8295C19.6122 73.1402 19.3262 73.5473 19.1406 74.0511C18.955 74.5549 18.8622 75.0985 18.8622 75.6818C18.8622 76.2652 18.955 76.8068 19.1406 77.3068C19.3262 77.8068 19.6122 78.2102 19.9986 78.517C20.3849 78.8239 20.8774 78.9773 21.4759 78.9773ZM31.0227 80.1818C30.2045 80.1818 29.5 79.9886 28.9091 79.6023C28.3182 79.2159 27.8636 78.6837 27.5455 78.0057C27.2273 77.3277 27.0682 76.553 27.0682 75.6818C27.0682 74.7955 27.2311 74.0133 27.5568 73.3352C27.8864 72.6534 28.3447 72.1212 28.9318 71.7386C29.5227 71.3523 30.2121 71.1591 31 71.1591C31.6136 71.1591 32.1667 71.2727 32.6591 71.5C33.1515 71.7273 33.5549 72.0455 33.8693 72.4545C34.1837 72.8636 34.3788 73.3409 34.4545 73.8864H33.1136C33.0114 73.4886 32.7841 73.1364 32.4318 72.8295C32.0833 72.5189 31.6136 72.3636 31.0227 72.3636C30.5 72.3636 30.0417 72.5 29.6477 72.7727C29.2576 73.0417 28.9527 73.4223 28.733 73.9148C28.517 74.4034 28.4091 74.9773 28.4091 75.6364C28.4091 76.3106 28.5152 76.8977 28.7273 77.3977C28.9432 77.8977 29.2462 78.286 29.6364 78.5625C30.0303 78.839 30.4924 78.9773 31.0227 78.9773C31.3712 78.9773 31.6875 78.9167 31.9716 78.7955C32.2557 78.6742 32.4962 78.5 32.6932 78.2727C32.8902 78.0455 33.0303 77.7727 33.1136 77.4545H34.4545C34.3788 77.9697 34.1913 78.4337 33.892 78.8466C33.5966 79.2557 33.2045 79.5814 32.7159 79.8239C32.2311 80.0625 31.6667 80.1818 31.0227 80.1818ZM37.6648 76.8182L37.642 75.1591H37.9148L41.733 71.2727H43.392L39.3239 75.3864H39.2102L37.6648 76.8182ZM36.4148 80V68.3636H37.7557V80H36.4148ZM41.9602 80L38.5511 75.6818L39.5057 74.75L43.6648 80H41.9602ZM48.4176 80.1818C47.5767 80.1818 46.8513 79.9962 46.2415 79.625C45.6354 79.25 45.1676 78.7273 44.8381 78.0568C44.5123 77.3826 44.3494 76.5985 44.3494 75.7045C44.3494 74.8106 44.5123 74.0227 44.8381 73.3409C45.1676 72.6553 45.6259 72.1212 46.2131 71.7386C46.804 71.3523 47.4934 71.1591 48.2812 71.1591C48.7358 71.1591 49.1847 71.2348 49.6278 71.3864C50.071 71.5379 50.4744 71.7841 50.8381 72.125C51.2017 72.4621 51.4915 72.9091 51.7074 73.4659C51.9233 74.0227 52.0312 74.7083 52.0312 75.5227V76.0909H45.304V74.9318H50.6676C50.6676 74.4394 50.5691 74 50.3722 73.6136C50.179 73.2273 49.9025 72.9223 49.5426 72.6989C49.1866 72.4754 48.7661 72.3636 48.2812 72.3636C47.7472 72.3636 47.285 72.4962 46.8949 72.7614C46.5085 73.0227 46.2112 73.3636 46.0028 73.7841C45.7945 74.2045 45.6903 74.6553 45.6903 75.1364V75.9091C45.6903 76.5682 45.804 77.1269 46.0312 77.5852C46.2623 78.0398 46.5824 78.3864 46.9915 78.625C47.4006 78.8598 47.8759 78.9773 48.4176 78.9773C48.7699 78.9773 49.0881 78.928 49.3722 78.8295C49.66 78.7273 49.9081 78.5758 50.1165 78.375C50.3248 78.1705 50.4858 77.9167 50.5994 77.6136L51.8949 77.9773C51.7585 78.4167 51.5294 78.803 51.2074 79.1364C50.8854 79.4659 50.4877 79.7235 50.0142 79.9091C49.5407 80.0909 49.0085 80.1818 48.4176 80.1818ZM54.071 80V71.2727H55.3665V72.5909H55.4574C55.6165 72.1591 55.9044 71.8087 56.321 71.5398C56.7377 71.2708 57.2074 71.1364 57.7301 71.1364C57.8286 71.1364 57.9517 71.1383 58.0994 71.142C58.2472 71.1458 58.3589 71.1515 58.4347 71.1591V72.5227C58.3892 72.5114 58.285 72.4943 58.1222 72.4716C57.9631 72.4451 57.7945 72.4318 57.6165 72.4318C57.1922 72.4318 56.8134 72.5208 56.4801 72.6989C56.1506 72.8731 55.8892 73.1155 55.696 73.4261C55.5066 73.733 55.4119 74.0833 55.4119 74.4773V80H54.071Z" fill="black"/>
<path d="M67.761 19.0532C66.2029 17.9722 62.6324 17.5668 59.841 18.1073C59.5167 15.4046 58.0234 13.04 55.4267 10.9454L53.9337 9.86432L52.8948 11.4184C51.5967 13.4454 50.9475 16.2832 51.1421 18.9859C51.207 19.9316 51.5315 21.6208 52.5053 23.1073C51.5967 23.6478 49.714 24.3235 47.2472 24.3235H0.312089L0.182359 24.8641C-0.272236 27.5665 -0.272236 36.0122 5.05101 42.4984C9.07587 47.4305 15.0483 49.9305 22.9032 49.9305C39.9113 49.9305 52.5053 41.7549 58.4129 26.9584C60.7499 27.0259 65.7486 26.9584 68.2805 21.8908C68.3453 21.7557 68.4751 21.4854 68.9294 20.4722L69.1891 19.9316L67.761 19.0532ZM37.834 0H30.6934V6.75649H37.834V0ZM37.834 8.10784H30.6934V14.8643H37.834V8.10757V8.10784ZM29.3948 8.10784H22.2542V14.8643H29.3948V8.10757V8.10784ZM20.9556 8.10784H13.8148V14.8643H20.9556V8.10757V8.10784ZM12.5164 16.2157H5.3756V22.9722H12.5161V16.2154L12.5164 16.2157ZM20.9556 16.2157H13.8148V22.9722H20.9556V16.2154V16.2157ZM29.3948 16.2157H22.2542V22.9722H29.3948V16.2154V16.2157ZM37.8342 16.2157H30.6932V22.9722H37.8342V16.2154V16.2157ZM46.2734 16.2157H39.1324V22.9722H46.2734V16.2154V16.2157Z" fill="#2396ED"/>
</svg>
