<svg width="46" height="84" viewBox="0 0 46 84" fill="none" xmlns="http://www.w3.org/2000/svg">
<path d="M1.4794 80V68.3636H8.45668V69.6136H2.88849V73.5455H7.93395V74.7955H2.88849V80H1.4794ZM10.6882 80V71.2727H12.0291V80H10.6882ZM11.37 69.8182C11.1087 69.8182 10.8833 69.7292 10.6939 69.5511C10.5083 69.3731 10.4155 69.1591 10.4155 68.9091C10.4155 68.6591 10.5083 68.4451 10.6939 68.267C10.8833 68.089 11.1087 68 11.37 68C11.6314 68 11.8549 68.089 12.0405 68.267C12.2299 68.4451 12.3246 68.6591 12.3246 68.9091C12.3246 69.1591 12.2299 69.3731 12.0405 69.5511C11.8549 69.7292 11.6314 69.8182 11.37 69.8182ZM18.0078 83.4545C17.3601 83.4545 16.8033 83.3712 16.3374 83.2045C15.8714 83.0417 15.4832 82.8258 15.1726 82.5568C14.8658 82.2917 14.6214 82.0076 14.4396 81.7045L15.5078 80.9545C15.629 81.1136 15.7824 81.2955 15.968 81.5C16.1536 81.7083 16.4074 81.8883 16.7294 82.0398C17.0552 82.1951 17.4813 82.2727 18.0078 82.2727C18.7124 82.2727 19.2938 82.1023 19.7521 81.7614C20.2105 81.4205 20.4396 80.8864 20.4396 80.1591V78.3864H20.326C20.2275 78.5455 20.0874 78.7424 19.9055 78.9773C19.7275 79.2083 19.4699 79.4148 19.1328 79.5966C18.7995 79.7746 18.3487 79.8636 17.7805 79.8636C17.076 79.8636 16.4434 79.697 15.8828 79.3636C15.326 79.0303 14.8847 78.5455 14.5589 77.9091C14.237 77.2727 14.076 76.5 14.076 75.5909C14.076 74.697 14.2332 73.9186 14.5476 73.2557C14.862 72.589 15.2995 72.0739 15.8601 71.7102C16.4207 71.3428 17.0684 71.1591 17.8033 71.1591C18.3714 71.1591 18.8222 71.2538 19.1555 71.4432C19.4927 71.6288 19.7502 71.8409 19.9283 72.0795C20.1101 72.3144 20.2502 72.5076 20.3487 72.6591H20.4851V71.2727H21.7805V80.25C21.7805 81 21.6101 81.6098 21.2692 82.0795C20.9321 82.553 20.4775 82.8996 19.9055 83.1193C19.3374 83.3428 18.7048 83.4545 18.0078 83.4545ZM17.9624 78.6591C18.5002 78.6591 18.9548 78.536 19.326 78.2898C19.6972 78.0436 19.9794 77.6894 20.1726 77.2273C20.3658 76.7652 20.4624 76.2121 20.4624 75.5682C20.4624 74.9394 20.3677 74.3845 20.1783 73.9034C19.9889 73.4223 19.7086 73.0455 19.3374 72.7727C18.9661 72.5 18.5078 72.3636 17.9624 72.3636C17.3942 72.3636 16.9207 72.5076 16.5419 72.7955C16.1669 73.0833 15.8847 73.4697 15.6953 73.9545C15.5097 74.4394 15.4169 74.9773 15.4169 75.5682C15.4169 76.1742 15.5116 76.7102 15.701 77.1761C15.8942 77.6383 16.1783 78.0019 16.5533 78.267C16.9321 78.5284 17.4018 78.6591 17.9624 78.6591ZM24.2351 80V71.2727H25.5305V72.6364H25.6442C25.826 72.1705 26.1196 71.8087 26.5249 71.5511C26.9302 71.2898 27.4169 71.1591 27.9851 71.1591C28.5608 71.1591 29.04 71.2898 29.4226 71.5511C29.8089 71.8087 30.1101 72.1705 30.326 72.6364H30.4169C30.6404 72.1856 30.9756 71.8277 31.4226 71.5625C31.8696 71.2936 32.4055 71.1591 33.0305 71.1591C33.8108 71.1591 34.4491 71.4034 34.9453 71.892C35.4415 72.3769 35.6896 73.1326 35.6896 74.1591V80H34.3487V74.1591C34.3487 73.5152 34.1726 73.0549 33.8203 72.7784C33.468 72.5019 33.0533 72.3636 32.576 72.3636C31.9624 72.3636 31.487 72.5492 31.1499 72.9205C30.8127 73.2879 30.6442 73.7538 30.6442 74.3182V80H29.2805V74.0227C29.2805 73.5265 29.1196 73.1269 28.7976 72.8239C28.4756 72.517 28.0608 72.3636 27.5533 72.3636C27.2048 72.3636 26.879 72.4564 26.576 72.642C26.2768 72.8277 26.0343 73.0852 25.8487 73.4148C25.6669 73.7405 25.576 74.1174 25.576 74.5455V80H24.2351ZM40.7095 80.2045C40.1565 80.2045 39.6546 80.1004 39.2038 79.892C38.7531 79.6799 38.3951 79.375 38.13 78.9773C37.8648 78.5758 37.7322 78.0909 37.7322 77.5227C37.7322 77.0227 37.8307 76.6174 38.0277 76.3068C38.2247 75.9924 38.4879 75.7462 38.8175 75.5682C39.147 75.3902 39.5107 75.2576 39.9084 75.1705C40.3099 75.0795 40.7133 75.0076 41.1186 74.9545C41.6489 74.8864 42.0788 74.8352 42.4084 74.8011C42.7417 74.7633 42.9841 74.7008 43.1357 74.6136C43.291 74.5265 43.3686 74.375 43.3686 74.1591V74.1136C43.3686 73.553 43.2152 73.1174 42.9084 72.8068C42.6054 72.4962 42.1451 72.3409 41.5277 72.3409C40.8875 72.3409 40.3857 72.4811 40.022 72.7614C39.6584 73.0417 39.4027 73.3409 39.255 73.6591L37.9822 73.2045C38.2095 72.6742 38.5125 72.2614 38.8913 71.9659C39.2739 71.6667 39.6906 71.4583 40.1413 71.3409C40.5959 71.2197 41.0429 71.1591 41.4822 71.1591C41.7625 71.1591 42.0845 71.1932 42.4482 71.2614C42.8156 71.3258 43.1697 71.4602 43.5107 71.6648C43.8554 71.8693 44.1413 72.178 44.3686 72.5909C44.5959 73.0038 44.7095 73.5568 44.7095 74.25V80H43.3686V78.8182H43.3004C43.2095 79.0076 43.058 79.2102 42.8459 79.4261C42.6338 79.642 42.3516 79.8258 41.9993 79.9773C41.647 80.1288 41.2171 80.2045 40.7095 80.2045ZM40.9141 79C41.4444 79 41.8913 78.8958 42.255 78.6875C42.6224 78.4792 42.8989 78.2102 43.0845 77.8807C43.2739 77.5511 43.3686 77.2045 43.3686 76.8409V75.6136C43.3118 75.6818 43.1868 75.7443 42.9936 75.8011C42.8042 75.8542 42.5845 75.9015 42.3345 75.9432C42.0883 75.9811 41.8478 76.0152 41.6129 76.0455C41.3819 76.072 41.1944 76.0947 41.0504 76.1136C40.7019 76.1591 40.3762 76.233 40.0732 76.3352C39.7739 76.4337 39.5315 76.5833 39.3459 76.7841C39.1641 76.9811 39.0732 77.25 39.0732 77.5909C39.0732 78.0568 39.2455 78.4091 39.5902 78.6477C39.9387 78.8826 40.38 79 40.9141 79Z" fill="black"/>
<path d="M14.3333 49.9999C18.9333 49.9999 22.6667 46.2666 22.6667 41.6666V33.3333H14.3333C9.73333 33.3333 6 37.0666 6 41.6666C6 46.2666 9.73333 49.9999 14.3333 49.9999Z" fill="#0ACF83"/>
<path d="M6 25.0001C6 20.4001 9.73333 16.6667 14.3333 16.6667H22.6667V33.3334H14.3333C9.73333 33.3334 6 29.6001 6 25.0001Z" fill="#A259FF"/>
<path d="M6 8.33333C6 3.73333 9.73333 0 14.3333 0H22.6667V16.6667H14.3333C9.73333 16.6667 6 12.9333 6 8.33333Z" fill="#F24E1E"/>
<path d="M22.6665 0H30.9998C35.5998 0 39.3332 3.73333 39.3332 8.33333C39.3332 12.9333 35.5998 16.6667 30.9998 16.6667H22.6665V0Z" fill="#FF7262"/>
<path d="M39.3332 25.0001C39.3332 29.6001 35.5998 33.3334 30.9998 33.3334C26.3998 33.3334 22.6665 29.6001 22.6665 25.0001C22.6665 20.4001 26.3998 16.6667 30.9998 16.6667C35.5998 16.6667 39.3332 20.4001 39.3332 25.0001Z" fill="#1ABCFE"/>
</svg>
