<svg width="51" height="83" viewBox="0 0 51 83" fill="none" xmlns="http://www.w3.org/2000/svg">
<path d="M9.4027 72C9.2777 71.6174 9.11293 71.2746 8.90838 70.9716C8.70762 70.6648 8.46709 70.4034 8.18679 70.1875C7.91028 69.9716 7.59588 69.8068 7.24361 69.6932C6.89134 69.5795 6.50497 69.5227 6.08452 69.5227C5.39512 69.5227 4.76823 69.7008 4.20384 70.0568C3.63944 70.4129 3.19058 70.9375 2.85724 71.6307C2.52391 72.3239 2.35724 73.1742 2.35724 74.1818C2.35724 75.1894 2.52581 76.0398 2.86293 76.733C3.20005 77.4261 3.65649 77.9508 4.23224 78.3068C4.808 78.6629 5.45573 78.8409 6.17543 78.8409C6.84209 78.8409 7.42921 78.6989 7.93679 78.4148C8.44815 78.1269 8.84588 77.7216 9.12997 77.1989C9.41785 76.6723 9.56179 76.053 9.56179 75.3409L9.99361 75.4318H6.49361V74.1818H10.9254V75.4318C10.9254 76.3902 10.7209 77.2235 10.3118 77.9318C9.90649 78.6402 9.34588 79.1894 8.62997 79.5795C7.91785 79.9659 7.09967 80.1591 6.17543 80.1591C5.14512 80.1591 4.23982 79.9167 3.45952 79.4318C2.683 78.947 2.07694 78.2576 1.64134 77.3636C1.20952 76.4697 0.993608 75.4091 0.993608 74.1818C0.993608 73.2614 1.11671 72.4337 1.36293 71.6989C1.61293 70.9602 1.9652 70.3314 2.41974 69.8125C2.87429 69.2936 3.41217 68.8958 4.03338 68.6193C4.65459 68.3428 5.3383 68.2045 6.08452 68.2045C6.69815 68.2045 7.27012 68.2973 7.80043 68.483C8.33452 68.6648 8.8099 68.9242 9.22656 69.2614C9.64702 69.5947 9.9974 69.9943 10.2777 70.4602C10.558 70.9223 10.7512 71.4356 10.8572 72H9.4027ZM13.7038 80V71.2727H15.0447V80H13.7038ZM14.3857 69.8182C14.1243 69.8182 13.8989 69.7292 13.7095 69.5511C13.5239 69.3731 13.4311 69.1591 13.4311 68.9091C13.4311 68.6591 13.5239 68.4451 13.7095 68.267C13.8989 68.089 14.1243 68 14.3857 68C14.647 68 14.8705 68.089 15.0561 68.267C15.2455 68.4451 15.3402 68.6591 15.3402 68.9091C15.3402 69.1591 15.2455 69.3731 15.0561 69.5511C14.8705 69.7292 14.647 69.8182 14.3857 69.8182ZM21.2962 71.2727V72.4091H16.7734V71.2727H21.2962ZM18.0916 69.1818H19.4325V77.5C19.4325 77.8788 19.4875 78.1629 19.5973 78.3523C19.7109 78.5379 19.8549 78.6629 20.0291 78.7273C20.2071 78.7879 20.3946 78.8182 20.5916 78.8182C20.7393 78.8182 20.8606 78.8106 20.9553 78.7955C21.05 78.7765 21.1257 78.7614 21.1825 78.75L21.4553 79.9545C21.3643 79.9886 21.2375 80.0227 21.0746 80.0568C20.9117 80.0947 20.7053 80.1136 20.4553 80.1136C20.0765 80.1136 19.7053 80.0322 19.3416 79.8693C18.9818 79.7064 18.6825 79.4583 18.4439 79.125C18.209 78.7917 18.0916 78.3712 18.0916 77.8636V69.1818ZM24.8416 74.75V80H23.5007V68.3636H24.8416V72.6364H24.9553C25.1598 72.1856 25.4666 71.8277 25.8757 71.5625C26.2886 71.2936 26.8378 71.1591 27.5234 71.1591C28.1181 71.1591 28.639 71.2784 29.0859 71.517C29.5329 71.7519 29.8795 72.1136 30.1257 72.6023C30.3757 73.0871 30.5007 73.7045 30.5007 74.4545V80H29.1598V74.5455C29.1598 73.8523 28.9799 73.3163 28.62 72.9375C28.264 72.5549 27.7696 72.3636 27.1371 72.3636C26.6977 72.3636 26.3037 72.4564 25.9553 72.642C25.6106 72.8277 25.3378 73.0985 25.1371 73.4545C24.9401 73.8106 24.8416 74.2424 24.8416 74.75ZM38.4538 76.4318V71.2727H39.7947V80H38.4538V78.5227H38.3629C38.1584 78.9659 37.8402 79.3428 37.4084 79.6534C36.9766 79.9602 36.4311 80.1136 35.772 80.1136C35.2266 80.1136 34.7417 79.9943 34.3175 79.7557C33.8932 79.5133 33.5599 79.1496 33.3175 78.6648C33.075 78.1761 32.9538 77.5606 32.9538 76.8182V71.2727H34.2947V76.7273C34.2947 77.3636 34.4728 77.8712 34.8288 78.25C35.1887 78.6288 35.647 78.8182 36.2038 78.8182C36.5372 78.8182 36.8762 78.733 37.2209 78.5625C37.5694 78.392 37.861 78.1307 38.0959 77.7784C38.3345 77.4261 38.4538 76.9773 38.4538 76.4318ZM42.4325 80V68.3636H43.7734V72.6591H43.8871C43.9856 72.5076 44.1219 72.3144 44.2962 72.0795C44.4742 71.8409 44.728 71.6288 45.0575 71.4432C45.3909 71.2538 45.8416 71.1591 46.4098 71.1591C47.1446 71.1591 47.7924 71.3428 48.353 71.7102C48.9136 72.0777 49.3511 72.5985 49.6655 73.2727C49.9799 73.947 50.1371 74.7424 50.1371 75.6591C50.1371 76.5833 49.9799 77.3845 49.6655 78.0625C49.3511 78.7367 48.9155 79.2595 48.3587 79.6307C47.8018 79.9981 47.1598 80.1818 46.4325 80.1818C45.8719 80.1818 45.4231 80.089 45.0859 79.9034C44.7488 79.714 44.4893 79.5 44.3075 79.2614C44.1257 79.0189 43.9856 78.8182 43.8871 78.6591H43.728V80H42.4325ZM43.7507 75.6364C43.7507 76.2955 43.8473 76.8769 44.0405 77.3807C44.2337 77.8807 44.5159 78.2727 44.8871 78.5568C45.2583 78.8371 45.7128 78.9773 46.2507 78.9773C46.8113 78.9773 47.2791 78.8295 47.6541 78.5341C48.0329 78.2348 48.317 77.8333 48.5064 77.3295C48.6996 76.822 48.7962 76.2576 48.7962 75.6364C48.7962 75.0227 48.7015 74.4697 48.5121 73.9773C48.3265 73.4811 48.0443 73.089 47.6655 72.8011C47.2905 72.5095 46.8189 72.3636 46.2507 72.3636C45.7053 72.3636 45.2469 72.5019 44.8757 72.7784C44.5045 73.0511 44.2242 73.4337 44.0348 73.9261C43.8454 74.4148 43.7507 74.9848 43.7507 75.6364Z" fill="black"/>
<path fill-rule="evenodd" clip-rule="evenodd" d="M26.1851 1.29467e-05C20.4432 -0.00434482 14.8875 2.03582 10.513 5.75503C6.13852 9.47424 3.2312 14.6295 2.31184 20.2972C1.39249 25.965 2.52118 31.7749 5.49571 36.6861C8.47025 41.5974 13.0963 45.2892 18.5451 47.1C19.7551 47.32 20.1951 46.5733 20.1951 45.9333C20.1951 45.36 20.1751 43.84 20.1617 41.8233C13.4417 43.2833 12.0217 38.5833 12.0217 38.5833C10.9217 35.79 9.3384 35.05 9.3384 35.05C7.14506 33.55 9.50506 33.58 9.50506 33.58C11.9317 33.75 13.2051 36.07 13.2051 36.07C15.3617 39.7633 18.8617 38.6967 20.2384 38.0767C20.4584 36.5167 21.0851 35.45 21.7717 34.8467C16.4051 34.2367 10.7651 32.1633 10.7651 22.9033C10.7302 20.5024 11.622 18.1804 13.2551 16.42C13.0051 15.8067 12.1751 13.3533 13.4884 10.02C13.4884 10.02 15.5217 9.37335 20.1351 12.5C22.1071 11.9637 24.1414 11.6903 26.1851 11.6867C28.2287 11.6905 30.2629 11.964 32.2351 12.5C36.8484 9.37335 38.8751 10.0233 38.8751 10.0233C40.1951 13.35 39.3651 15.8067 39.1151 16.42C40.6651 18.11 41.5984 20.2633 41.5984 22.9033C41.5984 32.1867 35.9484 34.23 30.5651 34.8267C31.4317 35.5733 32.2051 37.05 32.2051 39.3033C32.2051 42.5367 32.1751 45.14 32.1751 45.9333C32.1751 46.58 32.6117 47.3333 33.8384 47.0967C39.2861 45.2836 43.9103 41.5901 46.8827 36.678C49.8551 31.7658 50.9815 25.9558 50.0602 20.2887C49.1389 14.6216 46.23 9.46769 41.8546 5.75008C37.4793 2.03247 31.9232 -0.00592732 26.1817 1.29467e-05H26.1851Z" fill="black"/>
</svg>
