<svg width="85" height="79" viewBox="0 0 85 79" fill="none" xmlns="http://www.w3.org/2000/svg">
<path d="M24.6839 67C24.5589 66.6174 24.3942 66.2746 24.1896 65.9716C23.9889 65.6648 23.7483 65.4034 23.468 65.1875C23.1915 64.9716 22.8771 64.8068 22.5249 64.6932C22.1726 64.5795 21.7862 64.5227 21.3658 64.5227C20.6764 64.5227 20.0495 64.7008 19.4851 65.0568C18.9207 65.4129 18.4718 65.9375 18.1385 66.6307C17.8052 67.3239 17.6385 68.1742 17.6385 69.1818C17.6385 70.1894 17.8071 71.0398 18.1442 71.733C18.4813 72.4261 18.9377 72.9508 19.5135 73.3068C20.0893 73.6629 20.737 73.8409 21.4567 73.8409C22.1233 73.8409 22.7105 73.6989 23.218 73.4148C23.7294 73.1269 24.1271 72.7216 24.4112 72.1989C24.6991 71.6723 24.843 71.053 24.843 70.3409L25.2749 70.4318H21.7749V69.1818H26.2067V70.4318C26.2067 71.3902 26.0021 72.2235 25.593 72.9318C25.1877 73.6402 24.6271 74.1894 23.9112 74.5795C23.1991 74.9659 22.3809 75.1591 21.4567 75.1591C20.4264 75.1591 19.5211 74.9167 18.7408 74.4318C17.9643 73.947 17.3582 73.2576 16.9226 72.3636C16.4908 71.4697 16.2749 70.4091 16.2749 69.1818C16.2749 68.2614 16.398 67.4337 16.6442 66.6989C16.8942 65.9602 17.2464 65.3314 17.701 64.8125C18.1555 64.2936 18.6934 63.8958 19.3146 63.6193C19.9358 63.3428 20.6196 63.2045 21.3658 63.2045C21.9794 63.2045 22.5514 63.2973 23.0817 63.483C23.6158 63.6648 24.0911 63.9242 24.5078 64.2614C24.9283 64.5947 25.2786 64.9943 25.5589 65.4602C25.8393 65.9223 26.0324 66.4356 26.1385 67H24.6839ZM31.9837 75.1818C31.1958 75.1818 30.5045 74.9943 29.9098 74.6193C29.3189 74.2443 28.8568 73.7197 28.5234 73.0455C28.1939 72.3712 28.0291 71.5833 28.0291 70.6818C28.0291 69.7727 28.1939 68.9792 28.5234 68.3011C28.8568 67.6231 29.3189 67.0966 29.9098 66.7216C30.5045 66.3466 31.1958 66.1591 31.9837 66.1591C32.7715 66.1591 33.4609 66.3466 34.0518 66.7216C34.6465 67.0966 35.1087 67.6231 35.4382 68.3011C35.7715 68.9792 35.9382 69.7727 35.9382 70.6818C35.9382 71.5833 35.7715 72.3712 35.4382 73.0455C35.1087 73.7197 34.6465 74.2443 34.0518 74.6193C33.4609 74.9943 32.7715 75.1818 31.9837 75.1818ZM31.9837 73.9773C32.5821 73.9773 33.0746 73.8239 33.4609 73.517C33.8473 73.2102 34.1333 72.8068 34.3189 72.3068C34.5045 71.8068 34.5973 71.2652 34.5973 70.6818C34.5973 70.0985 34.5045 69.5549 34.3189 69.0511C34.1333 68.5473 33.8473 68.1402 33.4609 67.8295C33.0746 67.5189 32.5821 67.3636 31.9837 67.3636C31.3852 67.3636 30.8928 67.5189 30.5064 67.8295C30.12 68.1402 29.834 68.5473 29.6484 69.0511C29.4628 69.5549 29.37 70.0985 29.37 70.6818C29.37 71.2652 29.4628 71.8068 29.6484 72.3068C29.834 72.8068 30.12 73.2102 30.5064 73.517C30.8928 73.8239 31.3852 73.9773 31.9837 73.9773ZM39.326 63.3636V75H37.9851V63.3636H39.326ZM44.3501 75.2045C43.7971 75.2045 43.2952 75.1004 42.8445 74.892C42.3937 74.6799 42.0357 74.375 41.7706 73.9773C41.5054 73.5758 41.3729 73.0909 41.3729 72.5227C41.3729 72.0227 41.4714 71.6174 41.6683 71.3068C41.8653 70.9924 42.1286 70.7462 42.4581 70.5682C42.7876 70.3902 43.1513 70.2576 43.549 70.1705C43.9505 70.0795 44.3539 70.0076 44.7592 69.9545C45.2895 69.8864 45.7195 69.8352 46.049 69.8011C46.3823 69.7633 46.6248 69.7008 46.7763 69.6136C46.9316 69.5265 47.0092 69.375 47.0092 69.1591V69.1136C47.0092 68.553 46.8558 68.1174 46.549 67.8068C46.246 67.4962 45.7857 67.3409 45.1683 67.3409C44.5282 67.3409 44.0263 67.4811 43.6626 67.7614C43.299 68.0417 43.0433 68.3409 42.8956 68.6591L41.6229 68.2045C41.8501 67.6742 42.1532 67.2614 42.532 66.9659C42.9145 66.6667 43.3312 66.4583 43.782 66.3409C44.2365 66.2197 44.6835 66.1591 45.1229 66.1591C45.4032 66.1591 45.7251 66.1932 46.0888 66.2614C46.4562 66.3258 46.8104 66.4602 47.1513 66.6648C47.496 66.8693 47.782 67.178 48.0092 67.5909C48.2365 68.0038 48.3501 68.5568 48.3501 69.25V75H47.0092V73.8182H46.9411C46.8501 74.0076 46.6986 74.2102 46.4865 74.4261C46.2744 74.642 45.9922 74.8258 45.6399 74.9773C45.2876 75.1288 44.8577 75.2045 44.3501 75.2045ZM44.5547 74C45.085 74 45.532 73.8958 45.8956 73.6875C46.263 73.4792 46.5395 73.2102 46.7251 72.8807C46.9145 72.5511 47.0092 72.2045 47.0092 71.8409V70.6136C46.9524 70.6818 46.8274 70.7443 46.6342 70.8011C46.4448 70.8542 46.2251 70.9015 45.9751 70.9432C45.7289 70.9811 45.4884 71.0152 45.2536 71.0455C45.0225 71.072 44.835 71.0947 44.6911 71.1136C44.3426 71.1591 44.0168 71.233 43.7138 71.3352C43.4145 71.4337 43.1721 71.5833 42.9865 71.7841C42.8047 71.9811 42.7138 72.25 42.7138 72.5909C42.7138 73.0568 42.8861 73.4091 43.2308 73.6477C43.5793 73.8826 44.0206 74 44.5547 74ZM52.1385 69.75V75H50.7976V66.2727H52.093V67.6364H52.2067C52.4112 67.1932 52.7218 66.8371 53.1385 66.5682C53.5552 66.2955 54.093 66.1591 54.7521 66.1591C55.343 66.1591 55.8601 66.2803 56.3033 66.5227C56.7464 66.7614 57.0911 67.125 57.3374 67.6136C57.5836 68.0985 57.7067 68.7121 57.7067 69.4545V75H56.3658V69.5455C56.3658 68.8598 56.1877 68.3258 55.8317 67.9432C55.4756 67.5568 54.987 67.3636 54.3658 67.3636C53.9377 67.3636 53.5552 67.4564 53.218 67.642C52.8847 67.8277 52.6214 68.0985 52.4283 68.4545C52.2351 68.8106 52.1385 69.2424 52.1385 69.75ZM63.6797 78.4545C63.032 78.4545 62.4751 78.3712 62.0092 78.2045C61.5433 78.0417 61.1551 77.8258 60.8445 77.5568C60.5376 77.2917 60.2933 77.0076 60.1115 76.7045L61.1797 75.9545C61.3009 76.1136 61.4543 76.2955 61.6399 76.5C61.8255 76.7083 62.0793 76.8883 62.4013 77.0398C62.727 77.1951 63.1532 77.2727 63.6797 77.2727C64.3842 77.2727 64.9657 77.1023 65.424 76.7614C65.8823 76.4205 66.1115 75.8864 66.1115 75.1591V73.3864H65.9979C65.8994 73.5455 65.7592 73.7424 65.5774 73.9773C65.3994 74.2083 65.1418 74.4148 64.8047 74.5966C64.4714 74.7746 64.0206 74.8636 63.4524 74.8636C62.7479 74.8636 62.1153 74.697 61.5547 74.3636C60.9979 74.0303 60.5566 73.5455 60.2308 72.9091C59.9089 72.2727 59.7479 71.5 59.7479 70.5909C59.7479 69.697 59.9051 68.9186 60.2195 68.2557C60.5339 67.589 60.9714 67.0739 61.532 66.7102C62.0926 66.3428 62.7403 66.1591 63.4751 66.1591C64.0433 66.1591 64.4941 66.2538 64.8274 66.4432C65.1645 66.6288 65.4221 66.8409 65.6001 67.0795C65.782 67.3144 65.9221 67.5076 66.0206 67.6591H66.157V66.2727H67.4524V75.25C67.4524 76 67.282 76.6098 66.9411 77.0795C66.6039 77.553 66.1494 77.8996 65.5774 78.1193C65.0092 78.3428 64.3767 78.4545 63.6797 78.4545ZM63.6342 73.6591C64.1721 73.6591 64.6267 73.536 64.9979 73.2898C65.3691 73.0436 65.6513 72.6894 65.8445 72.2273C66.0376 71.7652 66.1342 71.2121 66.1342 70.5682C66.1342 69.9394 66.0395 69.3845 65.8501 68.9034C65.6607 68.4223 65.3804 68.0455 65.0092 67.7727C64.638 67.5 64.1797 67.3636 63.6342 67.3636C63.0661 67.3636 62.5926 67.5076 62.2138 67.7955C61.8388 68.0833 61.5566 68.4697 61.3672 68.9545C61.1816 69.4394 61.0888 69.9773 61.0888 70.5682C61.0888 71.1742 61.1835 71.7102 61.3729 72.1761C61.5661 72.6383 61.8501 73.0019 62.2251 73.267C62.6039 73.5284 63.0736 73.6591 63.6342 73.6591Z" fill="black"/>
<path d="M6.63321 9.54357C6.46899 9.54357 6.42774 9.46133 6.50998 9.3381L7.37257 8.22906C7.42834 8.16398 7.49766 8.11188 7.57568 8.07639C7.65369 8.0409 7.73852 8.02288 7.82422 8.02359H22.4866C22.6508 8.02359 22.6921 8.14682 22.6098 8.27005L21.9117 9.33784C21.8129 9.47118 21.6652 9.55983 21.5011 9.58429L6.63321 9.54357ZM0.431412 13.321C0.267198 13.321 0.225945 13.2388 0.308185 13.1156L1.17077 12.0065C1.22655 11.9414 1.29587 11.8893 1.37388 11.8538C1.45189 11.8184 1.53672 11.8003 1.62243 11.801H20.351C20.3829 11.7966 20.4153 11.8003 20.4453 11.8119C20.4752 11.8234 20.5018 11.8424 20.5223 11.8671C20.5429 11.8918 20.5568 11.9213 20.5628 11.9529C20.5688 11.9844 20.5666 12.017 20.5565 12.0475L20.2278 13.0341C20.2028 13.1108 20.1526 13.1768 20.0855 13.2215C20.0183 13.2663 19.938 13.287 19.8576 13.2806L0.431412 13.321ZM10.3707 17.0995C10.2065 17.0995 10.1653 16.9763 10.2475 16.8531L10.8224 15.8263C10.8675 15.7566 10.928 15.6982 10.9992 15.6555C11.0704 15.6128 11.1504 15.5869 11.2331 15.5798H19.4475C19.6117 15.5798 19.6939 15.7031 19.6939 15.8673L19.6117 16.8531C19.6067 16.9277 19.5748 16.9979 19.522 17.0508C19.4691 17.1037 19.3988 17.1356 19.3242 17.1405L10.3707 17.0995ZM53.0024 8.80315C50.4149 9.46027 48.6488 9.95318 46.1025 10.6103C45.4864 10.7745 45.4454 10.8158 44.9126 10.1996C44.2964 9.50152 43.8448 9.0496 42.9822 8.63946C40.3947 7.36621 37.8894 7.73589 35.5484 9.2556C32.7557 11.0627 31.3174 13.7322 31.3592 17.0591C31.4002 20.3447 33.6598 23.0554 36.9039 23.5073C39.6966 23.8775 42.0376 22.8912 43.885 20.7966C44.2552 20.3449 44.5831 19.852 44.994 19.2769H37.0668C36.2042 19.2769 35.999 18.743 36.2864 18.0449C36.8203 16.7716 37.8061 14.6361 38.381 13.5683C38.4693 13.3704 38.6136 13.2028 38.796 13.086C38.9785 12.9692 39.1912 12.9084 39.4078 12.9111H54.3577C54.2754 14.0202 54.2754 15.129 54.1112 16.238C53.6857 19.1625 52.5271 21.9317 50.7434 24.2879C47.7862 28.1889 43.9254 30.6119 39.0381 31.269C35.0132 31.8029 31.2756 31.0226 27.99 28.5583C26.5297 27.4894 25.3106 26.1252 24.412 24.5544C23.5134 22.9835 22.9553 21.2412 22.7741 19.4406C22.2402 14.964 23.5544 10.939 26.2646 7.40667C29.1811 3.58717 33.0418 1.16415 37.7641 0.30156C41.6248 -0.396549 45.3211 0.0551067 48.648 2.31391C50.7756 3.72875 52.434 5.74466 53.4123 8.10504C53.6596 8.47472 53.4951 8.68018 53.0024 8.80315Z" fill="#00ACD7"/>
<path d="M66.5969 31.5154C62.8593 31.4332 59.4505 30.3654 56.5748 27.9011C54.1828 25.8851 52.6061 23.0676 52.1392 19.9744C51.3987 15.3333 52.673 11.2264 55.466 7.57107C58.4642 3.62835 62.0785 1.57474 66.9658 0.712157C71.1549 -0.0282617 75.0979 0.383463 78.671 2.80675C81.9156 5.02456 83.9279 8.02273 84.4621 11.9655C85.1602 17.5101 83.5585 22.0277 79.739 25.8885C77.0611 28.5981 73.624 30.4312 69.8819 31.1455C68.7737 31.3512 67.6649 31.3922 66.5969 31.5154V31.5154ZM76.3717 14.9229C76.3567 14.4692 76.3156 14.0167 76.2485 13.5677C75.5081 9.50171 71.7719 7.20166 67.8701 8.10523C64.0506 8.96782 61.5864 11.3908 60.6828 15.2516C60.3094 16.783 60.4827 18.3968 61.1726 19.8141C61.8624 21.2314 63.0257 22.3632 64.4613 23.0141C66.7201 23.9999 68.9792 23.8767 71.156 22.7676C74.4004 21.0834 76.1665 18.455 76.3717 14.9229V14.9229Z" fill="#00ACD7"/>
</svg>
