<svg width="74" height="74" viewBox="0 0 74 74" fill="none" xmlns="http://www.w3.org/2000/svg">
<circle cx="37" cy="37" r="37" fill="#286F6C"/>
<path d="M22.5203 16L20.3203 18.1969L23.5938 21.4688L25.7906 19.2719L22.5187 16H22.5203ZM51.2313 16L47.9578 19.2719L50.1562 21.4688L53.4281 18.1984L51.2297 16H51.2313ZM36.875 16.975C36.3594 16.9813 35.8375 17.0109 35.3125 17.075C35.2969 17.075 35.2812 17.0719 35.2656 17.075C28.9281 17.8016 23.8844 22.9219 23.0078 29.2312C22.3078 34.3094 24.4016 38.9141 27.8906 41.8797C29.3178 43.0977 30.2832 44.7692 30.625 46.6141V55.9891H34.1875C34.7312 56.9219 35.7234 57.5516 36.875 57.5516C38.0266 57.5516 39.0187 56.9219 39.5625 55.9891H43.125V49.7391H43.2719V47.8828C43.2719 45.5922 44.4625 43.2828 46.3969 41.4875C48.9844 38.8969 50.9375 35.2172 50.9375 30.9906C50.9375 23.2719 44.5844 16.9031 36.875 16.975ZM36.875 20.1C42.9141 20.0156 47.8125 24.9594 47.8125 30.9906C47.8125 34.2625 46.2969 37.1438 44.1984 39.2406L44.2484 39.2906C42.1631 41.2136 40.8146 43.8044 40.4359 46.6156H33.6016C33.2578 43.9375 32.1094 41.3453 29.9391 39.4859C27.1781 37.1422 25.5328 33.6109 26.0828 29.6234C26.7656 24.7016 30.7594 20.7437 35.6531 20.2016C36.0572 20.1452 36.4641 20.1118 36.8719 20.1016L36.875 20.1ZM15 30.9906V34.1156H19.6875V30.9906H15ZM54.0625 30.9906V34.1156H58.75V30.9906H54.0625ZM23.5938 43.6375L20.3219 46.9078L22.5203 49.1063L25.7891 45.8344L23.5938 43.6375ZM50.1562 43.6375L47.9594 45.8344L51.2297 49.1063L53.4281 46.9078L50.1562 43.6375ZM33.75 49.7406H40V52.8656H33.75V49.7406Z" fill="white"/>
</svg>
