<svg width="78" height="79" viewBox="0 0 78 79" fill="none" xmlns="http://www.w3.org/2000/svg">
<path d="M6.03551 63.3636H7.4446V71.6818C7.4446 72.4242 7.30824 73.0549 7.03551 73.5739C6.76278 74.0928 6.37831 74.4867 5.8821 74.7557C5.38589 75.0246 4.80066 75.1591 4.12642 75.1591C3.49006 75.1591 2.92377 75.0436 2.42756 74.8125C1.93134 74.5777 1.54119 74.2443 1.2571 73.8125C0.973011 73.3807 0.830966 72.8674 0.830966 72.2727H2.21733C2.21733 72.6023 2.29877 72.8902 2.46165 73.1364C2.62831 73.3788 2.85559 73.5682 3.14347 73.7045C3.43134 73.8409 3.759 73.9091 4.12642 73.9091C4.53172 73.9091 4.87642 73.8239 5.16051 73.6534C5.4446 73.483 5.66051 73.233 5.80824 72.9034C5.95975 72.5701 6.03551 72.1629 6.03551 71.6818V63.3636ZM12.6548 75.2045C12.1018 75.2045 11.5999 75.1004 11.1491 74.892C10.6984 74.6799 10.3404 74.375 10.0753 73.9773C9.81013 73.5758 9.67756 73.0909 9.67756 72.5227C9.67756 72.0227 9.77604 71.6174 9.97301 71.3068C10.17 70.9924 10.4332 70.7462 10.7628 70.5682C11.0923 70.3902 11.456 70.2576 11.8537 70.1705C12.2552 70.0795 12.6586 70.0076 13.0639 69.9545C13.5942 69.8864 14.0241 69.8352 14.3537 69.8011C14.687 69.7633 14.9295 69.7008 15.081 69.6136C15.2363 69.5265 15.3139 69.375 15.3139 69.1591V69.1136C15.3139 68.553 15.1605 68.1174 14.8537 67.8068C14.5507 67.4962 14.0904 67.3409 13.473 67.3409C12.8329 67.3409 12.331 67.4811 11.9673 67.7614C11.6037 68.0417 11.348 68.3409 11.2003 68.6591L9.92756 68.2045C10.1548 67.6742 10.4579 67.2614 10.8366 66.9659C11.2192 66.6667 11.6359 66.4583 12.0866 66.3409C12.5412 66.2197 12.9882 66.1591 13.4276 66.1591C13.7079 66.1591 14.0298 66.1932 14.3935 66.2614C14.7609 66.3258 15.1151 66.4602 15.456 66.6648C15.8007 66.8693 16.0866 67.178 16.3139 67.5909C16.5412 68.0038 16.6548 68.5568 16.6548 69.25V75H15.3139V73.8182H15.2457C15.1548 74.0076 15.0033 74.2102 14.7912 74.4261C14.5791 74.642 14.2969 74.8258 13.9446 74.9773C13.5923 75.1288 13.1624 75.2045 12.6548 75.2045ZM12.8594 74C13.3897 74 13.8366 73.8958 14.2003 73.6875C14.5677 73.4792 14.8442 73.2102 15.0298 72.8807C15.2192 72.5511 15.3139 72.2045 15.3139 71.8409V70.6136C15.2571 70.6818 15.1321 70.7443 14.9389 70.8011C14.7495 70.8542 14.5298 70.9015 14.2798 70.9432C14.0336 70.9811 13.7931 71.0152 13.5582 71.0455C13.3272 71.072 13.1397 71.0947 12.9957 71.1136C12.6473 71.1591 12.3215 71.233 12.0185 71.3352C11.7192 71.4337 11.4768 71.5833 11.2912 71.7841C11.1094 71.9811 11.0185 72.25 11.0185 72.5909C11.0185 73.0568 11.1908 73.4091 11.5355 73.6477C11.884 73.8826 12.3253 74 12.8594 74ZM25.9261 66.2727L22.6989 75H21.3352L18.108 66.2727H19.5625L21.9716 73.2273H22.0625L24.4716 66.2727H25.9261ZM29.9986 75.2045C29.4455 75.2045 28.9437 75.1004 28.4929 74.892C28.0421 74.6799 27.6842 74.375 27.419 73.9773C27.1539 73.5758 27.0213 73.0909 27.0213 72.5227C27.0213 72.0227 27.1198 71.6174 27.3168 71.3068C27.5137 70.9924 27.777 70.7462 28.1065 70.5682C28.4361 70.3902 28.7997 70.2576 29.1974 70.1705C29.599 70.0795 30.0024 70.0076 30.4077 69.9545C30.938 69.8864 31.3679 69.8352 31.6974 69.8011C32.0308 69.7633 32.2732 69.7008 32.4247 69.6136C32.58 69.5265 32.6577 69.375 32.6577 69.1591V69.1136C32.6577 68.553 32.5043 68.1174 32.1974 67.8068C31.8944 67.4962 31.4342 67.3409 30.8168 67.3409C30.1766 67.3409 29.6747 67.4811 29.3111 67.7614C28.9474 68.0417 28.6918 68.3409 28.544 68.6591L27.2713 68.2045C27.4986 67.6742 27.8016 67.2614 28.1804 66.9659C28.563 66.6667 28.9796 66.4583 29.4304 66.3409C29.8849 66.2197 30.3319 66.1591 30.7713 66.1591C31.0516 66.1591 31.3736 66.1932 31.7372 66.2614C32.1046 66.3258 32.4588 66.4602 32.7997 66.6648C33.1444 66.8693 33.4304 67.178 33.6577 67.5909C33.8849 68.0038 33.9986 68.5568 33.9986 69.25V75H32.6577V73.8182H32.5895C32.4986 74.0076 32.3471 74.2102 32.1349 74.4261C31.9228 74.642 31.6406 74.8258 31.2884 74.9773C30.9361 75.1288 30.5062 75.2045 29.9986 75.2045ZM30.2031 74C30.7334 74 31.1804 73.8958 31.544 73.6875C31.9115 73.4792 32.188 73.2102 32.3736 72.8807C32.563 72.5511 32.6577 72.2045 32.6577 71.8409V70.6136C32.6009 70.6818 32.4759 70.7443 32.2827 70.8011C32.0933 70.8542 31.8736 70.9015 31.6236 70.9432C31.3774 70.9811 31.1368 71.0152 30.902 71.0455C30.6709 71.072 30.4834 71.0947 30.3395 71.1136C29.991 71.1591 29.6652 71.233 29.3622 71.3352C29.063 71.4337 28.8205 71.5833 28.6349 71.7841C28.4531 71.9811 28.3622 72.25 28.3622 72.5909C28.3622 73.0568 28.5346 73.4091 28.8793 73.6477C29.2277 73.8826 29.669 74 30.2031 74ZM42.6278 68.2273L41.4233 68.5682C41.3475 68.3674 41.2358 68.1723 41.0881 67.983C40.9441 67.7898 40.7472 67.6307 40.4972 67.5057C40.2472 67.3807 39.9271 67.3182 39.5369 67.3182C39.0028 67.3182 38.5578 67.4413 38.2017 67.6875C37.8494 67.9299 37.6733 68.2386 37.6733 68.6136C37.6733 68.947 37.7945 69.2102 38.0369 69.4034C38.2794 69.5966 38.6581 69.7576 39.1733 69.8864L40.4688 70.2045C41.2491 70.3939 41.8305 70.6837 42.2131 71.0739C42.5956 71.4602 42.7869 71.9583 42.7869 72.5682C42.7869 73.0682 42.643 73.5152 42.3551 73.9091C42.071 74.303 41.6733 74.6136 41.1619 74.8409C40.6506 75.0682 40.0559 75.1818 39.3778 75.1818C38.4877 75.1818 37.7509 74.9886 37.1676 74.6023C36.5843 74.2159 36.215 73.6515 36.0597 72.9091L37.3324 72.5909C37.4536 73.0606 37.6828 73.4129 38.0199 73.6477C38.3608 73.8826 38.8059 74 39.3551 74C39.9801 74 40.4763 73.8674 40.8438 73.6023C41.215 73.3333 41.4006 73.0114 41.4006 72.6364C41.4006 72.3333 41.2945 72.0795 41.0824 71.875C40.8703 71.6667 40.5445 71.5114 40.1051 71.4091L38.6506 71.0682C37.8513 70.8788 37.2642 70.5852 36.8892 70.1875C36.518 69.786 36.3324 69.2841 36.3324 68.6818C36.3324 68.1894 36.4706 67.7538 36.7472 67.375C37.0275 66.9962 37.4081 66.6989 37.8892 66.483C38.3741 66.267 38.9233 66.1591 39.5369 66.1591C40.4006 66.1591 41.0786 66.3485 41.571 66.7273C42.0672 67.1061 42.4195 67.6061 42.6278 68.2273ZM48.3509 75.1818C47.5327 75.1818 46.8281 74.9886 46.2372 74.6023C45.6463 74.2159 45.1918 73.6837 44.8736 73.0057C44.5554 72.3277 44.3963 71.553 44.3963 70.6818C44.3963 69.7955 44.5592 69.0133 44.8849 68.3352C45.2145 67.6534 45.6728 67.1212 46.2599 66.7386C46.8509 66.3523 47.5402 66.1591 48.3281 66.1591C48.9418 66.1591 49.4948 66.2727 49.9872 66.5C50.4796 66.7273 50.883 67.0455 51.1974 67.4545C51.5118 67.8636 51.7069 68.3409 51.7827 68.8864H50.4418C50.3395 68.4886 50.1122 68.1364 49.7599 67.8295C49.4115 67.5189 48.9418 67.3636 48.3509 67.3636C47.8281 67.3636 47.3698 67.5 46.9759 67.7727C46.5857 68.0417 46.2808 68.4223 46.0611 68.9148C45.8452 69.4034 45.7372 69.9773 45.7372 70.6364C45.7372 71.3106 45.8433 71.8977 46.0554 72.3977C46.2713 72.8977 46.5743 73.286 46.9645 73.5625C47.3584 73.839 47.8205 73.9773 48.3509 73.9773C48.6993 73.9773 49.0156 73.9167 49.2997 73.7955C49.5838 73.6742 49.8243 73.5 50.0213 73.2727C50.2183 73.0455 50.3584 72.7727 50.4418 72.4545H51.7827C51.7069 72.9697 51.5194 73.4337 51.2202 73.8466C50.9247 74.2557 50.5327 74.5814 50.044 74.8239C49.5592 75.0625 48.9948 75.1818 48.3509 75.1818ZM53.7429 75V66.2727H55.0384V67.5909H55.1293C55.2884 67.1591 55.5762 66.8087 55.9929 66.5398C56.4096 66.2708 56.8793 66.1364 57.402 66.1364C57.5005 66.1364 57.6236 66.1383 57.7713 66.142C57.919 66.1458 58.0308 66.1515 58.1065 66.1591V67.5227C58.0611 67.5114 57.9569 67.4943 57.794 67.4716C57.6349 67.4451 57.4664 67.4318 57.2884 67.4318C56.8641 67.4318 56.4853 67.5208 56.152 67.6989C55.8224 67.8731 55.5611 68.1155 55.3679 68.4261C55.1785 68.733 55.0838 69.0833 55.0838 69.4773V75H53.7429ZM59.696 75V66.2727H61.0369V75H59.696ZM60.3778 64.8182C60.1165 64.8182 59.8911 64.7292 59.7017 64.5511C59.5161 64.3731 59.4233 64.1591 59.4233 63.9091C59.4233 63.6591 59.5161 63.4451 59.7017 63.267C59.8911 63.089 60.1165 63 60.3778 63C60.6392 63 60.8627 63.089 61.0483 63.267C61.2377 63.4451 61.3324 63.6591 61.3324 63.9091C61.3324 64.1591 61.2377 64.3731 61.0483 64.5511C60.8627 64.7292 60.6392 64.8182 60.3778 64.8182ZM63.4929 78.2727V66.2727H64.7884V67.6591H64.9474C65.0459 67.5076 65.1823 67.3144 65.3565 67.0795C65.5346 66.8409 65.7884 66.6288 66.1179 66.4432C66.4512 66.2538 66.902 66.1591 67.4702 66.1591C68.205 66.1591 68.8527 66.3428 69.4134 66.7102C69.974 67.0777 70.4115 67.5985 70.7259 68.2727C71.0402 68.947 71.1974 69.7424 71.1974 70.6591C71.1974 71.5833 71.0402 72.3845 70.7259 73.0625C70.4115 73.7367 69.9759 74.2595 69.419 74.6307C68.8622 74.9981 68.2202 75.1818 67.4929 75.1818C66.9323 75.1818 66.4834 75.089 66.1463 74.9034C65.8092 74.714 65.5497 74.5 65.3679 74.2614C65.1861 74.0189 65.0459 73.8182 64.9474 73.6591H64.8338V78.2727H63.4929ZM64.8111 70.6364C64.8111 71.2955 64.9077 71.8769 65.1009 72.3807C65.294 72.8807 65.5762 73.2727 65.9474 73.5568C66.3187 73.8371 66.7732 73.9773 67.3111 73.9773C67.8717 73.9773 68.3395 73.8295 68.7145 73.5341C69.0933 73.2348 69.3774 72.8333 69.5668 72.3295C69.7599 71.822 69.8565 71.2576 69.8565 70.6364C69.8565 70.0227 69.7618 69.4697 69.5724 68.9773C69.3868 68.4811 69.1046 68.089 68.7259 67.8011C68.3509 67.5095 67.8793 67.3636 67.3111 67.3636C66.7656 67.3636 66.3073 67.5019 65.9361 67.7784C65.5649 68.0511 65.2846 68.4337 65.0952 68.9261C64.9058 69.4148 64.8111 69.9848 64.8111 70.6364ZM77.0384 66.2727V67.4091H72.5156V66.2727H77.0384ZM73.8338 64.1818H75.1747V72.5C75.1747 72.8788 75.2296 73.1629 75.3395 73.3523C75.4531 73.5379 75.5971 73.6629 75.7713 73.7273C75.9493 73.7879 76.1368 73.8182 76.3338 73.8182C76.4815 73.8182 76.6027 73.8106 76.6974 73.7955C76.7921 73.7765 76.8679 73.7614 76.9247 73.75L77.1974 74.9545C77.1065 74.9886 76.9796 75.0227 76.8168 75.0568C76.6539 75.0947 76.4474 75.1136 76.1974 75.1136C75.8187 75.1136 75.4474 75.0322 75.0838 74.8693C74.724 74.7064 74.4247 74.4583 74.1861 74.125C73.9512 73.7917 73.8338 73.3712 73.8338 72.8636V64.1818Z" fill="black"/>
<path d="M14 0H64V50H14V0Z" fill="#F7DF1E"/>
<path d="M27.1469 41.7835L30.9731 39.4679C31.7114 40.7767 32.3829 41.8841 33.9936 41.8841C35.5375 41.8841 36.5112 41.2802 36.5112 38.931V22.9548H41.2098V38.9974C41.2098 43.864 38.3571 46.0792 34.195 46.0792C30.4362 46.0792 28.2543 44.1325 27.1467 41.7831L27.1469 41.7835ZM43.762 41.28L47.5877 39.0649C48.595 40.7097 49.904 41.9179 52.2196 41.9179C54.1667 41.9179 55.4081 40.9444 55.4081 39.6019C55.4081 37.9909 54.1327 37.4202 51.9846 36.4808L50.8102 35.9769C47.4202 34.5341 45.1715 32.7216 45.1715 28.8954C45.1715 25.3712 47.8565 22.686 52.052 22.686C55.0391 22.686 57.1872 23.7267 58.7309 26.4452L55.0723 28.7948C54.2667 27.3517 53.3944 26.7812 52.0518 26.7812C50.6756 26.7812 49.803 27.6538 49.803 28.7948C49.803 30.2044 50.6756 30.7753 52.6893 31.6479L53.8639 32.1513C57.8581 33.8632 60.1067 35.6083 60.1067 39.5349C60.1067 43.7642 56.784 46.0798 52.3202 46.0798C47.9571 46.0798 45.1377 43.9989 43.7618 41.2802" fill="black"/>
</svg>
