<svg width="60" height="83" viewBox="0 0 60 83" fill="none" xmlns="http://www.w3.org/2000/svg">
<path d="M1.72159 80V68.3636H3.13068V78.75H8.53977V80H1.72159ZM13.108 80.2045C12.5549 80.2045 12.053 80.1004 11.6023 79.892C11.1515 79.6799 10.7936 79.375 10.5284 78.9773C10.2633 78.5758 10.1307 78.0909 10.1307 77.5227C10.1307 77.0227 10.2292 76.6174 10.4261 76.3068C10.6231 75.9924 10.8864 75.7462 11.2159 75.5682C11.5455 75.3902 11.9091 75.2576 12.3068 75.1705C12.7083 75.0795 13.1117 75.0076 13.517 74.9545C14.0473 74.8864 14.4773 74.8352 14.8068 74.8011C15.1402 74.7633 15.3826 74.7008 15.5341 74.6136C15.6894 74.5265 15.767 74.375 15.767 74.1591V74.1136C15.767 73.553 15.6136 73.1174 15.3068 72.8068C15.0038 72.4962 14.5436 72.3409 13.9261 72.3409C13.286 72.3409 12.7841 72.4811 12.4205 72.7614C12.0568 73.0417 11.8011 73.3409 11.6534 73.6591L10.3807 73.2045C10.608 72.6742 10.911 72.2614 11.2898 71.9659C11.6723 71.6667 12.089 71.4583 12.5398 71.3409C12.9943 71.2197 13.4413 71.1591 13.8807 71.1591C14.161 71.1591 14.483 71.1932 14.8466 71.2614C15.214 71.3258 15.5682 71.4602 15.9091 71.6648C16.2538 71.8693 16.5398 72.178 16.767 72.5909C16.9943 73.0038 17.108 73.5568 17.108 74.25V80H15.767V78.8182H15.6989C15.608 79.0076 15.4564 79.2102 15.2443 79.4261C15.0322 79.642 14.75 79.8258 14.3977 79.9773C14.0455 80.1288 13.6155 80.2045 13.108 80.2045ZM13.3125 79C13.8428 79 14.2898 78.8958 14.6534 78.6875C15.0208 78.4792 15.2973 78.2102 15.483 77.8807C15.6723 77.5511 15.767 77.2045 15.767 76.8409V75.6136C15.7102 75.6818 15.5852 75.7443 15.392 75.8011C15.2027 75.8542 14.983 75.9015 14.733 75.9432C14.4867 75.9811 14.2462 76.0152 14.0114 76.0455C13.7803 76.072 13.5928 76.0947 13.4489 76.1136C13.1004 76.1591 12.7746 76.233 12.4716 76.3352C12.1723 76.4337 11.9299 76.5833 11.7443 76.7841C11.5625 76.9811 11.4716 77.25 11.4716 77.5909C11.4716 78.0568 11.6439 78.4091 11.9886 78.6477C12.3371 78.8826 12.7784 79 13.3125 79ZM19.5554 80V71.2727H20.8509V72.5909H20.9418C21.1009 72.1591 21.3887 71.8087 21.8054 71.5398C22.2221 71.2708 22.6918 71.1364 23.2145 71.1364C23.313 71.1364 23.4361 71.1383 23.5838 71.142C23.7315 71.1458 23.8433 71.1515 23.919 71.1591V72.5227C23.8736 72.5114 23.7694 72.4943 23.6065 72.4716C23.4474 72.4451 23.2789 72.4318 23.1009 72.4318C22.6766 72.4318 22.2978 72.5208 21.9645 72.6989C21.6349 72.8731 21.3736 73.1155 21.1804 73.4261C20.991 73.733 20.8963 74.0833 20.8963 74.4773V80H19.5554ZM28.0767 80.2045C27.5237 80.2045 27.0218 80.1004 26.571 79.892C26.1203 79.6799 25.7623 79.375 25.4972 78.9773C25.232 78.5758 25.0994 78.0909 25.0994 77.5227C25.0994 77.0227 25.1979 76.6174 25.3949 76.3068C25.5919 75.9924 25.8551 75.7462 26.1847 75.5682C26.5142 75.3902 26.8778 75.2576 27.2756 75.1705C27.6771 75.0795 28.0805 75.0076 28.4858 74.9545C29.0161 74.8864 29.446 74.8352 29.7756 74.8011C30.1089 74.7633 30.3513 74.7008 30.5028 74.6136C30.6581 74.5265 30.7358 74.375 30.7358 74.1591V74.1136C30.7358 73.553 30.5824 73.1174 30.2756 72.8068C29.9725 72.4962 29.5123 72.3409 28.8949 72.3409C28.2547 72.3409 27.7528 72.4811 27.3892 72.7614C27.0256 73.0417 26.7699 73.3409 26.6222 73.6591L25.3494 73.2045C25.5767 72.6742 25.8797 72.2614 26.2585 71.9659C26.6411 71.6667 27.0578 71.4583 27.5085 71.3409C27.9631 71.2197 28.41 71.1591 28.8494 71.1591C29.1297 71.1591 29.4517 71.1932 29.8153 71.2614C30.1828 71.3258 30.5369 71.4602 30.8778 71.6648C31.2225 71.8693 31.5085 72.178 31.7358 72.5909C31.9631 73.0038 32.0767 73.5568 32.0767 74.25V80H30.7358V78.8182H30.6676C30.5767 79.0076 30.4252 79.2102 30.2131 79.4261C30.0009 79.642 29.7188 79.8258 29.3665 79.9773C29.0142 80.1288 28.5843 80.2045 28.0767 80.2045ZM28.2812 79C28.8116 79 29.2585 78.8958 29.6222 78.6875C29.9896 78.4792 30.2661 78.2102 30.4517 77.8807C30.6411 77.5511 30.7358 77.2045 30.7358 76.8409V75.6136C30.679 75.6818 30.554 75.7443 30.3608 75.8011C30.1714 75.8542 29.9517 75.9015 29.7017 75.9432C29.4555 75.9811 29.215 76.0152 28.9801 76.0455C28.7491 76.072 28.5616 76.0947 28.4176 76.1136C28.0691 76.1591 27.7434 76.233 27.4403 76.3352C27.1411 76.4337 26.8987 76.5833 26.7131 76.7841C26.5313 76.9811 26.4403 77.25 26.4403 77.5909C26.4403 78.0568 26.6127 78.4091 26.9574 78.6477C27.3059 78.8826 27.7472 79 28.2812 79ZM41.348 71.2727L38.1207 80H36.7571L33.5298 71.2727H34.9844L37.3935 78.2273H37.4844L39.8935 71.2727H41.348ZM46.4645 80.1818C45.6236 80.1818 44.8982 79.9962 44.2884 79.625C43.6823 79.25 43.2145 78.7273 42.8849 78.0568C42.5592 77.3826 42.3963 76.5985 42.3963 75.7045C42.3963 74.8106 42.5592 74.0227 42.8849 73.3409C43.2145 72.6553 43.6728 72.1212 44.2599 71.7386C44.8509 71.3523 45.5402 71.1591 46.3281 71.1591C46.7827 71.1591 47.2315 71.2348 47.6747 71.3864C48.1179 71.5379 48.5213 71.7841 48.8849 72.125C49.2486 72.4621 49.5384 72.9091 49.7543 73.4659C49.9702 74.0227 50.0781 74.7083 50.0781 75.5227V76.0909H43.3509V74.9318H48.7145C48.7145 74.4394 48.616 74 48.419 73.6136C48.2259 73.2273 47.9493 72.9223 47.5895 72.6989C47.2334 72.4754 46.813 72.3636 46.3281 72.3636C45.794 72.3636 45.3319 72.4962 44.9418 72.7614C44.5554 73.0227 44.258 73.3636 44.0497 73.7841C43.8414 74.2045 43.7372 74.6553 43.7372 75.1364V75.9091C43.7372 76.5682 43.8509 77.1269 44.0781 77.5852C44.3092 78.0398 44.6293 78.3864 45.0384 78.625C45.4474 78.8598 45.9228 78.9773 46.4645 78.9773C46.8168 78.9773 47.1349 78.928 47.419 78.8295C47.7069 78.7273 47.955 78.5758 48.1634 78.375C48.3717 78.1705 48.5327 77.9167 48.6463 77.6136L49.9418 77.9773C49.8054 78.4167 49.5762 78.803 49.2543 79.1364C48.9323 79.4659 48.5346 79.7235 48.0611 79.9091C47.5876 80.0909 47.0554 80.1818 46.4645 80.1818ZM53.4588 68.3636V80H52.1179V68.3636H53.4588Z" fill="black"/>
<path d="M59.4576 11.2917C59.4756 11.3582 59.4848 11.4267 59.4848 11.4957V22.2093C59.4848 22.4892 59.3352 22.7477 59.0922 22.887L50.1004 28.0644V38.3258C50.1004 38.4631 50.0644 38.598 49.9958 38.717C49.9273 38.8359 49.8287 38.9348 49.7098 39.0036L30.9394 49.8091C30.8964 49.8334 30.8496 49.8489 30.8027 49.8657C30.785 49.8714 30.7686 49.8822 30.75 49.8871C30.6188 49.9217 30.4808 49.9217 30.3496 49.8871C30.328 49.8815 30.3085 49.8695 30.2881 49.8618C30.2451 49.846 30.2002 49.8324 30.1593 49.8091L11.3926 39.0034C11.2734 38.935 11.1743 38.8363 11.1053 38.7173C11.0364 38.5983 11.0001 38.4633 11 38.3258V6.18487C11 6.11441 11.0098 6.04604 11.0273 5.97975C11.0331 5.95722 11.0468 5.93676 11.0547 5.91422C11.0693 5.87331 11.0831 5.83127 11.1045 5.7932C11.1191 5.76782 11.1405 5.74737 11.1581 5.72388C11.1807 5.69263 11.2011 5.66044 11.2275 5.63297C11.25 5.61063 11.2794 5.59396 11.3047 5.57445C11.3331 5.55097 11.3583 5.52559 11.3905 5.50703H11.3915L20.7752 0.104376C20.894 0.0359914 21.0287 0 21.1658 0C21.3029 0 21.4376 0.0359914 21.5564 0.104376L30.9402 5.50703H30.942C30.9733 5.52672 30.9998 5.55097 31.028 5.5735C31.0534 5.59301 31.0818 5.61063 31.1042 5.63222C31.1316 5.66044 31.1511 5.69282 31.1744 5.72388C31.1911 5.74737 31.2136 5.76782 31.2273 5.7932C31.2496 5.83222 31.2623 5.87331 31.278 5.91441C31.2858 5.93676 31.2994 5.95722 31.3053 5.9807C31.3233 6.04718 31.3326 6.11593 31.3328 6.18487V26.2595L39.1521 21.757V11.4947C39.1521 11.4265 39.1619 11.357 39.1795 11.2917C39.1864 11.2682 39.1991 11.2477 39.2068 11.2254C39.2225 11.1843 39.2362 11.1421 39.2576 11.1042C39.2722 11.0788 39.2936 11.0584 39.3104 11.0349C39.3337 11.0036 39.3532 10.9714 39.3805 10.944C39.4032 10.9216 39.4314 10.9049 39.4568 10.8854C39.4862 10.862 39.5116 10.8366 39.5428 10.818H39.5437L48.9284 5.41536C49.0472 5.34688 49.1819 5.31084 49.319 5.31084C49.4562 5.31084 49.5909 5.34688 49.7097 5.41536L59.0934 10.818C59.1265 10.8375 59.1519 10.862 59.1813 10.8843C59.2055 10.904 59.2339 10.9216 59.2564 10.943C59.2837 10.9714 59.3032 11.0036 59.3265 11.0349C59.3443 11.0584 59.3657 11.0788 59.3795 11.1042C59.4019 11.1421 59.4146 11.1843 59.4301 11.2254C59.439 11.2477 59.4517 11.2682 59.4576 11.2917ZM57.9206 21.7572V12.8481L54.6367 14.7385L50.1002 17.3506V26.2597L57.9216 21.7572H57.9206ZM48.5369 37.8737V28.9584L44.0744 31.507L31.3318 38.7798V47.7786L48.5369 37.8733V37.8737ZM12.5642 7.53714V37.8737L29.7674 47.7779V38.7807L20.7803 33.6943L20.7775 33.6924L20.7737 33.6906C20.7434 33.6729 20.7178 33.6476 20.6896 33.6262C20.665 33.6065 20.6367 33.5909 20.6153 33.5693L20.6134 33.5665C20.5881 33.5421 20.5705 33.5118 20.5491 33.4845C20.5294 33.458 20.5061 33.4356 20.4903 33.4084L20.4894 33.4053C20.4718 33.3762 20.461 33.3409 20.4483 33.3078C20.4356 33.2784 20.4191 33.251 20.4112 33.2199V33.219C20.4015 33.1818 20.3996 33.1426 20.3956 33.1046C20.3919 33.0754 20.3839 33.046 20.3839 33.0167V12.0398L15.8481 9.42653L12.5642 7.53828V7.53714ZM21.1669 1.6843L13.3483 6.18487L21.165 10.6852L28.9824 6.18373L21.165 1.6843H21.1669ZM25.2328 29.771L29.7684 27.1601V7.53714L26.4848 9.42767L21.9479 12.0396V31.6623L25.2328 29.771ZM49.3189 6.99529L41.5015 11.4957L49.3189 15.9962L57.1354 11.4947L49.3191 6.99529H49.3189ZM48.5367 17.3506L44.0002 14.7385L40.7165 12.8481V21.7572L45.2521 24.3684L48.5369 26.2597V17.3506H48.5367ZM30.5487 37.4275L42.0152 30.8813L47.747 27.6101L39.9352 23.1125L30.9411 28.2905L22.7437 33.0099L30.5487 37.4275Z" fill="#FF2D20"/>
</svg>
