<svg width="74" height="74" viewBox="0 0 74 74" fill="none" xmlns="http://www.w3.org/2000/svg">
<circle cx="37" cy="37" r="37" fill="#6BC8E1"/>
<path d="M37.5 27.6667C33.1093 27.6667 29.55 31.845 29.55 37C29.55 42.1542 33.1093 46.3333 37.5 46.3333C41.8891 46.3333 45.45 42.1558 45.45 37C45.45 31.845 41.8907 27.6667 37.5 27.6667ZM40.8125 41.6667C40.8125 42.035 40.516 42.3333 40.15 42.3333H34.85C34.484 42.3333 34.1875 42.035 34.1875 41.6667V40.3333C34.1875 39.965 34.484 39.6667 34.85 39.6667H36.175V35.0467L36.1361 35.0725C36.0637 35.1211 35.9826 35.1549 35.8972 35.1719C35.8119 35.1889 35.7241 35.1888 35.6388 35.1716C35.5535 35.1544 35.4724 35.1205 35.4001 35.0717C35.3279 35.023 35.2659 34.9604 35.2177 34.8875L34.4823 33.7783C34.434 33.7055 34.4005 33.6238 34.3836 33.538C34.3667 33.4521 34.3668 33.3637 34.3839 33.2779C34.4009 33.1921 34.4346 33.1105 34.4831 33.0378C34.5315 32.965 34.5937 32.9027 34.6662 32.8542L35.9357 32.0025C36.2621 31.7835 36.6456 31.6666 37.0379 31.6667H38.1625C38.5285 31.6667 38.825 31.965 38.825 32.3333V39.6667H40.15C40.516 39.6667 40.8125 39.965 40.8125 40.3333V41.6667ZM61.35 21H13.65C12.1867 21 11 22.1942 11 23.6667V50.3333C11 51.8058 12.1867 53 13.65 53H61.35C62.8133 53 64 51.8058 64 50.3333V23.6667C64 22.1942 62.8133 21 61.35 21ZM60.025 43.6667C57.0976 43.6667 54.725 46.0542 54.725 49H20.275C20.275 46.0542 17.9024 43.6667 14.975 43.6667V30.3333C17.9024 30.3333 20.275 27.9458 20.275 25H54.725C54.725 27.9458 57.0976 30.3333 60.025 30.3333V43.6667Z" fill="white"/>
</svg>
