<svg width="58" height="78" viewBox="0 0 58 78" fill="none" xmlns="http://www.w3.org/2000/svg">
<path d="M28.6016 52.7706C27.8897 52.7709 27.1902 52.5837 26.5736 52.2278L20.1205 48.4076C19.1574 47.8685 19.6267 47.6782 19.9452 47.567C20.9695 47.2505 21.9502 46.8073 22.8646 46.2477C22.9411 46.2123 23.0254 46.197 23.1095 46.2033C23.1936 46.2095 23.2747 46.2371 23.3452 46.2835L28.3038 49.2293C28.3961 49.2781 28.499 49.3037 28.6035 49.3037C28.7079 49.3037 28.8108 49.2781 28.9031 49.2293L48.2401 38.0681C48.3305 38.0139 48.4054 37.9371 48.4573 37.8453C48.5091 37.7534 48.5362 37.6497 48.5359 37.5442V15.2181C48.536 15.111 48.5085 15.0056 48.456 14.9122C48.4035 14.8188 48.3278 14.7405 48.2363 14.6848L28.8994 3.53306C28.8082 3.48171 28.7053 3.45473 28.6006 3.45473C28.496 3.45473 28.3931 3.48171 28.3019 3.53306L8.97629 14.6885C8.88411 14.7431 8.80756 14.8205 8.75407 14.9132C8.70058 15.006 8.67196 15.1111 8.67097 15.2181V37.5348C8.67123 37.64 8.69947 37.7433 8.75279 37.834C8.80611 37.9248 8.88259 37.9997 8.9744 38.0512L14.2779 41.1119C17.1521 42.548 18.9124 40.8556 18.9124 39.1556V17.1217C18.9124 16.9717 18.9719 16.8279 19.078 16.7219C19.184 16.6158 19.3278 16.5563 19.4778 16.5563H21.9279C22.0778 16.5563 22.2217 16.6158 22.3277 16.7219C22.4337 16.8279 22.4933 16.9717 22.4933 17.1217V39.1575C22.4933 42.9928 20.4051 45.1885 16.7676 45.1885C15.1984 45.2158 13.6537 44.7962 12.3141 43.9785L7.23107 41.0629C6.614 40.7036 6.10198 40.1886 5.74613 39.5695C5.39029 38.9505 5.20306 38.2488 5.20314 37.5348V15.2181C5.2013 14.503 5.38774 13.7999 5.74371 13.1796C6.09968 12.5593 6.61265 12.0436 7.23107 11.6843L26.5699 0.519442C27.1928 0.178629 27.8915 0 28.6016 0C29.3117 0 30.0103 0.178629 30.6333 0.519442L49.9702 11.6843C50.5872 12.043 51.0993 12.5572 51.4555 13.1756C51.8117 13.794 51.9994 14.4951 52 15.2087V37.5348C51.999 38.2488 51.811 38.9502 51.4549 39.5692C51.0989 40.1881 50.587 40.7031 49.9702 41.0629L30.6333 52.2278C30.0155 52.5842 29.3147 52.7715 28.6016 52.7706V52.7706Z" fill="#83CD29"/>
<path d="M24.9341 30.0658C24.9341 29.9158 24.9937 29.772 25.0997 29.666C25.2057 29.5599 25.3495 29.5004 25.4995 29.5004H28.0005C28.1341 29.5008 28.2633 29.5486 28.365 29.6352C28.4668 29.7217 28.5346 29.8416 28.5565 29.9734C28.9334 32.5196 30.0642 33.8031 35.1774 33.8031C39.2502 33.8031 40.986 32.8815 40.986 30.7198C40.986 29.474 40.4941 28.5486 34.1634 27.9285C28.8712 27.4046 25.5994 26.2323 25.5994 22.0031C25.5994 18.1018 28.8882 15.7742 34.4009 15.7742C40.5959 15.7742 43.6623 17.9246 44.0505 22.5383C44.0564 22.6154 44.0465 22.6928 44.0214 22.7658C43.9962 22.8389 43.9564 22.906 43.9043 22.963C43.8522 23.0201 43.7889 23.0658 43.7184 23.0975C43.648 23.1291 43.5718 23.146 43.4945 23.1471H40.9766C40.8503 23.1453 40.7282 23.1013 40.6298 23.022C40.5314 22.9428 40.4624 22.8329 40.4338 22.7098C39.8326 20.0317 38.3606 19.176 34.4028 19.176C29.9549 19.176 29.4385 20.7253 29.4385 21.8862C29.4385 23.2922 30.0491 23.7031 36.0538 24.4965C41.9962 25.2824 44.8195 26.3944 44.8195 30.5709C44.8195 34.785 41.3064 37.1974 35.1793 37.1974C26.7076 37.2088 24.9341 33.3244 24.9341 30.0658V30.0658Z" fill="#83CD29"/>
<path d="M10.6911 63.3636V75H9.32742L2.98651 65.8636H2.87287V75H1.46378V63.3636H2.82741L9.19105 72.5227H9.30469V63.3636H10.6911ZM16.8743 75.1818C16.0864 75.1818 15.3951 74.9943 14.8004 74.6193C14.2095 74.2443 13.7474 73.7197 13.4141 73.0455C13.0845 72.3712 12.9197 71.5833 12.9197 70.6818C12.9197 69.7727 13.0845 68.9792 13.4141 68.3011C13.7474 67.6231 14.2095 67.0966 14.8004 66.7216C15.3951 66.3466 16.0864 66.1591 16.8743 66.1591C17.6622 66.1591 18.3516 66.3466 18.9425 66.7216C19.5372 67.0966 19.9993 67.6231 20.3288 68.3011C20.6622 68.9792 20.8288 69.7727 20.8288 70.6818C20.8288 71.5833 20.6622 72.3712 20.3288 73.0455C19.9993 73.7197 19.5372 74.2443 18.9425 74.6193C18.3516 74.9943 17.6622 75.1818 16.8743 75.1818ZM16.8743 73.9773C17.4728 73.9773 17.9652 73.8239 18.3516 73.517C18.7379 73.2102 19.0239 72.8068 19.2095 72.3068C19.3951 71.8068 19.4879 71.2652 19.4879 70.6818C19.4879 70.0985 19.3951 69.5549 19.2095 69.0511C19.0239 68.5473 18.7379 68.1402 18.3516 67.8295C17.9652 67.5189 17.4728 67.3636 16.8743 67.3636C16.2758 67.3636 15.7834 67.5189 15.397 67.8295C15.0107 68.1402 14.7247 68.5473 14.5391 69.0511C14.3535 69.5549 14.2607 70.0985 14.2607 70.6818C14.2607 71.2652 14.3535 71.8068 14.5391 72.3068C14.7247 72.8068 15.0107 73.2102 15.397 73.517C15.7834 73.8239 16.2758 73.9773 16.8743 73.9773ZM26.1712 75.1818C25.4439 75.1818 24.8018 74.9981 24.245 74.6307C23.6882 74.2595 23.2526 73.7367 22.9382 73.0625C22.6238 72.3845 22.4666 71.5833 22.4666 70.6591C22.4666 69.7424 22.6238 68.947 22.9382 68.2727C23.2526 67.5985 23.6901 67.0777 24.2507 66.7102C24.8113 66.3428 25.459 66.1591 26.1939 66.1591C26.7621 66.1591 27.2109 66.2538 27.5405 66.4432C27.8738 66.6288 28.1276 66.8409 28.3018 67.0795C28.4799 67.3144 28.6181 67.5076 28.7166 67.6591H28.8303V63.3636H30.1712V75H28.8757V73.6591H28.7166C28.6181 73.8182 28.478 74.0189 28.2962 74.2614C28.1143 74.5 27.8549 74.714 27.5178 74.9034C27.1806 75.089 26.7318 75.1818 26.1712 75.1818ZM26.353 73.9773C26.8909 73.9773 27.3454 73.8371 27.7166 73.5568C28.0878 73.2727 28.37 72.8807 28.5632 72.3807C28.7564 71.8769 28.853 71.2955 28.853 70.6364C28.853 69.9848 28.7583 69.4148 28.5689 68.9261C28.3795 68.4337 28.0992 68.0511 27.728 67.7784C27.3568 67.5019 26.8984 67.3636 26.353 67.3636C25.7848 67.3636 25.3113 67.5095 24.9325 67.8011C24.5575 68.089 24.2753 68.4811 24.0859 68.9773C23.9003 69.4697 23.8075 70.0227 23.8075 70.6364C23.8075 71.2576 23.9022 71.822 24.0916 72.3295C24.2848 72.8333 24.5689 73.2348 24.9439 73.5341C25.3227 73.8295 25.7924 73.9773 26.353 73.9773ZM36.4723 75.1818C35.6314 75.1818 34.906 74.9962 34.2962 74.625C33.6901 74.25 33.2223 73.7273 32.8928 73.0568C32.567 72.3826 32.4041 71.5985 32.4041 70.7045C32.4041 69.8106 32.567 69.0227 32.8928 68.3409C33.2223 67.6553 33.6806 67.1212 34.2678 66.7386C34.8587 66.3523 35.5481 66.1591 36.3359 66.1591C36.7905 66.1591 37.2393 66.2348 37.6825 66.3864C38.1257 66.5379 38.5291 66.7841 38.8928 67.125C39.2564 67.4621 39.5462 67.9091 39.7621 68.4659C39.978 69.0227 40.0859 69.7083 40.0859 70.5227V71.0909H33.3587V69.9318H38.7223C38.7223 69.4394 38.6238 69 38.4268 68.6136C38.2337 68.2273 37.9571 67.9223 37.5973 67.6989C37.2412 67.4754 36.8208 67.3636 36.3359 67.3636C35.8018 67.3636 35.3397 67.4962 34.9496 67.7614C34.5632 68.0227 34.2659 68.3636 34.0575 68.7841C33.8492 69.2045 33.745 69.6553 33.745 70.1364V70.9091C33.745 71.5682 33.8587 72.1269 34.0859 72.5852C34.317 73.0398 34.6371 73.3864 35.0462 73.625C35.4553 73.8598 35.9306 73.9773 36.4723 73.9773C36.8246 73.9773 37.1428 73.928 37.4268 73.8295C37.7147 73.7273 37.9628 73.5758 38.1712 73.375C38.3795 73.1705 38.5405 72.9167 38.6541 72.6136L39.9496 72.9773C39.8132 73.4167 39.584 73.803 39.2621 74.1364C38.9401 74.4659 38.5424 74.7235 38.0689 74.9091C37.5954 75.0909 37.0632 75.1818 36.4723 75.1818ZM46.7621 63.3636H48.1712V71.6818C48.1712 72.4242 48.0348 73.0549 47.7621 73.5739C47.4893 74.0928 47.1049 74.4867 46.6087 74.7557C46.1125 75.0246 45.5272 75.1591 44.853 75.1591C44.2166 75.1591 43.6503 75.0436 43.1541 74.8125C42.6579 74.5777 42.2678 74.2443 41.9837 73.8125C41.6996 73.3807 41.5575 72.8674 41.5575 72.2727H42.9439C42.9439 72.6023 43.0253 72.8902 43.1882 73.1364C43.3549 73.3788 43.5821 73.5682 43.87 73.7045C44.1579 73.8409 44.4856 73.9091 44.853 73.9091C45.2583 73.9091 45.603 73.8239 45.8871 73.6534C46.1712 73.483 46.3871 73.233 46.5348 72.9034C46.6863 72.5701 46.7621 72.1629 46.7621 71.6818V63.3636ZM56.995 68.2273L55.7905 68.5682C55.7147 68.3674 55.603 68.1723 55.4553 67.983C55.3113 67.7898 55.1143 67.6307 54.8643 67.5057C54.6143 67.3807 54.2943 67.3182 53.9041 67.3182C53.37 67.3182 52.925 67.4413 52.5689 67.6875C52.2166 67.9299 52.0405 68.2386 52.0405 68.6136C52.0405 68.947 52.1617 69.2102 52.4041 69.4034C52.6465 69.5966 53.0253 69.7576 53.5405 69.8864L54.8359 70.2045C55.6162 70.3939 56.1977 70.6837 56.5803 71.0739C56.9628 71.4602 57.1541 71.9583 57.1541 72.5682C57.1541 73.0682 57.0102 73.5152 56.7223 73.9091C56.4382 74.303 56.0405 74.6136 55.5291 74.8409C55.0178 75.0682 54.4231 75.1818 53.745 75.1818C52.8549 75.1818 52.1181 74.9886 51.5348 74.6023C50.9515 74.2159 50.5821 73.6515 50.4268 72.9091L51.6996 72.5909C51.8208 73.0606 52.05 73.4129 52.3871 73.6477C52.728 73.8826 53.1731 74 53.7223 74C54.3473 74 54.8435 73.8674 55.2109 73.6023C55.5821 73.3333 55.7678 73.0114 55.7678 72.6364C55.7678 72.3333 55.6617 72.0795 55.4496 71.875C55.2375 71.6667 54.9117 71.5114 54.4723 71.4091L53.0178 71.0682C52.2185 70.8788 51.6314 70.5852 51.2564 70.1875C50.8852 69.786 50.6996 69.2841 50.6996 68.6818C50.6996 68.1894 50.8378 67.7538 51.1143 67.375C51.3946 66.9962 51.7753 66.6989 52.2564 66.483C52.7412 66.267 53.2905 66.1591 53.9041 66.1591C54.7678 66.1591 55.4458 66.3485 55.9382 66.7273C56.4344 67.1061 56.7867 67.6061 56.995 68.2273Z" fill="black"/>
</svg>
