<svg width="1476" height="106" viewBox="0 0 1476 106" fill="none" xmlns="http://www.w3.org/2000/svg">
<mask id="mask0_22_32" style="mask-type:alpha" maskUnits="userSpaceOnUse" x="0" y="0" width="1476" height="106">
<rect width="1476" height="106" fill="#C4C4C4"/>
</mask>
<g mask="url(#mask0_22_32)">
<path d="M40.054 44.1818V61.2273H-10.4432V44.1818H40.054ZM1.11577 126V38.2692C1.11577 32.3388 2.26989 27.4204 4.57812 23.5142C6.92188 19.6079 10.1179 16.6783 14.1662 14.7251C18.2145 12.772 22.8132 11.7954 27.9624 11.7954C31.4425 11.7954 34.6207 12.0618 37.4972 12.5945C40.4091 13.1271 42.5753 13.6065 43.9957 14.0327L39.9474 31.0781C39.0597 30.794 37.9588 30.5277 36.6449 30.2791C35.3665 30.0305 34.0526 29.9062 32.7031 29.9062C29.3651 29.9062 27.0391 30.6875 25.7251 32.25C24.4112 33.777 23.7543 35.9254 23.7543 38.6953V126H1.11577ZM53.9167 126V44.1818H75.916V58.4574H76.7683C78.2598 53.3793 80.7633 49.544 84.2789 46.9517C87.7946 44.3239 91.8429 43.0099 96.4238 43.0099C97.5602 43.0099 98.7853 43.081 100.099 43.223C101.413 43.3651 102.567 43.5604 103.562 43.8089V63.9439C102.496 63.6243 101.023 63.3402 99.1404 63.0916C97.2583 62.843 95.536 62.7188 93.9735 62.7188C90.6355 62.7188 87.6525 63.4467 85.0247 64.9027C82.4324 66.3232 80.3727 68.3118 78.8457 70.8686C77.3542 73.4254 76.6085 76.3729 76.6085 79.7109V126H53.9167ZM148.452 127.598C140.178 127.598 133.023 125.84 126.986 122.325C120.984 118.773 116.35 113.837 113.083 107.516C109.816 101.16 108.183 93.7912 108.183 85.4105C108.183 76.9588 109.816 69.5724 113.083 63.2514C116.35 56.8949 120.984 51.9588 126.986 48.4432C133.023 44.892 140.178 43.1165 148.452 43.1165C156.727 43.1165 163.864 44.892 169.866 48.4432C175.903 51.9588 180.555 56.8949 183.822 63.2514C187.089 69.5724 188.722 76.9588 188.722 85.4105C188.722 93.7912 187.089 101.16 183.822 107.516C180.555 113.837 175.903 118.773 169.866 122.325C163.864 125.84 156.727 127.598 148.452 127.598ZM148.559 110.02C152.323 110.02 155.466 108.955 157.987 106.824C160.509 104.658 162.408 101.71 163.687 97.9815C165.001 94.2528 165.658 90.0092 165.658 85.2507C165.658 80.4922 165.001 76.2486 163.687 72.5199C162.408 68.7912 160.509 65.8437 157.987 63.6776C155.466 61.5114 152.323 60.4283 148.559 60.4283C144.759 60.4283 141.563 61.5114 138.971 63.6776C136.414 65.8437 134.479 68.7912 133.165 72.5199C131.886 76.2486 131.247 80.4922 131.247 85.2507C131.247 90.0092 131.886 94.2528 133.165 97.9815C134.479 101.71 136.414 104.658 138.971 106.824C141.563 108.955 144.759 110.02 148.559 110.02ZM226.169 78.6989V126H203.477V44.1818H225.104V58.6172H226.062C227.874 53.8587 230.91 50.0945 235.171 47.3246C239.433 44.5192 244.599 43.1165 250.672 43.1165C256.354 43.1165 261.308 44.3594 265.533 46.8452C269.759 49.331 273.044 52.8821 275.388 57.4986C277.732 62.0795 278.903 67.5483 278.903 73.9048V126H256.212V77.9531C256.247 72.946 254.969 69.0398 252.376 66.2344C249.784 63.3935 246.215 61.973 241.67 61.973C238.616 61.973 235.917 62.63 233.573 63.9439C231.265 65.2578 229.454 67.1754 228.14 69.6967C226.862 72.1825 226.205 75.1832 226.169 78.6989ZM340.307 44.1818V61.2273H291.035V44.1818H340.307ZM302.221 24.5795H324.913V100.858C324.913 102.953 325.232 104.587 325.872 105.759C326.511 106.895 327.399 107.694 328.535 108.156C329.707 108.617 331.056 108.848 332.583 108.848C333.649 108.848 334.714 108.759 335.779 108.582C336.845 108.369 337.661 108.209 338.23 108.102L341.798 124.988C340.662 125.343 339.064 125.751 337.004 126.213C334.945 126.71 332.441 127.012 329.494 127.119C324.025 127.332 319.231 126.604 315.112 124.935C311.028 123.266 307.85 120.673 305.577 117.158C303.304 113.642 302.186 109.203 302.221 103.841V24.5795ZM403.575 72.2003V90.2045H353.824V72.2003H403.575ZM460.198 127.598C451.782 127.598 444.537 125.893 438.465 122.484C432.428 119.04 427.776 114.175 424.509 107.889C421.242 101.568 419.608 94.093 419.608 85.4638C419.608 77.0476 421.242 69.6612 424.509 63.3047C427.776 56.9482 432.375 51.9943 438.305 48.4432C444.271 44.892 451.267 43.1165 459.292 43.1165C464.69 43.1165 469.715 43.9865 474.367 45.7266C479.054 47.4311 483.138 50.0057 486.618 53.4503C490.134 56.8949 492.868 61.2273 494.821 66.4474C496.775 71.6321 497.751 77.7045 497.751 84.6648V90.897H428.664V76.8345H476.391C476.391 73.5675 475.681 70.6733 474.26 68.152C472.84 65.6307 470.869 63.6598 468.348 62.2393C465.862 60.7834 462.968 60.0554 459.665 60.0554C456.221 60.0554 453.167 60.8544 450.503 62.4524C447.875 64.0149 445.816 66.1278 444.324 68.7912C442.833 71.419 442.069 74.3487 442.034 77.5803V90.9503C442.034 94.9986 442.779 98.4964 444.271 101.444C445.798 104.391 447.946 106.664 450.716 108.262C453.486 109.86 456.771 110.659 460.571 110.659C463.092 110.659 465.4 110.304 467.495 109.594C469.591 108.884 471.384 107.818 472.875 106.398C474.367 104.977 475.503 103.237 476.284 101.178L497.272 102.562C496.206 107.605 494.022 112.009 490.72 115.773C487.453 119.501 483.227 122.413 478.042 124.509C472.893 126.568 466.945 127.598 460.198 127.598ZM535.251 78.6989V126H512.559V44.1818H534.186V58.6172H535.145C536.956 53.8587 539.992 50.0945 544.253 47.3246C548.515 44.5192 553.681 43.1165 559.754 43.1165C565.436 43.1165 570.39 44.3594 574.615 46.8452C578.841 49.331 582.126 52.8821 584.47 57.4986C586.814 62.0795 587.985 67.5483 587.985 73.9048V126H565.294V77.9531C565.329 72.946 564.051 69.0398 561.458 66.2344C558.866 63.3935 555.297 61.973 550.752 61.973C547.698 61.973 544.999 62.63 542.655 63.9439C540.347 65.2578 538.536 67.1754 537.222 69.6967C535.944 72.1825 535.287 75.1832 535.251 78.6989ZM636.019 127.332C629.805 127.332 624.176 125.734 619.133 122.538C614.126 119.306 610.149 114.565 607.202 108.315C604.29 102.03 602.834 94.3239 602.834 85.1974C602.834 75.8224 604.343 68.0277 607.361 61.8132C610.38 55.5632 614.393 50.8935 619.4 47.804C624.442 44.679 629.964 43.1165 635.966 43.1165C640.547 43.1165 644.364 43.8977 647.418 45.4602C650.508 46.9872 652.993 48.9048 654.876 51.2131C656.793 53.4858 658.249 55.723 659.243 57.9247H659.936V16.9091H682.574V126H660.202V112.896H659.243C658.178 115.169 656.669 117.424 654.716 119.661C652.798 121.863 650.295 123.692 647.205 125.148C644.151 126.604 640.422 127.332 636.019 127.332ZM643.21 109.274C646.868 109.274 649.957 108.28 652.479 106.291C655.035 104.267 656.988 101.444 658.338 97.8217C659.723 94.1996 660.415 89.956 660.415 85.0909C660.415 80.2259 659.741 76 658.391 72.4133C657.042 68.8267 655.089 66.0568 652.532 64.1037C649.975 62.1506 646.868 61.174 643.21 61.174C639.481 61.174 636.339 62.1861 633.782 64.2102C631.225 66.2344 629.29 69.0398 627.976 72.6264C626.662 76.2131 626.005 80.3679 626.005 85.0909C626.005 89.8494 626.662 94.0575 627.976 97.7152C629.325 101.337 631.26 104.178 633.782 106.238C636.339 108.262 639.481 109.274 643.21 109.274ZM766.097 127.332C759.883 127.332 754.254 125.734 749.211 122.538C744.204 119.306 740.227 114.565 737.28 108.315C734.368 102.03 732.912 94.3239 732.912 85.1974C732.912 75.8224 734.421 68.0277 737.439 61.8132C740.458 55.5632 744.471 50.8935 749.478 47.804C754.52 44.679 760.042 43.1165 766.044 43.1165C770.625 43.1165 774.442 43.8977 777.496 45.4602C780.586 46.9872 783.072 48.9048 784.954 51.2131C786.871 53.4858 788.327 55.723 789.322 57.9247H790.014V16.9091H812.653V126H790.28V112.896H789.322C788.256 115.169 786.747 117.424 784.794 119.661C782.876 121.863 780.373 123.692 777.283 125.148C774.229 126.604 770.501 127.332 766.097 127.332ZM773.288 109.274C776.946 109.274 780.035 108.28 782.557 106.291C785.113 104.267 787.067 101.444 788.416 97.8217C789.801 94.1996 790.493 89.956 790.493 85.0909C790.493 80.2259 789.819 76 788.469 72.4133C787.12 68.8267 785.167 66.0568 782.61 64.1037C780.053 62.1506 776.946 61.174 773.288 61.174C769.559 61.174 766.417 62.1861 763.86 64.2102C761.303 66.2344 759.368 69.0398 758.054 72.6264C756.74 76.2131 756.083 80.3679 756.083 85.0909C756.083 89.8494 756.74 94.0575 758.054 97.7152C759.403 101.337 761.339 104.178 763.86 106.238C766.417 108.262 769.559 109.274 773.288 109.274ZM868.596 127.598C860.18 127.598 852.936 125.893 846.863 122.484C840.826 119.04 836.174 114.175 832.907 107.889C829.64 101.568 828.007 94.093 828.007 85.4638C828.007 77.0476 829.64 69.6612 832.907 63.3047C836.174 56.9482 840.773 51.9943 846.703 48.4432C852.669 44.892 859.665 43.1165 867.691 43.1165C873.088 43.1165 878.113 43.9865 882.765 45.7266C887.453 47.4311 891.537 50.0057 895.017 53.4503C898.532 56.8949 901.267 61.2273 903.22 66.4474C905.173 71.6321 906.15 77.7045 906.15 84.6648V90.897H837.062V76.8345H884.789C884.789 73.5675 884.079 70.6733 882.659 68.152C881.238 65.6307 879.267 63.6598 876.746 62.2393C874.26 60.7834 871.366 60.0554 868.064 60.0554C864.619 60.0554 861.565 60.8544 858.902 62.4524C856.274 64.0149 854.214 66.1278 852.723 68.7912C851.231 71.419 850.468 74.3487 850.432 77.5803V90.9503C850.432 94.9986 851.178 98.4964 852.669 101.444C854.196 104.391 856.345 106.664 859.115 108.262C861.885 109.86 865.169 110.659 868.969 110.659C871.49 110.659 873.799 110.304 875.894 109.594C877.989 108.884 879.782 107.818 881.274 106.398C882.765 104.977 883.902 103.237 884.683 101.178L905.67 102.562C904.605 107.605 902.421 112.009 899.118 115.773C895.851 119.501 891.625 122.413 886.441 124.509C881.292 126.568 875.343 127.598 868.596 127.598ZM995.039 44.1818L966.434 126H940.866L912.262 44.1818H936.232L953.224 102.722H954.077L971.015 44.1818H995.039ZM1041.3 127.598C1032.89 127.598 1025.64 125.893 1019.57 122.484C1013.53 119.04 1008.88 114.175 1005.61 107.889C1002.35 101.568 1000.71 94.093 1000.71 85.4638C1000.71 77.0476 1002.35 69.6612 1005.61 63.3047C1008.88 56.9482 1013.48 51.9943 1019.41 48.4432C1025.37 44.892 1032.37 43.1165 1040.4 43.1165C1045.79 43.1165 1050.82 43.9865 1055.47 45.7266C1060.16 47.4311 1064.24 50.0057 1067.72 53.4503C1071.24 56.8949 1073.97 61.2273 1075.92 66.4474C1077.88 71.6321 1078.85 77.7045 1078.85 84.6648V90.897H1009.77V76.8345H1057.49C1057.49 73.5675 1056.78 70.6733 1055.36 68.152C1053.94 65.6307 1051.97 63.6598 1049.45 62.2393C1046.97 60.7834 1044.07 60.0554 1040.77 60.0554C1037.32 60.0554 1034.27 60.8544 1031.61 62.4524C1028.98 64.0149 1026.92 66.1278 1025.43 68.7912C1023.94 71.419 1023.17 74.3487 1023.14 77.5803V90.9503C1023.14 94.9986 1023.88 98.4964 1025.37 101.444C1026.9 104.391 1029.05 106.664 1031.82 108.262C1034.59 109.86 1037.87 110.659 1041.67 110.659C1044.2 110.659 1046.5 110.304 1048.6 109.594C1050.69 108.884 1052.49 107.818 1053.98 106.398C1055.47 104.977 1056.61 103.237 1057.39 101.178L1078.38 102.562C1077.31 107.605 1075.13 112.009 1071.82 115.773C1068.56 119.501 1064.33 122.413 1059.15 124.509C1054 126.568 1048.05 127.598 1041.3 127.598ZM1116.35 16.9091V126H1093.66V16.9091H1116.35ZM1171.5 127.598C1163.23 127.598 1156.07 125.84 1150.03 122.325C1144.03 118.773 1139.4 113.837 1136.13 107.516C1132.86 101.16 1131.23 93.7912 1131.23 85.4105C1131.23 76.9588 1132.86 69.5724 1136.13 63.2514C1139.4 56.8949 1144.03 51.9588 1150.03 48.4432C1156.07 44.892 1163.23 43.1165 1171.5 43.1165C1179.77 43.1165 1186.91 44.892 1192.91 48.4432C1198.95 51.9588 1203.6 56.8949 1206.87 63.2514C1210.14 69.5724 1211.77 76.9588 1211.77 85.4105C1211.77 93.7912 1210.14 101.16 1206.87 107.516C1203.6 113.837 1198.95 118.773 1192.91 122.325C1186.91 125.84 1179.77 127.598 1171.5 127.598ZM1171.61 110.02C1175.37 110.02 1178.51 108.955 1181.03 106.824C1183.56 104.658 1185.46 101.71 1186.73 97.9815C1188.05 94.2528 1188.7 90.0092 1188.7 85.2507C1188.7 80.4922 1188.05 76.2486 1186.73 72.5199C1185.46 68.7912 1183.56 65.8437 1181.03 63.6776C1178.51 61.5114 1175.37 60.4283 1171.61 60.4283C1167.81 60.4283 1164.61 61.5114 1162.02 63.6776C1159.46 65.8437 1157.53 68.7912 1156.21 72.5199C1154.93 76.2486 1154.29 80.4922 1154.29 85.2507C1154.29 90.0092 1154.93 94.2528 1156.21 97.9815C1157.53 101.71 1159.46 104.658 1162.02 106.824C1164.61 108.955 1167.81 110.02 1171.61 110.02ZM1226.52 156.682V44.1818H1248.9V57.9247H1249.91C1250.9 55.723 1252.34 53.4858 1254.22 51.2131C1256.14 48.9048 1258.63 46.9872 1261.68 45.4602C1264.77 43.8977 1268.61 43.1165 1273.19 43.1165C1279.15 43.1165 1284.66 44.679 1289.7 47.804C1294.74 50.8935 1298.77 55.5632 1301.79 61.8132C1304.81 68.0277 1306.32 75.8224 1306.32 85.1974C1306.32 94.3239 1304.84 102.03 1301.9 108.315C1298.99 114.565 1295.01 119.306 1289.97 122.538C1284.96 125.734 1279.35 127.332 1273.13 127.332C1268.73 127.332 1264.98 126.604 1261.89 125.148C1258.84 123.692 1256.34 121.863 1254.38 119.661C1252.43 117.424 1250.94 115.169 1249.91 112.896H1249.22V156.682H1226.52ZM1248.74 85.0909C1248.74 89.956 1249.41 94.1996 1250.76 97.8217C1252.11 101.444 1254.06 104.267 1256.62 106.291C1259.18 108.28 1262.28 109.274 1265.94 109.274C1269.63 109.274 1272.76 108.262 1275.32 106.238C1277.87 104.178 1279.81 101.337 1281.12 97.7152C1282.47 94.0575 1283.15 89.8494 1283.15 85.0909C1283.15 80.3679 1282.49 76.2131 1281.18 72.6264C1279.86 69.0398 1277.93 66.2344 1275.37 64.2102C1272.81 62.1861 1269.67 61.174 1265.94 61.174C1262.25 61.174 1259.12 62.1506 1256.57 64.1037C1254.05 66.0568 1252.11 68.8267 1250.76 72.4133C1249.41 76 1248.74 80.2259 1248.74 85.0909ZM1358.73 127.598C1350.32 127.598 1343.07 125.893 1337 122.484C1330.96 119.04 1326.31 114.175 1323.04 107.889C1319.78 101.568 1318.14 94.093 1318.14 85.4638C1318.14 77.0476 1319.78 69.6612 1323.04 63.3047C1326.31 56.9482 1330.91 51.9943 1336.84 48.4432C1342.81 44.892 1349.8 43.1165 1357.83 43.1165C1363.23 43.1165 1368.25 43.9865 1372.9 45.7266C1377.59 47.4311 1381.67 50.0057 1385.15 53.4503C1388.67 56.8949 1391.4 61.2273 1393.36 66.4474C1395.31 71.6321 1396.29 77.7045 1396.29 84.6648V90.897H1327.2V76.8345H1374.93C1374.93 73.5675 1374.22 70.6733 1372.8 68.152C1371.38 65.6307 1369.4 63.6598 1366.88 62.2393C1364.4 60.7834 1361.5 60.0554 1358.2 60.0554C1354.76 60.0554 1351.7 60.8544 1349.04 62.4524C1346.41 64.0149 1344.35 66.1278 1342.86 68.7912C1341.37 71.419 1340.6 74.3487 1340.57 77.5803V90.9503C1340.57 94.9986 1341.31 98.4964 1342.81 101.444C1344.33 104.391 1346.48 106.664 1349.25 108.262C1352.02 109.86 1355.31 110.659 1359.11 110.659C1361.63 110.659 1363.94 110.304 1366.03 109.594C1368.13 108.884 1369.92 107.818 1371.41 106.398C1372.9 104.977 1374.04 103.237 1374.82 101.178L1395.81 102.562C1394.74 107.605 1392.56 112.009 1389.25 115.773C1385.99 119.501 1381.76 122.413 1376.58 124.509C1371.43 126.568 1365.48 127.598 1358.73 127.598ZM1411.09 126V44.1818H1433.09V58.4574H1433.95C1435.44 53.3793 1437.94 49.544 1441.46 46.9517C1444.97 44.3239 1449.02 43.0099 1453.6 43.0099C1454.74 43.0099 1455.96 43.081 1457.28 43.223C1458.59 43.3651 1459.75 43.5604 1460.74 43.8089V63.9439C1459.67 63.6243 1458.2 63.3402 1456.32 63.0916C1454.44 62.843 1452.71 62.7188 1451.15 62.7188C1447.81 62.7188 1444.83 63.4467 1442.2 64.9027C1439.61 66.3232 1437.55 68.3118 1436.02 70.8686C1434.53 73.4254 1433.79 76.3729 1433.79 79.7109V126H1411.09Z" fill="#EFEFEF"/>
</g>
</svg>
