<svg width="597" height="653" viewBox="0 0 597 653" fill="none" xmlns="http://www.w3.org/2000/svg">
<g opacity="0.68">
<g opacity="0.68">
<g opacity="0.68">
<path opacity="0.68" d="M117.109 242.845L116.978 242.767L58.6722 209.097V141.576L58.8031 141.497L117.135 107.828L117.266 107.906L175.572 141.576V209.071L175.441 209.15L117.109 242.845ZM59.1697 208.783L117.135 242.243L175.075 208.783V141.864L117.109 108.404L59.1697 141.864V208.783Z" fill="#CCCCCC"/>
</g>
<g opacity="0.68">
<path opacity="0.68" d="M233.538 242.845L233.408 242.767L175.075 209.097V141.576L175.206 141.497L233.538 107.828L233.669 107.906L292.001 141.576V209.071L291.871 209.15L233.538 242.845ZM175.573 208.783L233.538 242.243L291.504 208.783V141.864L233.538 108.404L175.573 141.864V208.783Z" fill="#CCCCCC"/>
</g>
<g opacity="0.68">
<path opacity="0.68" d="M349.94 242.845L349.809 242.767L291.477 209.097V141.576L291.608 141.497L349.94 107.828L350.071 107.906L408.403 141.576V209.071L408.272 209.15L349.94 242.845ZM291.975 208.783L349.94 242.243L407.88 208.783V141.864L349.94 108.404L291.975 141.864V208.783Z" fill="#CCCCCC"/>
</g>
<g opacity="0.68">
<path opacity="0.68" d="M466.343 242.845L466.212 242.767L407.88 209.097V141.576L408.011 141.497L466.343 107.828L466.474 107.906L524.806 141.576V209.071L524.675 209.15L466.343 242.845ZM408.404 208.783L466.343 242.243L524.283 208.783V141.864L466.343 108.404L408.404 141.864V208.783Z" fill="#CCCCCC"/>
</g>
<g opacity="0.68">
<path opacity="0.68" d="M597.04 233.996L582.745 242.243L524.806 208.783V141.864L582.745 108.404L597.04 116.677V116.075L582.876 107.906L582.745 107.828L524.413 141.497L524.308 141.576V209.097L582.64 242.767L582.745 242.845L597.04 234.572V233.996Z" fill="#CCCCCC"/>
</g>
<g opacity="0.68">
<path opacity="0.68" d="M175.31 343.643L175.179 343.565L116.873 309.896V242.4L117.004 242.322L175.336 208.652L175.467 208.731L233.799 242.4V309.896L233.669 309.974L175.31 343.643ZM117.371 309.608L175.31 343.068L233.276 309.608V242.688L175.31 209.228L117.371 242.688V309.608Z" fill="#CCCCCC"/>
</g>
<g opacity="0.68">
<path opacity="0.68" d="M291.739 343.643L291.608 343.565L233.276 309.896V242.4L233.407 242.322L291.739 208.652L291.87 208.731L350.202 242.4V309.896L350.071 309.974L291.739 343.643ZM233.774 309.608L291.713 343.068L349.653 309.608V242.688L291.713 209.228L233.774 242.688V309.608Z" fill="#CCCCCC"/>
</g>
<g opacity="0.68">
<path opacity="0.68" d="M408.141 343.643L408.01 343.565L349.678 309.896V242.4L349.809 242.322L408.141 208.652L408.272 208.731L466.604 242.4V309.896L466.473 309.974L408.141 343.643ZM350.202 309.608L408.141 343.067L466.081 309.608V242.688L408.141 209.228L350.202 242.688V309.608Z" fill="#CCCCCC"/>
</g>
<g opacity="0.68">
<path opacity="0.68" d="M524.544 343.643L524.413 343.565L466.081 309.896V242.4L466.212 242.322L524.544 208.652L524.675 208.731L583.007 242.4V309.896L582.876 309.974L524.544 343.643ZM466.604 309.608L524.544 343.067L582.483 309.608V242.688L524.544 209.228L466.604 242.688V309.608Z" fill="#CCCCCC"/>
</g>
<g opacity="0.68">
<path opacity="0.68" d="M597.04 317.698L583.007 309.608V242.688L597.04 234.572V233.996L582.64 242.322L582.51 242.4V309.896L597.04 318.3V317.698Z" fill="#CCCCCC"/>
</g>
<g opacity="0.68">
<path opacity="0.68" d="M349.94 444.468L349.809 444.389L291.477 410.72V343.198L291.608 343.12L349.94 309.451L350.071 309.529L408.403 343.198V410.694L408.272 410.773L349.94 444.468ZM291.975 410.432L349.94 443.892L407.88 410.432V343.513L349.94 310.053L291.975 343.513V410.432Z" fill="#CCCCCC"/>
</g>
<g opacity="0.68">
<path opacity="0.68" d="M466.343 444.468L466.212 444.389L407.88 410.72V343.198L408.011 343.12L466.343 309.451L466.474 309.529L524.806 343.198V410.694L524.675 410.773L466.343 444.468ZM408.404 410.432L466.343 443.892L524.283 410.432V343.513L466.343 310.053L408.404 343.513V410.432Z" fill="#CCCCCC"/>
</g>
<g opacity="0.68">
<path opacity="0.68" d="M597.04 435.619L582.745 443.866L524.806 410.432V343.513L582.745 310.053L597.04 318.3V317.698L582.876 309.529L582.745 309.451L524.413 343.146L524.308 343.198V410.72L582.64 444.389L582.745 444.468L597.04 436.221V435.619Z" fill="#CCCCCC"/>
</g>
<g opacity="0.68">
<path opacity="0.68" d="M408.141 545.266L408.01 545.188L349.678 511.518V444.023L349.809 443.944L408.141 410.275L408.272 410.354L466.604 444.023V511.518L466.473 511.597L408.141 545.266ZM350.202 511.23L408.141 544.69L466.081 511.23V444.311L408.141 410.851L350.202 444.311V511.23Z" fill="#CCCCCC"/>
</g>
<g opacity="0.68">
<path opacity="0.68" d="M524.544 545.266L524.413 545.188L466.081 511.518V444.023L466.212 443.944L524.544 410.275L524.675 410.354L583.007 444.023V511.518L582.876 511.597L524.544 545.266ZM466.604 511.23L524.544 544.69L582.483 511.23V444.311L524.544 410.851L466.604 444.311V511.23Z" fill="#CCCCCC"/>
</g>
<g opacity="0.68">
<path opacity="0.68" d="M597.04 519.347L583.007 511.23V444.311L597.04 436.221V435.619L582.64 443.944L582.51 444.023V511.518L597.04 519.923V519.347Z" fill="#CCCCCC"/>
</g>
<g opacity="0.68">
<path opacity="0.68" d="M466.343 646.091L466.212 646.012L407.88 612.343V544.847L408.011 544.769L466.343 511.099L466.474 511.178L524.806 544.847V612.343L524.675 612.421L466.343 646.091ZM408.404 612.055L466.343 645.515L524.283 612.055V545.135L466.343 511.675L408.404 545.135V612.055Z" fill="#CCCCCC"/>
</g>
<g opacity="0.68">
<path opacity="0.68" d="M597.04 637.268L582.745 645.515L524.806 612.055V545.135L582.745 511.675L597.04 519.923V519.347L582.876 511.152L582.745 511.099L524.413 544.769L524.308 544.847V612.343L582.64 646.012L582.745 646.091L597.04 637.844V637.268Z" fill="#CCCCCC"/>
</g>
<g opacity="0.68">
<path opacity="0.68" d="M332.11 -0.196472V57.0622L257.572 100.104L183.034 57.0622V-0.196472H180.415V58.5807L257.572 103.141L334.755 58.5807V-0.196472H332.11Z" fill="#CCCCCC"/>
</g>
<g opacity="0.68">
<path opacity="0.68" d="M483.832 -0.196472V57.0622L409.294 100.104L334.755 57.0622V-0.196472H332.111V58.5807L409.294 103.141L486.476 58.5807V-0.196472H483.832Z" fill="#CCCCCC"/>
</g>
<g opacity="0.68">
<path opacity="0.68" d="M486.476 57.0622V-0.196472H483.832V58.5807L561.014 103.141L597.04 82.3272V79.2902L561.014 100.104L486.476 57.0622Z" fill="#CCCCCC"/>
</g>
<g opacity="0.68">
<path opacity="0.68" d="M333.446 234.52L256.263 189.985V100.864L333.446 56.3029L410.629 100.864V189.985L333.446 234.52ZM258.908 188.44L333.446 231.482L407.984 188.44V102.356L333.446 59.3138L258.908 102.382V188.44Z" fill="#CCCCCC"/>
</g>
<g opacity="0.68">
<path opacity="0.68" d="M485.141 234.52L407.958 189.959V100.837L485.141 56.2768L562.324 100.837V189.959L485.141 234.52ZM410.603 188.44L485.141 231.482L559.68 188.44V102.356L485.141 59.34L410.603 102.382V188.44Z" fill="#CCCCCC"/>
</g>
<g opacity="0.68">
<path opacity="0.68" d="M597.04 208.495L562.324 188.44V102.382L597.04 82.3272V79.2902L559.679 100.864V189.985L597.04 211.532V208.495Z" fill="#CCCCCC"/>
</g>
<g opacity="0.68">
<path opacity="0.68" d="M409.294 365.924L332.111 321.363V232.242L409.294 187.681L486.476 232.242V321.363L409.294 365.924ZM334.755 319.845L409.294 362.887L483.832 319.845V233.76L409.294 190.718L334.755 233.76V319.845Z" fill="#CCCCCC"/>
</g>
<g opacity="0.68">
<path opacity="0.68" d="M597.04 342.073L561.014 362.887L486.476 319.845V233.76L561.014 190.744L597.04 211.532V208.495L561.014 187.681L483.832 232.242V321.363L561.014 365.924L597.04 345.11V342.073Z" fill="#CCCCCC"/>
</g>
<g opacity="0.68">
<path opacity="0.68" d="M597.04 471.278L562.324 451.223V365.165L597.04 345.11V342.073L559.679 363.646V452.741L597.04 474.315V471.278Z" fill="#CCCCCC"/>
</g>
<path opacity="0.68" d="M0.706897 108.823C1.09962 108.823 1.41379 108.509 1.41379 108.116C1.41379 107.723 1.09962 107.409 0.706897 107.409C0.314176 107.409 0 107.723 0 108.116C0 108.509 0.314176 108.823 0.706897 108.823Z" fill="#CCCCCC"/>
<path opacity="0.68" d="M58.9078 133.695C54.4831 133.695 50.8701 137.282 50.8701 141.733C50.8701 146.184 54.457 149.77 58.9078 149.77C63.3324 149.77 66.9455 146.184 66.9455 141.733C66.9455 137.282 63.3324 133.695 58.9078 133.695Z" fill="#CCCCCC"/>
<path opacity="0.68" d="M58.9083 213.967C61.6835 213.967 63.9351 211.716 63.9351 208.94C63.9351 206.165 61.6835 203.913 58.9083 203.913C56.1331 203.913 53.8815 206.165 53.8815 208.94C53.8815 211.716 56.1331 213.967 58.9083 213.967Z" fill="#CCCCCC"/>
<path opacity="0.68" d="M117.109 247.06C119.596 247.06 121.638 245.044 121.638 242.531C121.638 240.044 119.622 238.002 117.109 238.002C114.622 238.002 112.58 240.018 112.58 242.531C112.606 245.044 114.622 247.06 117.109 247.06Z" fill="#CCCCCC"/>
<path opacity="0.68" d="M117.11 110.446C118.397 110.446 119.44 109.403 119.44 108.116C119.44 106.829 118.397 105.786 117.11 105.786C115.823 105.786 114.78 106.829 114.78 108.116C114.78 109.403 115.823 110.446 117.11 110.446Z" fill="#CCCCCC"/>
<path opacity="0.68" d="M175.31 146.341C177.85 146.341 179.918 144.272 179.918 141.733C179.918 139.193 177.85 137.125 175.31 137.125C172.771 137.125 170.703 139.193 170.703 141.733C170.729 144.272 172.771 146.341 175.31 146.341Z" fill="#CCCCCC"/>
<path opacity="0.68" d="M175.311 200.85C170.834 200.85 167.221 204.463 167.221 208.94C167.221 213.417 170.834 217.03 175.311 217.03C179.788 217.03 183.401 213.417 183.401 208.94C183.401 204.463 179.788 200.85 175.311 200.85Z" fill="#CCCCCC"/>
<path opacity="0.68" d="M233.538 111.519C235.423 111.519 236.942 110.001 236.942 108.116C236.942 106.231 235.423 104.712 233.538 104.712C231.653 104.712 230.134 106.231 230.134 108.116C230.108 110.001 231.653 111.519 233.538 111.519Z" fill="#CCCCCC"/>
<path opacity="0.68" d="M291.739 148.016C295.195 148.016 298.023 145.215 298.023 141.733C298.023 138.277 295.221 135.449 291.739 135.449C288.257 135.449 285.456 138.251 285.456 141.733C285.456 145.189 288.257 148.016 291.739 148.016Z" fill="#CCCCCC"/>
<path opacity="0.68" d="M291.739 216.428C295.874 216.428 299.227 213.076 299.227 208.94C299.227 204.805 295.874 201.452 291.739 201.452C287.603 201.452 284.251 204.805 284.251 208.94C284.251 213.076 287.603 216.428 291.739 216.428Z" fill="#CCCCCC"/>
<path opacity="0.68" d="M349.94 112.043C352.113 112.043 353.867 110.289 353.867 108.116C353.867 105.943 352.113 104.189 349.94 104.189C347.767 104.189 346.013 105.943 346.013 108.116C346.013 110.289 347.767 112.043 349.94 112.043Z" fill="#CCCCCC"/>
<path opacity="0.68" d="M408.141 146.236C410.628 146.236 412.644 144.22 412.644 141.733C412.644 139.246 410.628 137.23 408.141 137.23C405.654 137.23 403.638 139.246 403.638 141.733C403.638 144.22 405.654 146.236 408.141 146.236Z" fill="#CCCCCC"/>
<path opacity="0.68" d="M408.141 212.161C409.92 212.161 411.361 210.719 411.361 208.94C411.361 207.162 409.92 205.72 408.141 205.72C406.363 205.72 404.921 207.162 404.921 208.94C404.921 210.719 406.363 212.161 408.141 212.161Z" fill="#CCCCCC"/>
<path opacity="0.68" d="M466.342 111.153C468.018 111.153 469.379 109.791 469.379 108.116C469.379 106.44 468.018 105.079 466.342 105.079C464.667 105.079 463.305 106.44 463.305 108.116C463.305 109.791 464.667 111.153 466.342 111.153Z" fill="#CCCCCC"/>
<path opacity="0.68" d="M524.544 146.498C527.188 146.498 529.309 144.351 529.309 141.733C529.309 139.089 527.162 136.968 524.544 136.968C521.899 136.968 519.779 139.115 519.779 141.733C519.779 144.351 521.925 146.498 524.544 146.498Z" fill="#CCCCCC"/>
<path opacity="0.68" d="M524.544 214.36C527.537 214.36 529.964 211.933 529.964 208.94C529.964 205.947 527.537 203.521 524.544 203.521C521.551 203.521 519.125 205.947 519.125 208.94C519.125 211.933 521.551 214.36 524.544 214.36Z" fill="#CCCCCC"/>
<path opacity="0.68" d="M582.745 112.671C585.259 112.671 587.301 110.629 587.301 108.116C587.301 105.602 585.259 103.56 582.745 103.56C580.232 103.56 578.19 105.602 578.19 108.116C578.216 110.629 580.232 112.671 582.745 112.671Z" fill="#CCCCCC"/>
<path opacity="0.68" d="M117.109 315.813C120.46 315.813 123.183 313.09 123.183 309.739C123.183 306.387 120.46 303.664 117.109 303.664C113.758 303.664 111.035 306.387 111.035 309.739C111.035 313.116 113.758 315.813 117.109 315.813Z" fill="#CCCCCC"/>
<path opacity="0.68" d="M233.538 239.442C231.836 239.442 230.422 240.829 230.422 242.557C230.422 244.259 231.81 245.673 233.538 245.673C235.266 245.673 236.654 244.285 236.654 242.557C236.627 240.829 235.24 239.442 233.538 239.442Z" fill="#CCCCCC"/>
<path opacity="0.68" d="M233.538 315.498C236.706 315.498 239.298 312.933 239.298 309.739C239.298 306.571 236.732 303.979 233.538 303.979C230.344 303.979 227.778 306.544 227.778 309.739C227.778 312.933 230.344 315.498 233.538 315.498Z" fill="#CCCCCC"/>
<path opacity="0.68" d="M291.739 346.995C293.749 346.995 295.378 345.365 295.378 343.356C295.378 341.346 293.749 339.716 291.739 339.716C289.729 339.716 288.1 341.346 288.1 343.356C288.1 345.365 289.729 346.995 291.739 346.995Z" fill="#CCCCCC"/>
<path opacity="0.68" d="M349.94 234.048C345.253 234.048 341.431 237.845 341.431 242.557C341.431 247.244 345.227 251.066 349.94 251.066C354.652 251.066 358.449 247.27 358.449 242.557C358.449 237.845 354.626 234.048 349.94 234.048Z" fill="#CCCCCC"/>
<path opacity="0.68" d="M466.343 248.841C469.825 248.841 472.652 246.013 472.652 242.531C472.652 239.049 469.825 236.221 466.343 236.221C462.861 236.221 460.033 239.049 460.033 242.531C460.033 246.039 462.861 248.841 466.343 248.841Z" fill="#CCCCCC"/>
<path opacity="0.68" d="M524.543 349.639C528.025 349.639 530.827 346.811 530.827 343.355C530.827 339.9 527.999 337.072 524.543 337.072C521.061 337.072 518.26 339.9 518.26 343.355C518.26 346.811 521.087 349.639 524.543 349.639Z" fill="#CCCCCC"/>
<path opacity="0.68" d="M466.342 317.174C470.427 317.174 473.752 313.849 473.752 309.765C473.752 305.68 470.427 302.355 466.342 302.355C462.258 302.355 458.933 305.68 458.933 309.765C458.933 313.849 462.258 317.174 466.342 317.174Z" fill="#CCCCCC"/>
<path opacity="0.68" d="M582.745 249.286C586.463 249.286 589.474 246.275 589.474 242.531C589.474 238.813 586.463 235.776 582.745 235.776C579.027 235.776 575.99 238.787 575.99 242.531C576.016 246.275 579.027 249.286 582.745 249.286Z" fill="#CCCCCC"/>
<path opacity="0.68" d="M180.154 343.355C180.154 340.685 177.981 338.512 175.311 338.512C172.64 338.512 170.467 340.685 170.467 343.355C170.467 346.026 172.64 348.199 175.311 348.199C177.981 348.199 180.154 346.026 180.154 343.355Z" fill="#CCCCCC"/>
<path opacity="0.68" d="M349.94 313.666C352.094 313.666 353.841 311.919 353.841 309.765C353.841 307.61 352.094 305.864 349.94 305.864C347.785 305.864 346.039 307.61 346.039 309.765C346.039 311.919 347.785 313.666 349.94 313.666Z" fill="#CCCCCC"/>
<path opacity="0.68" d="M408.141 347.544C410.445 347.544 412.33 345.686 412.33 343.355C412.33 341.051 410.472 339.166 408.141 339.166C405.837 339.166 403.952 341.025 403.952 343.355C403.952 345.659 405.837 347.544 408.141 347.544Z" fill="#CCCCCC"/>
<path opacity="0.68" d="M582.745 448.317C585.029 448.317 586.881 446.464 586.881 444.18C586.881 441.895 585.029 440.043 582.745 440.043C580.46 440.043 578.608 441.895 578.608 444.18C578.608 446.464 580.46 448.317 582.745 448.317Z" fill="#CCCCCC"/>
<path opacity="0.68" d="M524.544 405.17C521.559 405.17 519.15 407.578 519.15 410.563C519.15 413.548 521.559 415.956 524.544 415.956C527.528 415.956 529.937 413.548 529.937 410.563C529.937 407.578 527.528 405.17 524.544 405.17Z" fill="#CCCCCC"/>
<path opacity="0.68" d="M582.745 314.922C585.594 314.922 587.903 312.613 587.903 309.765C587.903 306.916 585.594 304.607 582.745 304.607C579.897 304.607 577.587 306.916 577.587 309.765C577.587 312.613 579.897 314.922 582.745 314.922Z" fill="#CCCCCC"/>
<path opacity="0.68" d="M291.739 404.332C288.309 404.332 285.508 407.107 285.508 410.563C285.508 413.993 288.283 416.794 291.739 416.794C295.195 416.794 297.97 414.019 297.97 410.563C297.944 407.133 295.169 404.332 291.739 404.332Z" fill="#CCCCCC"/>
<path opacity="0.68" d="M343.473 444.18C343.473 447.741 346.353 450.647 349.94 450.647C353.5 450.647 356.407 447.767 356.407 444.18C356.407 440.619 353.527 437.713 349.94 437.713C346.379 437.713 343.473 440.593 343.473 444.18Z" fill="#CCCCCC"/>
<path opacity="0.68" d="M408.141 548.879C410.296 548.879 412.042 547.133 412.042 544.978C412.042 542.824 410.296 541.077 408.141 541.077C405.987 541.077 404.24 542.824 404.24 544.978C404.24 547.133 405.987 548.879 408.141 548.879Z" fill="#CCCCCC"/>
<path opacity="0.68" d="M349.94 516.467C352.745 516.467 355.019 514.193 355.019 511.387C355.019 508.582 352.745 506.308 349.94 506.308C347.135 506.308 344.861 508.582 344.861 511.387C344.861 514.193 347.135 516.467 349.94 516.467Z" fill="#CCCCCC"/>
<path opacity="0.68" d="M408.142 415.983C411.135 415.983 413.561 413.556 413.561 410.563C413.561 407.57 411.135 405.144 408.142 405.144C405.149 405.144 402.722 407.57 402.722 410.563C402.722 413.556 405.149 415.983 408.142 415.983Z" fill="#CCCCCC"/>
<path opacity="0.68" d="M466.342 519.085C470.593 519.085 474.039 515.639 474.039 511.387C474.039 507.136 470.593 503.69 466.342 503.69C462.091 503.69 458.645 507.136 458.645 511.387C458.645 515.639 462.091 519.085 466.342 519.085Z" fill="#CCCCCC"/>
<path opacity="0.68" d="M524.543 549.324C526.952 549.324 528.889 547.387 528.889 544.978C528.889 542.57 526.952 540.632 524.543 540.632C522.135 540.632 520.197 542.57 520.197 544.978C520.197 547.387 522.135 549.324 524.543 549.324Z" fill="#CCCCCC"/>
<path opacity="0.68" d="M466.342 451.799C470.558 451.799 473.961 448.395 473.961 444.18C473.961 439.965 470.558 436.561 466.342 436.561C462.127 436.561 458.724 439.965 458.724 444.18C458.724 448.369 462.127 451.799 466.342 451.799Z" fill="#CCCCCC"/>
<path opacity="0.68" d="M582.745 514.843C584.653 514.843 586.201 513.296 586.201 511.388C586.201 509.479 584.653 507.932 582.745 507.932C580.836 507.932 579.289 509.479 579.289 511.388C579.289 513.296 580.836 514.843 582.745 514.843Z" fill="#CCCCCC"/>
<path opacity="0.68" d="M408.141 616.375C410.445 616.375 412.33 614.49 412.33 612.186C412.33 609.882 410.445 607.997 408.141 607.997C405.837 607.997 403.952 609.882 403.952 612.186C403.952 614.516 405.837 616.375 408.141 616.375Z" fill="#CCCCCC"/>
<path opacity="0.68" d="M524.544 616.637C527.005 616.637 528.995 614.647 528.995 612.186C528.995 609.725 527.005 607.735 524.544 607.735C522.083 607.735 520.093 609.725 520.093 612.186C520.093 614.647 522.083 616.637 524.544 616.637Z" fill="#CCCCCC"/>
<path opacity="0.68" d="M582.745 652.453C586.436 652.453 589.421 649.468 589.421 645.776C589.421 642.085 586.436 639.1 582.745 639.1C579.053 639.1 576.069 642.085 576.069 645.776C576.095 649.468 579.079 652.453 582.745 652.453Z" fill="#CCCCCC"/>
</g>
</g>
<g opacity="0.32">
<path opacity="0.32" d="M182.301 -0.196472V70.9121L111.559 111.755L40.8431 70.9121V-0.196472H40.2147V71.2787L111.402 112.383L111.559 112.462L182.772 71.3572L182.929 71.2787V-0.196472H182.301Z" fill="#CCCCCC"/>
</g>
<g opacity="0.32">
<path opacity="0.32" d="M324.387 -0.196472V70.9121L253.645 111.755L182.929 70.9121V-0.196472H182.301V71.2787L253.488 112.383L253.645 112.462L324.858 71.3572L324.989 71.2787V-0.196472H324.387Z" fill="#CCCCCC"/>
</g>
<g opacity="0.32">
<path opacity="0.32" d="M466.473 -0.196472V70.9121L395.731 111.755L324.989 70.9121V-0.196472H324.387V71.2787L395.574 112.383L395.731 112.462L466.918 71.3572L467.076 71.2787V-0.196472H466.473Z" fill="#CCCCCC"/>
</g>
<g opacity="0.32">
<path opacity="0.32" d="M467.076 70.9121V-0.196472H466.473V71.2787L537.661 112.383L537.818 112.462L582.797 86.4901V85.7831L537.818 111.755L467.076 70.9121Z" fill="#CCCCCC"/>
</g>
<g opacity="0.32">
<path opacity="0.32" d="M324.701 235.514L324.544 235.436L253.357 194.331V111.938L253.514 111.86L324.701 70.7551L324.859 70.8336L396.046 111.938V194.331L395.889 194.41L324.701 235.514ZM253.959 193.965L324.701 234.808L395.443 193.965V112.279L324.701 71.4358L253.959 112.279V193.965Z" fill="#CCCCCC"/>
</g>
<g opacity="0.32">
<path opacity="0.32" d="M466.788 235.514L466.631 235.436L395.443 194.331V111.938L395.6 111.86L466.788 70.7551L466.945 70.8336L538.132 111.938V194.331L537.975 194.41L466.788 235.514ZM396.046 193.965L466.788 234.808L537.53 193.965V112.279L466.788 71.4358L396.046 112.279V193.965Z" fill="#CCCCCC"/>
</g>
<g opacity="0.32">
<path opacity="0.32" d="M582.797 219.753L538.132 193.965V112.279L582.797 86.4901V85.7832L537.66 111.834L537.503 111.938V194.305L582.797 220.46V219.753Z" fill="#CCCCCC"/>
</g>
<g opacity="0.32">
<path opacity="0.32" d="M395.731 358.567L395.574 358.488L324.387 317.384V234.965L324.544 234.886L395.731 193.781L395.888 193.86L467.076 234.965V317.357L466.918 317.436L395.731 358.567ZM324.989 317.017L395.731 357.86L466.473 317.017V235.331L395.731 194.488L324.989 235.331V317.017Z" fill="#CCCCCC"/>
</g>
<g opacity="0.32">
<path opacity="0.32" d="M582.797 331.888L537.818 357.834L467.076 317.017V235.331L537.818 194.488L582.797 220.46V219.753L537.975 193.86L537.818 193.781L466.63 234.886L466.473 234.965V317.357L537.661 358.462L537.818 358.567L582.797 332.595V331.888Z" fill="#CCCCCC"/>
</g>
<g opacity="0.32">
<path opacity="0.32" d="M466.788 481.593L466.631 481.515L395.443 440.41V358.017L395.6 357.938L466.788 316.834L466.945 316.912L538.132 358.017V440.41L537.975 440.488L466.788 481.593ZM396.046 440.043L466.788 480.886L537.53 440.043V358.357L466.788 317.514L396.046 358.357V440.043Z" fill="#CCCCCC"/>
</g>
<g opacity="0.32">
<path opacity="0.32" d="M582.797 465.832L538.132 440.043V358.384L582.797 332.595V331.888L537.66 357.939L537.503 358.017V440.41L582.797 466.565V465.832Z" fill="#CCCCCC"/>
</g>
<g opacity="0.32">
<path opacity="0.32" d="M488.125 -0.196472V83.4006L397.145 135.92L306.165 83.4006V-0.196472H302.944V85.2595L397.145 139.638L491.319 85.2595V-0.196472H488.125Z" fill="#CCCCCC"/>
</g>
<g opacity="0.32">
<path opacity="0.32" d="M491.319 83.4006V-0.196472H488.125V85.2595L582.299 139.638L582.797 139.35V135.659L582.299 135.92L491.319 83.4006Z" fill="#CCCCCC"/>
</g>
<g opacity="0.32">
<path opacity="0.32" d="M582.797 135.659L580.702 136.863V245.62L582.797 246.825V135.659Z" fill="#CCCCCC"/>
</g>
<g opacity="0.32">
<path opacity="0.32" d="M582.797 456.93L489.722 403.206L395.522 457.585V566.342L489.722 620.721L582.797 566.997V456.93ZM489.722 617.029L398.742 564.51V459.444L489.722 406.924L580.703 459.444V564.51L489.722 617.029Z" fill="#CCCCCC"/>
</g>
<path opacity="0.32" d="M40.5286 78.5048C44.6206 78.5048 47.9379 75.1875 47.9379 71.0955C47.9379 67.0034 44.6206 63.6861 40.5286 63.6861C36.4365 63.6861 33.1193 67.0034 33.1193 71.0955C33.1193 75.1875 36.4365 78.5048 40.5286 78.5048Z" fill="#CCCCCC"/>
<path opacity="0.32" d="M182.615 78.112C186.49 78.112 189.632 74.9702 189.632 71.0954C189.632 67.2206 186.49 64.0788 182.615 64.0788C178.74 64.0788 175.599 67.2206 175.599 71.0954C175.599 74.9702 178.714 78.112 182.615 78.112Z" fill="#CCCCCC"/>
<path opacity="0.32" d="M253.645 116.52C256.088 116.52 258.069 114.539 258.069 112.095C258.069 109.652 256.088 107.671 253.645 107.671C251.201 107.671 249.22 109.652 249.22 112.095C249.22 114.539 251.201 116.52 253.645 116.52Z" fill="#CCCCCC"/>
<path opacity="0.32" d="M537.818 119.767C542.059 119.767 545.489 116.337 545.489 112.095C545.489 107.854 542.059 104.424 537.818 104.424C533.576 104.424 530.146 107.854 530.146 112.095C530.146 116.337 533.576 119.767 537.818 119.767Z" fill="#CCCCCC"/>
<path opacity="0.32" d="M466.762 80.1542C471.765 80.1542 475.82 76.0984 475.82 71.0954C475.82 66.0924 471.765 62.0367 466.762 62.0367C461.759 62.0367 457.703 66.0924 457.703 71.0954C457.703 76.0984 461.759 80.1542 466.762 80.1542Z" fill="#CCCCCC"/>
<path opacity="0.32" d="M117.476 112.095C117.476 108.849 114.832 106.205 111.585 106.205C108.339 106.205 105.695 108.849 105.695 112.095C105.695 115.342 108.339 117.986 111.585 117.986C114.832 117.986 117.476 115.368 117.476 112.095Z" fill="#CCCCCC"/>
<path opacity="0.32" d="M324.701 75.8604C327.333 75.8604 329.466 73.7271 329.466 71.0954C329.466 68.4638 327.333 66.3304 324.701 66.3304C322.069 66.3304 319.936 68.4638 319.936 71.0954C319.936 73.7271 322.069 75.8604 324.701 75.8604Z" fill="#CCCCCC"/>
<path opacity="0.32" d="M395.731 117.201C398.551 117.201 400.837 114.915 400.837 112.095C400.837 109.276 398.551 106.99 395.731 106.99C392.912 106.99 390.626 109.276 390.626 112.095C390.626 114.915 392.912 117.201 395.731 117.201Z" fill="#CCCCCC"/>
<path opacity="0.32" d="M537.818 187.55C534.178 187.55 531.246 190.482 531.246 194.122C531.246 197.761 534.178 200.693 537.818 200.693C541.457 200.693 544.389 197.761 544.389 194.122C544.389 190.509 541.457 187.55 537.818 187.55Z" fill="#CCCCCC"/>
<path opacity="0.32" d="M253.645 201.74C257.838 201.74 261.238 198.341 261.238 194.148C261.238 189.955 257.838 186.555 253.645 186.555C249.452 186.555 246.052 189.955 246.052 194.148C246.052 198.341 249.452 201.74 253.645 201.74Z" fill="#CCCCCC"/>
<path opacity="0.32" d="M316.795 235.148C316.795 239.494 320.329 243.029 324.675 243.029C329.021 243.029 332.556 239.494 332.556 235.148C332.556 230.802 329.021 227.267 324.675 227.267C320.329 227.267 316.795 230.802 316.795 235.148Z" fill="#CCCCCC"/>
<path opacity="0.32" d="M395.732 362.965C398.363 362.965 400.497 360.832 400.497 358.2C400.497 355.569 398.363 353.435 395.732 353.435C393.1 353.435 390.967 355.569 390.967 358.2C390.967 360.832 393.1 362.965 395.732 362.965Z" fill="#CCCCCC"/>
<path opacity="0.32" d="M324.701 310.969C321.271 310.969 318.496 313.744 318.496 317.174C318.496 320.604 321.271 323.379 324.701 323.379C328.131 323.379 330.906 320.604 330.906 317.174C330.906 313.744 328.105 310.969 324.701 310.969Z" fill="#CCCCCC"/>
<path opacity="0.32" d="M395.732 200.772C399.39 200.772 402.356 197.806 402.356 194.148C402.356 190.49 399.39 187.524 395.732 187.524C392.074 187.524 389.108 190.49 389.108 194.148C389.108 197.806 392.074 200.772 395.732 200.772Z" fill="#CCCCCC"/>
<path opacity="0.32" d="M466.761 326.573C471.952 326.573 476.16 322.365 476.16 317.174C476.16 311.983 471.952 307.775 466.761 307.775C461.57 307.775 457.362 311.983 457.362 317.174C457.362 322.365 461.57 326.573 466.761 326.573Z" fill="#CCCCCC"/>
<path opacity="0.32" d="M537.817 363.515C540.75 363.515 543.132 361.133 543.132 358.2C543.132 355.268 540.75 352.885 537.817 352.885C534.885 352.885 532.502 355.268 532.502 358.2C532.502 361.133 534.885 363.515 537.817 363.515Z" fill="#CCCCCC"/>
<path opacity="0.32" d="M466.762 244.468C471.893 244.468 476.056 240.306 476.056 235.174C476.056 230.043 471.893 225.88 466.762 225.88C461.63 225.88 457.467 230.043 457.467 235.174C457.467 240.306 461.63 244.468 466.762 244.468Z" fill="#CCCCCC"/>
<path opacity="0.32" d="M395.731 599.907C393.322 599.907 391.359 601.87 391.359 604.279C391.359 606.688 393.322 608.651 395.731 608.651C398.14 608.651 400.103 606.688 400.103 604.279C400.103 601.87 398.14 599.907 395.731 599.907Z" fill="#CCCCCC"/>
<path opacity="0.32" d="M395.731 445.332C398.551 445.332 400.837 443.046 400.837 440.227C400.837 437.407 398.551 435.121 395.731 435.121C392.912 435.121 390.626 437.407 390.626 440.227C390.626 443.046 392.912 445.332 395.731 445.332Z" fill="#CCCCCC"/>
<path opacity="0.32" d="M466.762 491.254C472.285 491.254 476.763 486.776 476.763 481.253C476.763 475.729 472.285 471.251 466.762 471.251C461.238 471.251 456.76 475.729 456.76 481.253C456.76 486.776 461.238 491.254 466.762 491.254Z" fill="#CCCCCC"/>
<path opacity="0.32" d="M537.817 445.672C540.828 445.672 543.237 443.237 543.237 440.253C543.237 437.242 540.802 434.833 537.817 434.833C534.807 434.833 532.398 437.268 532.398 440.253C532.372 443.237 534.807 445.672 537.817 445.672Z" fill="#CCCCCC"/>
<path opacity="0.32" d="M537.818 611.976C542.059 611.976 545.489 608.547 545.489 604.305C545.489 600.064 542.059 596.634 537.818 596.634C533.576 596.634 530.147 600.064 530.147 604.305C530.12 608.547 533.576 611.976 537.818 611.976Z" fill="#CCCCCC"/>
</svg>
