<svg width="76" height="78" viewBox="0 0 76 78" fill="none" xmlns="http://www.w3.org/2000/svg">
<path d="M22.831 75V63.3636H26.7628C27.6757 63.3636 28.4219 63.5284 29.0014 63.858C29.5848 64.1837 30.0166 64.625 30.2969 65.1818C30.5772 65.7386 30.7173 66.3598 30.7173 67.0455C30.7173 67.7311 30.5772 68.3542 30.2969 68.9148C30.0204 69.4754 29.5923 69.9223 29.0128 70.2557C28.4332 70.5852 27.6908 70.75 26.7855 70.75H23.9673V69.5H26.7401C27.3651 69.5 27.867 69.392 28.2457 69.1761C28.6245 68.9602 28.8991 68.6686 29.0696 68.3011C29.2438 67.9299 29.331 67.5114 29.331 67.0455C29.331 66.5795 29.2438 66.1629 29.0696 65.7955C28.8991 65.428 28.6226 65.1402 28.2401 64.9318C27.8575 64.7197 27.3499 64.6136 26.7173 64.6136H24.2401V75H22.831ZM32.9872 75V63.3636H34.3963V68.5455H40.6009V63.3636H42.0099V75H40.6009V69.7955H34.3963V75H32.9872ZM44.831 75V63.3636H48.7628C49.6757 63.3636 50.4219 63.5284 51.0014 63.858C51.5848 64.1837 52.0166 64.625 52.2969 65.1818C52.5772 65.7386 52.7173 66.3598 52.7173 67.0455C52.7173 67.7311 52.5772 68.3542 52.2969 68.9148C52.0204 69.4754 51.5923 69.9223 51.0128 70.2557C50.4332 70.5852 49.6908 70.75 48.7855 70.75H45.9673V69.5H48.7401C49.3651 69.5 49.867 69.392 50.2457 69.1761C50.6245 68.9602 50.8991 68.6686 51.0696 68.3011C51.2438 67.9299 51.331 67.5114 51.331 67.0455C51.331 66.5795 51.2438 66.1629 51.0696 65.7955C50.8991 65.428 50.6226 65.1402 50.2401 64.9318C49.8575 64.7197 49.3499 64.6136 48.7173 64.6136H46.2401V75H44.831Z" fill="black"/>
<path d="M37.8977 39.8519C58.8281 39.8519 75.7955 30.9307 75.7955 19.9259C75.7955 8.92114 58.8281 0 37.8977 0C16.9674 0 0 8.92114 0 19.9259C0 30.9307 16.9674 39.8519 37.8977 39.8519Z" fill="url(#paint0_radial_82_35)"/>
<path d="M37.8978 38.3716C58.0106 38.3716 74.3152 30.1132 74.3152 19.926C74.3152 9.73882 58.0106 1.48047 37.8978 1.48047C17.7851 1.48047 1.48047 9.73882 1.48047 19.926C1.48047 30.1132 17.7851 38.3716 37.8978 38.3716Z" fill="#6181B6"/>
<path d="M45.27 25.9064L47.0761 16.6096C47.4906 14.5075 47.1353 12.9383 46.0694 11.9612C45.0331 11.0138 43.2567 10.5401 40.6512 10.5401H37.5128L38.401 5.92128C38.4306 5.74363 38.401 5.56598 38.2826 5.41795C38.1642 5.26991 38.0161 5.21069 37.8385 5.21069H33.5158C33.2197 5.21069 32.9828 5.41795 32.9236 5.68442L30.9991 15.5438C30.8215 14.4187 30.407 13.4712 29.6964 12.7014C28.4233 11.2506 26.4396 10.5105 23.7453 10.5105H15.4255C15.1294 10.5105 14.8926 10.7177 14.8334 10.9842L10.9548 30.9989C10.9252 31.1766 10.9548 31.3542 11.0732 31.5023C11.1916 31.6503 11.3397 31.7095 11.5173 31.7095H15.8696C16.1657 31.7095 16.4026 31.5023 16.4618 31.2358L17.4092 26.4097H20.6365C22.3241 26.4097 23.7749 26.2321 24.8703 25.8768C26.025 25.4919 27.0613 24.8701 27.9791 24.0115C28.7193 23.3306 29.3411 22.5608 29.8148 21.7317L29.045 25.7288C29.0154 25.9064 29.045 26.0841 29.1635 26.2321C29.2819 26.3801 29.4299 26.4394 29.6076 26.4394H33.9303C34.2264 26.4394 34.4632 26.2321 34.5224 25.9656L36.6542 15.0108H39.6149C40.8881 15.0108 41.2434 15.2477 41.3618 15.3661C41.4506 15.4549 41.6283 15.8102 41.421 16.9057L39.7038 25.7584C39.6742 25.936 39.7038 26.1137 39.8222 26.2617C39.9406 26.4097 40.0887 26.469 40.2663 26.469H44.7074C44.9739 26.3801 45.2108 26.1729 45.27 25.9064ZM25.2552 18.2084C24.9888 19.6 24.4854 20.6067 23.7453 21.1692C23.0051 21.7317 21.7912 22.0278 20.1923 22.0278H18.2679L19.6594 14.8628H22.1464C23.9821 14.8628 24.7223 15.2477 25.0184 15.5734C25.4033 16.0471 25.4921 16.9649 25.2552 18.2084V18.2084ZM63.7451 12.7014C62.472 11.2506 60.4883 10.5105 57.794 10.5105H49.4151C49.119 10.5105 48.8821 10.7177 48.8229 10.9842L44.9443 30.9693C44.9147 31.147 44.9443 31.3246 45.0627 31.4726C45.1812 31.6207 45.3292 31.6799 45.5069 31.6799H49.8592C50.1552 31.6799 50.3921 31.4726 50.4513 31.2062L51.3988 26.3801H54.626C56.3136 26.3801 57.7644 26.2025 58.8599 25.8472C60.0146 25.4623 61.0509 24.8405 61.9687 23.9819C62.7385 23.2713 63.3899 22.4719 63.8636 21.6133C64.3373 20.7547 64.6926 19.8072 64.8998 18.771C65.4032 16.1951 65.0183 14.1818 63.7451 12.7014V12.7014ZM59.2152 18.2084C58.9487 19.6 58.4454 20.6067 57.7052 21.1692C56.965 21.7317 55.7511 22.0278 54.1523 22.0278H52.2278L53.6193 14.8628H56.1064C57.9421 14.8628 58.6822 15.2477 58.9783 15.5734C59.3928 16.0471 59.4816 16.9649 59.2152 18.2084Z" fill="white"/>
<path d="M22.1463 14.271C23.8043 14.271 24.8998 14.5671 25.4623 15.1888C26.0249 15.8106 26.1433 16.8469 25.8472 18.3272C25.5512 19.8668 24.959 20.9919 24.1004 21.6433C23.2418 22.2947 21.939 22.6203 20.1922 22.6203H17.5571L19.1855 14.271H22.1463V14.271ZM11.5468 31.0881H15.8991L16.9353 25.7884H20.6659C22.3239 25.7884 23.6563 25.6107 24.7221 25.2554C25.788 24.9001 26.7355 24.3376 27.6237 23.5086C28.3639 22.8276 28.956 22.0874 29.4001 21.288C29.8443 20.4886 30.1699 19.6004 30.3476 18.6233C30.8213 16.2547 30.466 14.419 29.3113 13.0867C28.1566 11.7544 26.321 11.103 23.8043 11.103H15.4254L11.5468 31.0881ZM33.5452 5.80322H37.8679L36.8317 11.103H40.6806C43.1085 11.103 44.7665 11.5175 45.6843 12.3761C46.6022 13.2347 46.8686 14.5967 46.5133 16.4916L44.7073 25.7884H40.3254L42.0426 16.9357C42.2498 15.929 42.161 15.2481 41.8353 14.8928C41.5097 14.5375 40.7695 14.3302 39.674 14.3302H36.2099L33.9893 25.7884H29.6666L33.5452 5.80322ZM56.1062 14.271C57.7642 14.271 58.8597 14.5671 59.4223 15.1888C59.9848 15.8106 60.1032 16.8469 59.8072 18.3272C59.5111 19.8668 58.9189 20.9919 58.0603 21.6433C57.2017 22.2947 55.899 22.6203 54.1521 22.6203H51.517L53.1455 14.271H56.1062V14.271ZM45.5067 31.0881H49.859L50.8953 25.7884H54.6258C56.2839 25.7884 57.6162 25.6107 58.6821 25.2554C59.7479 24.9001 60.6954 24.3376 61.5836 23.5086C62.3238 22.8276 62.916 22.0874 63.3601 21.288C63.8042 20.4886 64.1299 19.6004 64.3075 18.6233C64.7812 16.2547 64.426 14.419 63.2713 13.0867C62.1166 11.7544 60.2809 11.103 57.7642 11.103H49.3853L45.5067 31.0881Z" fill="#000004"/>
<defs>
<radialGradient id="paint0_radial_82_35" cx="0" cy="0" r="1" gradientUnits="userSpaceOnUse" gradientTransform="translate(22.7539 7.00739) scale(49.769)">
<stop stop-color="white"/>
<stop offset="0.5" stop-color="#4C6B97"/>
<stop offset="1" stop-color="#231F20"/>
</radialGradient>
</defs>
</svg>
