<svg width="82" height="84" viewBox="0 0 82 84" fill="none" xmlns="http://www.w3.org/2000/svg">
<path d="M1.64347 80V68.3636H5.57528C6.48816 68.3636 7.23438 68.5284 7.81392 68.858C8.39725 69.1837 8.82907 69.625 9.10938 70.1818C9.38968 70.7386 9.52983 71.3598 9.52983 72.0455C9.52983 72.7311 9.38968 73.3542 9.10938 73.9148C8.83286 74.4754 8.40483 74.9223 7.82528 75.2557C7.24574 75.5852 6.50331 75.75 5.59801 75.75H2.77983V74.5H5.55256C6.17756 74.5 6.67945 74.392 7.05824 74.1761C7.43703 73.9602 7.71165 73.6686 7.8821 73.3011C8.05634 72.9299 8.14347 72.5114 8.14347 72.0455C8.14347 71.5795 8.05634 71.1629 7.8821 70.7955C7.71165 70.428 7.43513 70.1402 7.05256 69.9318C6.66998 69.7197 6.16241 69.6136 5.52983 69.6136H3.05256V80H1.64347ZM12.9588 74.75V80H11.6179V68.3636H12.9588V72.6364H13.0724C13.277 72.1856 13.5838 71.8277 13.9929 71.5625C14.4058 71.2936 14.955 71.1591 15.6406 71.1591C16.2353 71.1591 16.7562 71.2784 17.2031 71.517C17.6501 71.7519 17.9967 72.1136 18.2429 72.6023C18.4929 73.0871 18.6179 73.7045 18.6179 74.4545V80H17.277V74.5455C17.277 73.8523 17.0971 73.3163 16.7372 72.9375C16.3812 72.5549 15.8868 72.3636 15.2543 72.3636C14.8149 72.3636 14.4209 72.4564 14.0724 72.642C13.7277 72.8277 13.455 73.0985 13.2543 73.4545C13.0573 73.8106 12.9588 74.2424 12.9588 74.75ZM24.6165 80.1818C23.8286 80.1818 23.1373 79.9943 22.5426 79.6193C21.9517 79.2443 21.4896 78.7197 21.1562 78.0455C20.8267 77.3712 20.6619 76.5833 20.6619 75.6818C20.6619 74.7727 20.8267 73.9792 21.1562 73.3011C21.4896 72.6231 21.9517 72.0966 22.5426 71.7216C23.1373 71.3466 23.8286 71.1591 24.6165 71.1591C25.4044 71.1591 26.0938 71.3466 26.6847 71.7216C27.2794 72.0966 27.7415 72.6231 28.071 73.3011C28.4044 73.9792 28.571 74.7727 28.571 75.6818C28.571 76.5833 28.4044 77.3712 28.071 78.0455C27.7415 78.7197 27.2794 79.2443 26.6847 79.6193C26.0938 79.9943 25.4044 80.1818 24.6165 80.1818ZM24.6165 78.9773C25.215 78.9773 25.7074 78.8239 26.0938 78.517C26.4801 78.2102 26.7661 77.8068 26.9517 77.3068C27.1373 76.8068 27.2301 76.2652 27.2301 75.6818C27.2301 75.0985 27.1373 74.5549 26.9517 74.0511C26.7661 73.5473 26.4801 73.1402 26.0938 72.8295C25.7074 72.5189 25.215 72.3636 24.6165 72.3636C24.018 72.3636 23.5256 72.5189 23.1392 72.8295C22.7528 73.1402 22.4669 73.5473 22.2812 74.0511C22.0956 74.5549 22.0028 75.0985 22.0028 75.6818C22.0028 76.2652 22.0956 76.8068 22.2812 77.3068C22.4669 77.8068 22.7528 78.2102 23.1392 78.517C23.5256 78.8239 24.018 78.9773 24.6165 78.9773ZM34.4134 71.2727V72.4091H29.8906V71.2727H34.4134ZM31.2088 69.1818H32.5497V77.5C32.5497 77.8788 32.6046 78.1629 32.7145 78.3523C32.8281 78.5379 32.9721 78.6629 33.1463 78.7273C33.3243 78.7879 33.5118 78.8182 33.7088 78.8182C33.8565 78.8182 33.9777 78.8106 34.0724 78.7955C34.1671 78.7765 34.2429 78.7614 34.2997 78.75L34.5724 79.9545C34.4815 79.9886 34.3546 80.0227 34.1918 80.0568C34.0289 80.0947 33.8224 80.1136 33.5724 80.1136C33.1937 80.1136 32.8224 80.0322 32.4588 79.8693C32.099 79.7064 31.7997 79.4583 31.5611 79.125C31.3262 78.7917 31.2088 78.3712 31.2088 77.8636V69.1818ZM39.8821 80.1818C39.0942 80.1818 38.4029 79.9943 37.8082 79.6193C37.2173 79.2443 36.7552 78.7197 36.4219 78.0455C36.0923 77.3712 35.9276 76.5833 35.9276 75.6818C35.9276 74.7727 36.0923 73.9792 36.4219 73.3011C36.7552 72.6231 37.2173 72.0966 37.8082 71.7216C38.4029 71.3466 39.0942 71.1591 39.8821 71.1591C40.67 71.1591 41.3594 71.3466 41.9503 71.7216C42.545 72.0966 43.0071 72.6231 43.3366 73.3011C43.67 73.9792 43.8366 74.7727 43.8366 75.6818C43.8366 76.5833 43.67 77.3712 43.3366 78.0455C43.0071 78.7197 42.545 79.2443 41.9503 79.6193C41.3594 79.9943 40.67 80.1818 39.8821 80.1818ZM39.8821 78.9773C40.4806 78.9773 40.973 78.8239 41.3594 78.517C41.7457 78.2102 42.0317 77.8068 42.2173 77.3068C42.4029 76.8068 42.4957 76.2652 42.4957 75.6818C42.4957 75.0985 42.4029 74.5549 42.2173 74.0511C42.0317 73.5473 41.7457 73.1402 41.3594 72.8295C40.973 72.5189 40.4806 72.3636 39.8821 72.3636C39.2836 72.3636 38.7912 72.5189 38.4048 72.8295C38.0185 73.1402 37.7325 73.5473 37.5469 74.0511C37.3613 74.5549 37.2685 75.0985 37.2685 75.6818C37.2685 76.2652 37.3613 76.8068 37.5469 77.3068C37.7325 77.8068 38.0185 78.2102 38.4048 78.517C38.7912 78.8239 39.2836 78.9773 39.8821 78.9773ZM52.0653 73.2273L50.8608 73.5682C50.785 73.3674 50.6733 73.1723 50.5256 72.983C50.3816 72.7898 50.1847 72.6307 49.9347 72.5057C49.6847 72.3807 49.3646 72.3182 48.9744 72.3182C48.4403 72.3182 47.9953 72.4413 47.6392 72.6875C47.2869 72.9299 47.1108 73.2386 47.1108 73.6136C47.1108 73.947 47.232 74.2102 47.4744 74.4034C47.7169 74.5966 48.0956 74.7576 48.6108 74.8864L49.9062 75.2045C50.6866 75.3939 51.268 75.6837 51.6506 76.0739C52.0331 76.4602 52.2244 76.9583 52.2244 77.5682C52.2244 78.0682 52.0805 78.5152 51.7926 78.9091C51.5085 79.303 51.1108 79.6136 50.5994 79.8409C50.0881 80.0682 49.4934 80.1818 48.8153 80.1818C47.9252 80.1818 47.1884 79.9886 46.6051 79.6023C46.0218 79.2159 45.6525 78.6515 45.4972 77.9091L46.7699 77.5909C46.8911 78.0606 47.1203 78.4129 47.4574 78.6477C47.7983 78.8826 48.2434 79 48.7926 79C49.4176 79 49.9138 78.8674 50.2812 78.6023C50.6525 78.3333 50.8381 78.0114 50.8381 77.6364C50.8381 77.3333 50.732 77.0795 50.5199 76.875C50.3078 76.6667 49.982 76.5114 49.5426 76.4091L48.0881 76.0682C47.2888 75.8788 46.7017 75.5852 46.3267 75.1875C45.9555 74.786 45.7699 74.2841 45.7699 73.6818C45.7699 73.1894 45.9081 72.7538 46.1847 72.375C46.465 71.9962 46.8456 71.6989 47.3267 71.483C47.8116 71.267 48.3608 71.1591 48.9744 71.1591C49.8381 71.1591 50.5161 71.3485 51.0085 71.7273C51.5047 72.1061 51.857 72.6061 52.0653 73.2273ZM55.5838 74.75V80H54.2429V68.3636H55.5838V72.6364H55.6974C55.902 72.1856 56.2088 71.8277 56.6179 71.5625C57.0308 71.2936 57.58 71.1591 58.2656 71.1591C58.8603 71.1591 59.3812 71.2784 59.8281 71.517C60.2751 71.7519 60.6217 72.1136 60.8679 72.6023C61.1179 73.0871 61.2429 73.7045 61.2429 74.4545V80H59.902V74.5455C59.902 73.8523 59.7221 73.3163 59.3622 72.9375C59.0062 72.5549 58.5118 72.3636 57.8793 72.3636C57.4399 72.3636 57.0459 72.4564 56.6974 72.642C56.3527 72.8277 56.08 73.0985 55.8793 73.4545C55.6823 73.8106 55.5838 74.2424 55.5838 74.75ZM67.2415 80.1818C66.4536 80.1818 65.7623 79.9943 65.1676 79.6193C64.5767 79.2443 64.1146 78.7197 63.7812 78.0455C63.4517 77.3712 63.2869 76.5833 63.2869 75.6818C63.2869 74.7727 63.4517 73.9792 63.7812 73.3011C64.1146 72.6231 64.5767 72.0966 65.1676 71.7216C65.7623 71.3466 66.4536 71.1591 67.2415 71.1591C68.0294 71.1591 68.7188 71.3466 69.3097 71.7216C69.9044 72.0966 70.3665 72.6231 70.696 73.3011C71.0294 73.9792 71.196 74.7727 71.196 75.6818C71.196 76.5833 71.0294 77.3712 70.696 78.0455C70.3665 78.7197 69.9044 79.2443 69.3097 79.6193C68.7188 79.9943 68.0294 80.1818 67.2415 80.1818ZM67.2415 78.9773C67.84 78.9773 68.3324 78.8239 68.7188 78.517C69.1051 78.2102 69.3911 77.8068 69.5767 77.3068C69.7623 76.8068 69.8551 76.2652 69.8551 75.6818C69.8551 75.0985 69.7623 74.5549 69.5767 74.0511C69.3911 73.5473 69.1051 73.1402 68.7188 72.8295C68.3324 72.5189 67.84 72.3636 67.2415 72.3636C66.643 72.3636 66.1506 72.5189 65.7642 72.8295C65.3778 73.1402 65.0919 73.5473 64.9062 74.0511C64.7206 74.5549 64.6278 75.0985 64.6278 75.6818C64.6278 76.2652 64.7206 76.8068 64.9062 77.3068C65.0919 77.8068 65.3778 78.2102 65.7642 78.517C66.1506 78.8239 66.643 78.9773 67.2415 78.9773ZM73.2429 83.2727V71.2727H74.5384V72.6591H74.6974C74.7959 72.5076 74.9323 72.3144 75.1065 72.0795C75.2846 71.8409 75.5384 71.6288 75.8679 71.4432C76.2012 71.2538 76.652 71.1591 77.2202 71.1591C77.955 71.1591 78.6027 71.3428 79.1634 71.7102C79.724 72.0777 80.1615 72.5985 80.4759 73.2727C80.7902 73.947 80.9474 74.7424 80.9474 75.6591C80.9474 76.5833 80.7902 77.3845 80.4759 78.0625C80.1615 78.7367 79.7259 79.2595 79.169 79.6307C78.6122 79.9981 77.9702 80.1818 77.2429 80.1818C76.6823 80.1818 76.2334 80.089 75.8963 79.9034C75.5592 79.714 75.2997 79.5 75.1179 79.2614C74.9361 79.0189 74.7959 78.8182 74.6974 78.6591H74.5838V83.2727H73.2429ZM74.5611 75.6364C74.5611 76.2955 74.6577 76.8769 74.8509 77.3807C75.044 77.8807 75.3262 78.2727 75.6974 78.5568C76.0687 78.8371 76.5232 78.9773 77.0611 78.9773C77.6217 78.9773 78.0895 78.8295 78.4645 78.5341C78.8433 78.2348 79.1274 77.8333 79.3168 77.3295C79.5099 76.822 79.6065 76.2576 79.6065 75.6364C79.6065 75.0227 79.5118 74.4697 79.3224 73.9773C79.1368 73.4811 78.8546 73.089 78.4759 72.8011C78.1009 72.5095 77.6293 72.3636 77.0611 72.3636C76.5156 72.3636 76.0573 72.5019 75.6861 72.7784C75.3149 73.0511 75.0346 73.4337 74.8452 73.9261C74.6558 74.4148 74.5611 74.9848 74.5611 75.6364Z" fill="black"/>
<path d="M20.8235 1.82349H60.9266V40.8329H20.8235V1.82349Z" fill="#0C0824"/>
<path d="M20.8234 1.82344H60.9266V40.8328H20.8234V1.82344ZM19 42.6562H62.75V0H19V42.6562ZM48.4953 17.5C47.0547 17.5 46.5625 18.2297 46.5625 18.8312C46.5625 19.4875 46.8906 19.9438 48.8234 20.9453C51.6859 22.3313 52.5734 23.6609 52.5734 25.6125C52.5734 28.5297 50.35 30.0969 47.3422 30.0969C46.0513 30.1447 44.7683 29.8765 43.6047 29.3156C43.4766 29.2609 43.4594 29.1703 43.4594 29.0234V26.3406C43.4594 26.1578 43.55 26.1031 43.6781 26.1953C44.7709 26.898 46.0429 27.2712 47.3422 27.2703C48.7828 27.2703 49.3844 26.6687 49.3844 25.8484C49.3844 25.1922 48.9656 24.6094 47.1234 23.6609C44.5344 22.4219 43.4594 21.1609 43.4594 19.0672C43.4594 16.7156 45.3 14.7656 48.4906 14.7656C49.6012 14.7179 50.7103 14.8916 51.7531 15.2766C51.8132 15.3155 51.8618 15.3698 51.8939 15.4338C51.926 15.4978 51.9405 15.5692 51.9359 15.6406V18.1406C51.9359 18.2859 51.8453 18.3781 51.6625 18.3234C50.6987 17.7686 49.6026 17.4851 48.4906 17.5031L48.4953 17.5ZM32.8172 19.6687C33.2359 19.7047 33.5641 19.7047 34.2937 19.7047C36.4266 19.7047 38.4312 18.9578 38.4312 16.0594C38.4312 13.7437 36.9906 12.5781 34.5672 12.5781C33.8375 12.5781 33.1453 12.6141 32.8172 12.6328V19.6687ZM29.5719 9.98125C29.5719 9.85312 29.8266 9.7625 29.9734 9.7625C31.5403 9.69847 33.1084 9.66826 34.6766 9.67188C39.7266 9.67188 41.6953 12.4422 41.6953 15.9797C41.6953 20.6094 38.3406 22.5969 34.2219 22.5969C33.5297 22.5969 33.2922 22.5609 32.8 22.5609V29.5609C32.8 29.7062 32.7453 29.7797 32.5813 29.7797H29.7922C29.6469 29.7797 29.5734 29.725 29.5734 29.5609V9.98906L29.5719 9.98125Z" fill="#31C5F0"/>
</svg>
