<svg width="61" height="83" viewBox="0 0 61 83" fill="none" xmlns="http://www.w3.org/2000/svg">
<path d="M1.77628 80V68.3636H5.7081C6.61719 68.3636 7.3634 68.5189 7.94673 68.8295C8.53007 69.1364 8.96188 69.5587 9.24219 70.0966C9.52249 70.6345 9.66264 71.2462 9.66264 71.9318C9.66264 72.6174 9.52249 73.2254 9.24219 73.7557C8.96188 74.286 8.53196 74.7027 7.95241 75.0057C7.37287 75.3049 6.63234 75.4545 5.73082 75.4545H2.54901V74.1818H5.68537C6.30658 74.1818 6.80658 74.0909 7.18537 73.9091C7.56795 73.7273 7.84446 73.4697 8.01491 73.1364C8.18916 72.7992 8.27628 72.3977 8.27628 71.9318C8.27628 71.4659 8.18916 71.0587 8.01491 70.7102C7.84067 70.3617 7.56226 70.0928 7.17969 69.9034C6.79711 69.7102 6.29143 69.6136 5.66264 69.6136H3.18537V80H1.77628ZM7.25355 74.7727L10.1172 80H8.48082L5.66264 74.7727H7.25355ZM15.3942 80.1818C14.5533 80.1818 13.8279 79.9962 13.218 79.625C12.612 79.25 12.1442 78.7273 11.8146 78.0568C11.4889 77.3826 11.326 76.5985 11.326 75.7045C11.326 74.8106 11.4889 74.0227 11.8146 73.3409C12.1442 72.6553 12.6025 72.1212 13.1896 71.7386C13.7805 71.3523 14.4699 71.1591 15.2578 71.1591C15.7124 71.1591 16.1612 71.2348 16.6044 71.3864C17.0476 71.5379 17.451 71.7841 17.8146 72.125C18.1783 72.4621 18.468 72.9091 18.6839 73.4659C18.8999 74.0227 19.0078 74.7083 19.0078 75.5227V76.0909H12.2805V74.9318H17.6442C17.6442 74.4394 17.5457 74 17.3487 73.6136C17.1555 73.2273 16.879 72.9223 16.5192 72.6989C16.1631 72.4754 15.7427 72.3636 15.2578 72.3636C14.7237 72.3636 14.2616 72.4962 13.8714 72.7614C13.4851 73.0227 13.1877 73.3636 12.9794 73.7841C12.7711 74.2045 12.6669 74.6553 12.6669 75.1364V75.9091C12.6669 76.5682 12.7805 77.1269 13.0078 77.5852C13.2389 78.0398 13.5589 78.3864 13.968 78.625C14.3771 78.8598 14.8525 78.9773 15.3942 78.9773C15.7464 78.9773 16.0646 78.928 16.3487 78.8295C16.6366 78.7273 16.8847 78.5758 17.093 78.375C17.3014 78.1705 17.4624 77.9167 17.576 77.6136L18.8714 77.9773C18.7351 78.4167 18.5059 78.803 18.1839 79.1364C17.862 79.4659 17.4643 79.7235 16.9908 79.9091C16.5173 80.0909 15.9851 80.1818 15.3942 80.1818ZM23.6158 80.2045C23.0627 80.2045 22.5608 80.1004 22.1101 79.892C21.6593 79.6799 21.3014 79.375 21.0362 78.9773C20.7711 78.5758 20.6385 78.0909 20.6385 77.5227C20.6385 77.0227 20.737 76.6174 20.9339 76.3068C21.1309 75.9924 21.3942 75.7462 21.7237 75.5682C22.0533 75.3902 22.4169 75.2576 22.8146 75.1705C23.2161 75.0795 23.6196 75.0076 24.0249 74.9545C24.5552 74.8864 24.9851 74.8352 25.3146 74.8011C25.648 74.7633 25.8904 74.7008 26.0419 74.6136C26.1972 74.5265 26.2749 74.375 26.2749 74.1591V74.1136C26.2749 73.553 26.1214 73.1174 25.8146 72.8068C25.5116 72.4962 25.0514 72.3409 24.4339 72.3409C23.7938 72.3409 23.2919 72.4811 22.9283 72.7614C22.5646 73.0417 22.3089 73.3409 22.1612 73.6591L20.8885 73.2045C21.1158 72.6742 21.4188 72.2614 21.7976 71.9659C22.1802 71.6667 22.5968 71.4583 23.0476 71.3409C23.5021 71.2197 23.9491 71.1591 24.3885 71.1591C24.6688 71.1591 24.9908 71.1932 25.3544 71.2614C25.7218 71.3258 26.076 71.4602 26.4169 71.6648C26.7616 71.8693 27.0476 72.178 27.2749 72.5909C27.5021 73.0038 27.6158 73.5568 27.6158 74.25V80H26.2749V78.8182H26.2067C26.1158 79.0076 25.9643 79.2102 25.7521 79.4261C25.54 79.642 25.2578 79.8258 24.9055 79.9773C24.5533 80.1288 24.1233 80.2045 23.6158 80.2045ZM23.8203 79C24.3506 79 24.7976 78.8958 25.1612 78.6875C25.5286 78.4792 25.8052 78.2102 25.9908 77.8807C26.1802 77.5511 26.2749 77.2045 26.2749 76.8409V75.6136C26.218 75.6818 26.093 75.7443 25.8999 75.8011C25.7105 75.8542 25.4908 75.9015 25.2408 75.9432C24.9946 75.9811 24.754 76.0152 24.5192 76.0455C24.2881 76.072 24.1006 76.0947 23.9567 76.1136C23.6082 76.1591 23.2824 76.233 22.9794 76.3352C22.6802 76.4337 22.4377 76.5833 22.2521 76.7841C22.0703 76.9811 21.9794 77.25 21.9794 77.5909C21.9794 78.0568 22.1518 78.4091 22.4964 78.6477C22.8449 78.8826 23.2862 79 23.8203 79ZM33.6087 80.1818C32.7905 80.1818 32.0859 79.9886 31.495 79.6023C30.9041 79.2159 30.4496 78.6837 30.1314 78.0057C29.8132 77.3277 29.6541 76.553 29.6541 75.6818C29.6541 74.7955 29.817 74.0133 30.1428 73.3352C30.4723 72.6534 30.9306 72.1212 31.5178 71.7386C32.1087 71.3523 32.7981 71.1591 33.5859 71.1591C34.1996 71.1591 34.7526 71.2727 35.245 71.5C35.7375 71.7273 36.1409 72.0455 36.4553 72.4545C36.7696 72.8636 36.9647 73.3409 37.0405 73.8864H35.6996C35.5973 73.4886 35.37 73.1364 35.0178 72.8295C34.6693 72.5189 34.1996 72.3636 33.6087 72.3636C33.0859 72.3636 32.6276 72.5 32.2337 72.7727C31.8435 73.0417 31.5386 73.4223 31.3189 73.9148C31.103 74.4034 30.995 74.9773 30.995 75.6364C30.995 76.3106 31.1011 76.8977 31.3132 77.3977C31.5291 77.8977 31.8321 78.286 32.2223 78.5625C32.6162 78.839 33.0784 78.9773 33.6087 78.9773C33.9571 78.9773 34.2734 78.9167 34.5575 78.7955C34.8416 78.6742 35.0821 78.5 35.2791 78.2727C35.4761 78.0455 35.6162 77.7727 35.6996 77.4545H37.0405C36.9647 77.9697 36.7772 78.4337 36.478 78.8466C36.1825 79.2557 35.7905 79.5814 35.3018 79.8239C34.817 80.0625 34.2526 80.1818 33.6087 80.1818ZM42.7962 71.2727V72.4091H38.2734V71.2727H42.7962ZM39.5916 69.1818H40.9325V77.5C40.9325 77.8788 40.9875 78.1629 41.0973 78.3523C41.2109 78.5379 41.3549 78.6629 41.5291 78.7273C41.7071 78.7879 41.8946 78.8182 42.0916 78.8182C42.2393 78.8182 42.3606 78.8106 42.4553 78.7955C42.55 78.7765 42.6257 78.7614 42.6825 78.75L42.9553 79.9545C42.8643 79.9886 42.7375 80.0227 42.5746 80.0568C42.4117 80.0947 42.2053 80.1136 41.9553 80.1136C41.5765 80.1136 41.2053 80.0322 40.8416 79.8693C40.4818 79.7064 40.1825 79.4583 39.9439 79.125C39.709 78.7917 39.5916 78.3712 39.5916 77.8636V69.1818ZM49.4496 68.3636H50.8587V76.6818C50.8587 77.4242 50.7223 78.0549 50.4496 78.5739C50.1768 79.0928 49.7924 79.4867 49.2962 79.7557C48.8 80.0246 48.2147 80.1591 47.5405 80.1591C46.9041 80.1591 46.3378 80.0436 45.8416 79.8125C45.3454 79.5777 44.9553 79.2443 44.6712 78.8125C44.3871 78.3807 44.245 77.8674 44.245 77.2727H45.6314C45.6314 77.6023 45.7128 77.8902 45.8757 78.1364C46.0424 78.3788 46.2696 78.5682 46.5575 78.7045C46.8454 78.8409 47.1731 78.9091 47.5405 78.9091C47.9458 78.9091 48.2905 78.8239 48.5746 78.6534C48.8587 78.483 49.0746 78.233 49.2223 77.9034C49.3738 77.5701 49.4496 77.1629 49.4496 76.6818V68.3636ZM59.6825 73.2273L58.478 73.5682C58.4022 73.3674 58.2905 73.1723 58.1428 72.983C57.9988 72.7898 57.8018 72.6307 57.5518 72.5057C57.3018 72.3807 56.9818 72.3182 56.5916 72.3182C56.0575 72.3182 55.6125 72.4413 55.2564 72.6875C54.9041 72.9299 54.728 73.2386 54.728 73.6136C54.728 73.947 54.8492 74.2102 55.0916 74.4034C55.334 74.5966 55.7128 74.7576 56.228 74.8864L57.5234 75.2045C58.3037 75.3939 58.8852 75.6837 59.2678 76.0739C59.6503 76.4602 59.8416 76.9583 59.8416 77.5682C59.8416 78.0682 59.6977 78.5152 59.4098 78.9091C59.1257 79.303 58.728 79.6136 58.2166 79.8409C57.7053 80.0682 57.1106 80.1818 56.4325 80.1818C55.5424 80.1818 54.8056 79.9886 54.2223 79.6023C53.639 79.2159 53.2696 78.6515 53.1143 77.9091L54.3871 77.5909C54.5083 78.0606 54.7375 78.4129 55.0746 78.6477C55.4155 78.8826 55.8606 79 56.4098 79C57.0348 79 57.531 78.8674 57.8984 78.6023C58.2696 78.3333 58.4553 78.0114 58.4553 77.6364C58.4553 77.3333 58.3492 77.0795 58.1371 76.875C57.925 76.6667 57.5992 76.5114 57.1598 76.4091L55.7053 76.0682C54.906 75.8788 54.3189 75.5852 53.9439 75.1875C53.5727 74.786 53.3871 74.2841 53.3871 73.6818C53.3871 73.1894 53.5253 72.7538 53.8018 72.375C54.0821 71.9962 54.4628 71.6989 54.9439 71.483C55.4287 71.267 55.978 71.1591 56.5916 71.1591C57.4553 71.1591 58.1333 71.3485 58.6257 71.7273C59.1219 72.1061 59.4742 72.6061 59.6825 73.2273Z" fill="black"/>
<path d="M48.1586 16.1894C47.5611 15.9844 46.9586 15.7945 46.3515 15.6199C46.4535 15.2032 46.5474 14.7916 46.6307 14.3872C47.9987 7.74667 47.1044 2.39689 44.0498 0.635488C41.1211 -1.05311 36.3314 0.707637 31.4941 4.91751C31.0173 5.33315 30.5512 5.76077 30.0961 6.19996C29.7914 5.90791 29.4813 5.62153 29.166 5.34097C24.0963 0.839655 19.0147 -1.05749 15.9634 0.708953C13.0373 2.40281 12.1708 7.43198 13.4024 13.7254C13.5249 14.3487 13.6633 14.9688 13.8173 15.585C13.098 15.7894 12.4039 16.007 11.7397 16.2386C5.79583 18.3109 2 21.5585 2 24.9272C2 28.4063 6.075 31.896 12.2658 34.012C12.7677 34.1829 13.2738 34.3412 13.7836 34.4868C13.618 35.1505 13.471 35.8188 13.3428 36.4907C12.1686 42.675 13.0855 47.5853 16.0037 49.2684C19.0178 51.0065 24.0765 49.2201 29.0022 44.9142C29.4016 44.5641 29.7922 44.2042 30.1737 43.8346C30.6666 44.3102 31.1726 44.7719 31.6912 45.2193C36.4627 49.325 41.175 50.9829 44.0904 49.2951C47.1015 47.5519 48.0803 42.2769 46.8097 35.8592C46.7096 35.3564 46.5973 34.8561 46.473 34.3587C46.8283 34.2535 47.177 34.1451 47.5169 34.0324C53.9529 31.9002 58.1404 28.4528 58.1404 24.9272C58.1404 21.5462 54.2219 18.2767 48.1586 16.1894ZM46.7627 31.7561C46.4557 31.8576 46.1408 31.9557 45.8197 32.0511C45.1092 29.8017 44.1504 27.41 42.977 24.9388C44.0967 22.5265 45.0186 20.1653 45.7092 17.9307C46.2836 18.0969 46.8408 18.2721 47.3781 18.457C52.5732 20.2456 55.7421 22.8897 55.7421 24.9272C55.7421 27.0973 52.3197 29.9147 46.7627 31.7561ZM44.457 36.325C45.0189 39.1627 45.0989 41.7285 44.7268 43.7344C44.3925 45.5368 43.7202 46.7383 42.8886 47.2197C41.1195 48.2438 37.336 46.9127 33.2555 43.4013C32.7731 42.9853 32.3024 42.5561 31.8439 42.114C33.4259 40.3839 35.0068 38.3728 36.5498 36.139C39.2638 35.8982 41.8279 35.5043 44.1531 34.9668C44.2651 35.4171 44.3664 35.8699 44.457 36.325ZM21.1395 47.0427C19.411 47.653 18.0342 47.6706 17.202 47.1908C15.4311 46.1695 14.695 42.2267 15.6991 36.9381C15.8185 36.3132 15.9552 35.6917 16.109 35.0743C18.4086 35.5831 20.9539 35.9489 23.6743 36.1695C25.2278 38.3552 26.8544 40.3642 28.4936 42.1234C28.1453 42.4605 27.7887 42.789 27.4241 43.1085C25.2458 45.0125 23.0632 46.3633 21.1395 47.0427ZM13.0417 31.7427C10.3042 30.807 8.04342 29.591 6.49386 28.264C5.10132 27.0717 4.39846 25.8877 4.39846 24.9272C4.39846 22.8829 7.44605 20.2754 12.5292 18.5033C13.1461 18.2883 13.7917 18.0855 14.4616 17.8951C15.1643 20.1802 16.0857 22.5695 17.1978 24.9855C16.0713 27.4372 15.1366 29.8647 14.4272 32.1767C13.9619 32.0434 13.4999 31.8987 13.0417 31.7427ZM15.7561 13.2647C14.7011 7.87277 15.4018 3.80544 17.1651 2.78461C19.0432 1.69733 23.1963 3.24755 27.5737 7.13439C27.8591 7.38842 28.1399 7.6476 28.416 7.9118C26.7849 9.66334 25.1732 11.6574 23.6336 13.8302C20.9932 14.075 18.4658 14.4679 16.1421 14.9945C15.9989 14.4213 15.8702 13.8446 15.7561 13.2649V13.2647ZM39.9726 19.2445C39.4237 18.2964 38.8545 17.3603 38.2654 16.4368C40.0566 16.6633 41.7728 16.964 43.3844 17.3315C42.9007 18.8824 42.2976 20.5037 41.5877 22.166C41.0688 21.1815 40.5304 20.2075 39.9726 19.2445ZM30.0971 9.62584C31.2033 10.8243 32.3112 12.1622 33.4009 13.614C31.1904 13.5096 28.9761 13.5092 26.7656 13.6127C27.8564 12.1743 28.9737 10.8381 30.0971 9.62584ZM20.1583 19.2609C19.6075 20.2162 19.0791 21.1841 18.5735 22.164C17.8752 20.5076 17.2776 18.8789 16.7897 17.3061C18.3914 16.9478 20.0996 16.6548 21.8794 16.4324C21.2836 17.3616 20.7098 18.3046 20.1583 19.2607V19.2609ZM21.9305 33.5925C20.0917 33.3872 18.3579 33.1094 16.7566 32.7607C17.2522 31.1598 17.8629 29.4965 18.5763 27.8046C19.084 28.7852 19.6146 29.7537 20.1678 30.7094C20.7366 31.6918 21.3257 32.6541 21.9305 33.5925ZM30.1634 40.3973C29.0265 39.171 27.8928 37.8142 26.7855 36.355C27.8605 36.3971 28.9564 36.4186 30.0702 36.4186C31.2145 36.4186 32.3456 36.3929 33.459 36.3434C32.3658 37.8289 31.2621 39.1877 30.1634 40.3973ZM41.6103 27.7182C42.3607 29.4287 42.9932 31.0833 43.4954 32.6568C41.8678 33.0282 40.1103 33.3274 38.2586 33.5495C38.8519 32.6088 39.4265 31.6565 39.982 30.6929C40.5468 29.7136 41.0897 28.7217 41.6103 27.7182ZM37.9046 29.4947C37.0542 30.972 36.156 32.4212 35.2114 33.8401C33.5003 33.9613 31.7855 34.0215 30.0702 34.0206C28.323 34.0206 26.6237 33.9662 24.9873 33.86C24.018 32.4444 23.1027 30.9927 22.2432 29.5079H22.2434C21.388 28.0309 20.5889 26.522 19.848 24.9844C20.5871 23.4464 21.3837 21.9368 22.2362 20.4587L22.236 20.459C23.0882 18.9805 23.9962 17.5349 24.9581 16.1254C26.6276 15.9991 28.3397 15.9333 30.07 15.9333H30.0702C31.8083 15.9333 33.5226 15.9997 35.1917 16.1269C36.1439 17.5344 37.0461 18.9749 37.8967 20.446C38.7521 21.9208 39.5592 23.4231 40.3169 24.9504C39.567 26.4933 38.7624 28.0091 37.9046 29.4947ZM42.852 2.71312C44.7318 3.79733 45.4629 8.16948 44.2818 13.903C44.2064 14.2688 44.1217 14.6414 44.0296 15.0193C41.7002 14.4815 39.1711 14.0818 36.523 13.8333C34.9805 11.6366 33.382 9.63943 31.7774 7.91049C32.1979 7.50512 32.6285 7.11026 33.0686 6.72628C37.2134 3.11948 41.0871 1.69536 42.852 2.71312ZM30.0702 19.914C32.8388 19.914 35.0833 22.1585 35.0833 24.9272C35.0833 27.6958 32.8388 29.9403 30.0702 29.9403C27.3015 29.9403 25.057 27.6958 25.057 24.9272C25.057 22.1585 27.3015 19.914 30.0702 19.914Z" fill="#00D8FF"/>
</svg>
