<svg width="94" height="83" viewBox="0 0 94 83" fill="none" xmlns="http://www.w3.org/2000/svg">
<path d="M0.858665 69.6136V68.3636H9.58594V69.6136H5.92685V80H4.51776V69.6136H0.858665ZM12.9595 80.2045C12.4065 80.2045 11.9046 80.1004 11.4538 79.892C11.0031 79.6799 10.6451 79.375 10.38 78.9773C10.1148 78.5758 9.98224 78.0909 9.98224 77.5227C9.98224 77.0227 10.0807 76.6174 10.2777 76.3068C10.4747 75.9924 10.7379 75.7462 11.0675 75.5682C11.397 75.3902 11.7607 75.2576 12.1584 75.1705C12.5599 75.0795 12.9633 75.0076 13.3686 74.9545C13.8989 74.8864 14.3288 74.8352 14.6584 74.8011C14.9917 74.7633 15.2341 74.7008 15.3857 74.6136C15.541 74.5265 15.6186 74.375 15.6186 74.1591V74.1136C15.6186 73.553 15.4652 73.1174 15.1584 72.8068C14.8554 72.4962 14.3951 72.3409 13.7777 72.3409C13.1375 72.3409 12.6357 72.4811 12.272 72.7614C11.9084 73.0417 11.6527 73.3409 11.505 73.6591L10.2322 73.2045C10.4595 72.6742 10.7625 72.2614 11.1413 71.9659C11.5239 71.6667 11.9406 71.4583 12.3913 71.3409C12.8459 71.2197 13.2929 71.1591 13.7322 71.1591C14.0125 71.1591 14.3345 71.1932 14.6982 71.2614C15.0656 71.3258 15.4197 71.4602 15.7607 71.6648C16.1054 71.8693 16.3913 72.178 16.6186 72.5909C16.8459 73.0038 16.9595 73.5568 16.9595 74.25V80H15.6186V78.8182H15.5504C15.4595 79.0076 15.308 79.2102 15.0959 79.4261C14.8838 79.642 14.6016 79.8258 14.2493 79.9773C13.897 80.1288 13.4671 80.2045 12.9595 80.2045ZM13.1641 79C13.6944 79 14.1413 78.8958 14.505 78.6875C14.8724 78.4792 15.1489 78.2102 15.3345 77.8807C15.5239 77.5511 15.6186 77.2045 15.6186 76.8409V75.6136C15.5618 75.6818 15.4368 75.7443 15.2436 75.8011C15.0542 75.8542 14.8345 75.9015 14.5845 75.9432C14.3383 75.9811 14.0978 76.0152 13.8629 76.0455C13.6319 76.072 13.4444 76.0947 13.3004 76.1136C12.9519 76.1591 12.6262 76.233 12.3232 76.3352C12.0239 76.4337 11.7815 76.5833 11.5959 76.7841C11.4141 76.9811 11.3232 77.25 11.3232 77.5909C11.3232 78.0568 11.4955 78.4091 11.8402 78.6477C12.1887 78.8826 12.63 79 13.1641 79ZM19.407 80V71.2727H20.7479V80H19.407ZM20.0888 69.8182C19.8274 69.8182 19.602 69.7292 19.4126 69.5511C19.227 69.3731 19.1342 69.1591 19.1342 68.9091C19.1342 68.6591 19.227 68.4451 19.4126 68.267C19.602 68.089 19.8274 68 20.0888 68C20.3501 68 20.5736 68.089 20.7592 68.267C20.9486 68.4451 21.0433 68.6591 21.0433 68.9091C21.0433 69.1591 20.9486 69.3731 20.7592 69.5511C20.5736 69.7292 20.3501 69.8182 20.0888 69.8182ZM24.5447 68.3636V80H23.2038V68.3636H24.5447ZM28.978 80L26.3189 71.2727H27.728L29.6143 77.9545H29.7053L31.5689 71.2727H33.0007L34.8416 77.9318H34.9325L36.8189 71.2727H38.228L35.5689 80H34.2507L32.3416 73.2955H32.2053L30.2962 80H28.978ZM40.0007 80V71.2727H41.3416V80H40.0007ZM40.6825 69.8182C40.4212 69.8182 40.1958 69.7292 40.0064 69.5511C39.8208 69.3731 39.728 69.1591 39.728 68.9091C39.728 68.6591 39.8208 68.4451 40.0064 68.267C40.1958 68.089 40.4212 68 40.6825 68C40.9439 68 41.1674 68.089 41.353 68.267C41.5424 68.4451 41.6371 68.6591 41.6371 68.9091C41.6371 69.1591 41.5424 69.3731 41.353 69.5511C41.1674 69.7292 40.9439 69.8182 40.6825 69.8182ZM45.1385 74.75V80H43.7976V71.2727H45.093V72.6364H45.2067C45.4112 72.1932 45.7218 71.8371 46.1385 71.5682C46.5552 71.2955 47.093 71.1591 47.7521 71.1591C48.343 71.1591 48.8601 71.2803 49.3033 71.5227C49.7464 71.7614 50.0911 72.125 50.3374 72.6136C50.5836 73.0985 50.7067 73.7121 50.7067 74.4545V80H49.3658V74.5455C49.3658 73.8598 49.1877 73.3258 48.8317 72.9432C48.4756 72.5568 47.987 72.3636 47.3658 72.3636C46.9377 72.3636 46.5552 72.4564 46.218 72.642C45.8847 72.8277 45.6214 73.0985 45.4283 73.4545C45.2351 73.8106 45.1385 74.2424 45.1385 74.75ZM56.4524 80.1818C55.7251 80.1818 55.0831 79.9981 54.5263 79.6307C53.9695 79.2595 53.5339 78.7367 53.2195 78.0625C52.9051 77.3845 52.7479 76.5833 52.7479 75.6591C52.7479 74.7424 52.9051 73.947 53.2195 73.2727C53.5339 72.5985 53.9714 72.0777 54.532 71.7102C55.0926 71.3428 55.7403 71.1591 56.4751 71.1591C57.0433 71.1591 57.4922 71.2538 57.8217 71.4432C58.1551 71.6288 58.4089 71.8409 58.5831 72.0795C58.7611 72.3144 58.8994 72.5076 58.9979 72.6591H59.1115V68.3636H60.4524V80H59.157V78.6591H58.9979C58.8994 78.8182 58.7592 79.0189 58.5774 79.2614C58.3956 79.5 58.1361 79.714 57.799 79.9034C57.4619 80.089 57.013 80.1818 56.4524 80.1818ZM56.6342 78.9773C57.1721 78.9773 57.6267 78.8371 57.9979 78.5568C58.3691 78.2727 58.6513 77.8807 58.8445 77.3807C59.0376 76.8769 59.1342 76.2955 59.1342 75.6364C59.1342 74.9848 59.0395 74.4148 58.8501 73.9261C58.6607 73.4337 58.3804 73.0511 58.0092 72.7784C57.638 72.5019 57.1797 72.3636 56.6342 72.3636C56.0661 72.3636 55.5926 72.5095 55.2138 72.8011C54.8388 73.089 54.5566 73.4811 54.3672 73.9773C54.1816 74.4697 54.0888 75.0227 54.0888 75.6364C54.0888 76.2576 54.1835 76.822 54.3729 77.3295C54.5661 77.8333 54.8501 78.2348 55.2251 78.5341C55.6039 78.8295 56.0736 78.9773 56.6342 78.9773ZM72.6399 72H71.2308C71.1475 71.5947 71.0017 71.2386 70.7933 70.9318C70.5888 70.625 70.3388 70.3674 70.0433 70.1591C69.7517 69.947 69.4278 69.7879 69.0717 69.6818C68.7157 69.5758 68.3445 69.5227 67.9581 69.5227C67.2536 69.5227 66.6153 69.7008 66.0433 70.0568C65.4751 70.4129 65.0225 70.9375 64.6854 71.6307C64.352 72.3239 64.1854 73.1742 64.1854 74.1818C64.1854 75.1894 64.352 76.0398 64.6854 76.733C65.0225 77.4261 65.4751 77.9508 66.0433 78.3068C66.6153 78.6629 67.2536 78.8409 67.9581 78.8409C68.3445 78.8409 68.7157 78.7879 69.0717 78.6818C69.4278 78.5758 69.7517 78.4186 70.0433 78.2102C70.3388 77.9981 70.5888 77.7386 70.7933 77.4318C71.0017 77.1212 71.1475 76.7652 71.2308 76.3636H72.6399C72.5339 76.9583 72.3407 77.4905 72.0604 77.9602C71.7801 78.4299 71.4316 78.8295 71.0149 79.1591C70.5982 79.4848 70.1304 79.733 69.6115 79.9034C69.0964 80.0739 68.5452 80.1591 67.9581 80.1591C66.9657 80.1591 66.0831 79.9167 65.3104 79.4318C64.5376 78.947 63.9297 78.2576 63.4865 77.3636C63.0433 76.4697 62.8217 75.4091 62.8217 74.1818C62.8217 72.9545 63.0433 71.8939 63.4865 71C63.9297 70.1061 64.5376 69.4167 65.3104 68.9318C66.0831 68.447 66.9657 68.2045 67.9581 68.2045C68.5452 68.2045 69.0964 68.2898 69.6115 68.4602C70.1304 68.6307 70.5982 68.8807 71.0149 69.2102C71.4316 69.536 71.7801 69.9337 72.0604 70.4034C72.3407 70.8693 72.5339 71.4015 72.6399 72ZM81.2805 71.2727C81.2124 70.697 80.9358 70.25 80.451 69.9318C79.9661 69.6136 79.3714 69.4545 78.6669 69.4545C78.1518 69.4545 77.701 69.5379 77.3146 69.7045C76.9321 69.8712 76.6328 70.1004 76.4169 70.392C76.2048 70.6837 76.0987 71.0152 76.0987 71.3864C76.0987 71.697 76.1726 71.964 76.3203 72.1875C76.4718 72.4072 76.665 72.5909 76.8999 72.7386C77.1347 72.8826 77.3809 73.0019 77.6385 73.0966C77.8961 73.1875 78.1328 73.2614 78.3487 73.3182L79.5305 73.6364C79.8336 73.7159 80.1707 73.8258 80.5419 73.9659C80.9169 74.1061 81.2749 74.2973 81.6158 74.5398C81.9605 74.7784 82.2446 75.0852 82.468 75.4602C82.6915 75.8352 82.8033 76.2955 82.8033 76.8409C82.8033 77.4697 82.6385 78.0379 82.3089 78.5455C81.9832 79.053 81.5059 79.4564 80.8771 79.7557C80.2521 80.0549 79.4927 80.2045 78.5987 80.2045C77.7654 80.2045 77.0438 80.0701 76.4339 79.8011C75.8279 79.5322 75.3506 79.1572 75.0021 78.6761C74.6574 78.1951 74.4624 77.6364 74.4169 77H75.8714C75.9093 77.4394 76.0571 77.803 76.3146 78.0909C76.576 78.375 76.9055 78.5871 77.3033 78.7273C77.7048 78.8636 78.1366 78.9318 78.5987 78.9318C79.1366 78.9318 79.6196 78.8447 80.0476 78.6705C80.4756 78.4924 80.8146 78.2462 81.0646 77.9318C81.3146 77.6136 81.4396 77.2424 81.4396 76.8182C81.4396 76.4318 81.3317 76.1174 81.1158 75.875C80.8999 75.6326 80.6158 75.4356 80.2635 75.2841C79.9112 75.1326 79.5305 75 79.1214 74.8864L77.6896 74.4773C76.7805 74.2159 76.0608 73.8428 75.5305 73.358C75.0002 72.8731 74.7351 72.2386 74.7351 71.4545C74.7351 70.803 74.9112 70.2348 75.2635 69.75C75.6196 69.2614 76.0968 68.8826 76.6953 68.6136C77.2976 68.3409 77.9699 68.2045 78.7124 68.2045C79.4624 68.2045 80.129 68.339 80.7124 68.608C81.2957 68.8731 81.7578 69.2367 82.0987 69.6989C82.4434 70.161 82.6252 70.6856 82.6442 71.2727H81.2805ZM91.4837 71.2727C91.4155 70.697 91.139 70.25 90.6541 69.9318C90.1693 69.6136 89.5746 69.4545 88.87 69.4545C88.3549 69.4545 87.9041 69.5379 87.5178 69.7045C87.1352 69.8712 86.8359 70.1004 86.62 70.392C86.4079 70.6837 86.3018 71.0152 86.3018 71.3864C86.3018 71.697 86.3757 71.964 86.5234 72.1875C86.675 72.4072 86.8681 72.5909 87.103 72.7386C87.3378 72.8826 87.584 73.0019 87.8416 73.0966C88.0992 73.1875 88.3359 73.2614 88.5518 73.3182L89.7337 73.6364C90.0367 73.7159 90.3738 73.8258 90.745 73.9659C91.12 74.1061 91.478 74.2973 91.8189 74.5398C92.1636 74.7784 92.4477 75.0852 92.6712 75.4602C92.8947 75.8352 93.0064 76.2955 93.0064 76.8409C93.0064 77.4697 92.8416 78.0379 92.5121 78.5455C92.1863 79.053 91.709 79.4564 91.0803 79.7557C90.4553 80.0549 89.6958 80.2045 88.8018 80.2045C87.9685 80.2045 87.2469 80.0701 86.6371 79.8011C86.031 79.5322 85.5537 79.1572 85.2053 78.6761C84.8606 78.1951 84.6655 77.6364 84.62 77H86.0746C86.1125 77.4394 86.2602 77.803 86.5178 78.0909C86.7791 78.375 87.1087 78.5871 87.5064 78.7273C87.9079 78.8636 88.3397 78.9318 88.8018 78.9318C89.3397 78.9318 89.8227 78.8447 90.2507 78.6705C90.6787 78.4924 91.0178 78.2462 91.2678 77.9318C91.5178 77.6136 91.6428 77.2424 91.6428 76.8182C91.6428 76.4318 91.5348 76.1174 91.3189 75.875C91.103 75.6326 90.8189 75.4356 90.4666 75.2841C90.1143 75.1326 89.7337 75 89.3246 74.8864L87.8928 74.4773C86.9837 74.2159 86.264 73.8428 85.7337 73.358C85.2034 72.8731 84.9382 72.2386 84.9382 71.4545C84.9382 70.803 85.1143 70.2348 85.4666 69.75C85.8227 69.2614 86.3 68.8826 86.8984 68.6136C87.5007 68.3409 88.1731 68.2045 88.9155 68.2045C89.6655 68.2045 90.3321 68.339 90.9155 68.608C91.4988 68.8731 91.9609 69.2367 92.3018 69.6989C92.6465 70.161 92.8284 70.6856 92.8473 71.2727H91.4837Z" fill="black"/>
<path d="M46.5584 0C35.4763 0 28.5497 5.54123 25.7792 16.6234C29.9351 11.0821 34.7834 9.00422 40.3247 10.3896C43.486 11.1799 45.7458 13.4737 48.2471 16.0123C52.3218 20.1484 57.0373 24.9351 67.3377 24.9351C78.4198 24.9351 85.3464 19.3938 88.1169 8.31169C83.961 13.8529 79.1127 15.9308 73.5714 14.5455C70.4101 13.7552 68.1503 11.4614 65.649 8.92273C61.5743 4.78669 56.8588 0 46.5584 0ZM25.7792 24.9351C14.6971 24.9351 7.77045 30.4763 5 41.5584C9.15584 36.0172 14.0042 33.9393 19.5455 35.3247C22.7068 36.1149 24.9666 38.4088 27.4679 40.9474C31.5425 45.0834 36.2581 49.8701 46.5584 49.8701C57.6406 49.8701 64.5672 44.3289 67.3377 33.2468C63.1818 38.788 58.3334 40.8659 52.7922 39.4805C49.6308 38.6903 47.3711 36.3964 44.8698 33.8578C40.7951 29.7218 36.0795 24.9351 25.7792 24.9351Z" fill="url(#paint0_linear_82_41)"/>
<defs>
<linearGradient id="paint0_linear_82_41" x1="2.69101" y1="15.9584" x2="74.476" y2="57.3484" gradientUnits="userSpaceOnUse">
<stop stop-color="#2298BD"/>
<stop offset="1" stop-color="#0ED7B5"/>
</linearGradient>
</defs>
</svg>
