<svg width="80" height="79" viewBox="0 0 80 79" fill="none" xmlns="http://www.w3.org/2000/svg">
<path d="M0.850852 64.6136V63.3636H9.57812V64.6136H5.91903V75H4.50994V64.6136H0.850852ZM11.4347 78.2727C11.2074 78.2727 11.0047 78.2538 10.8267 78.2159C10.6487 78.1818 10.5256 78.1477 10.4574 78.1136L10.7983 76.9318C11.1241 77.0152 11.4119 77.0455 11.6619 77.0227C11.9119 77 12.1335 76.8883 12.3267 76.6875C12.5237 76.4905 12.7036 76.1705 12.8665 75.7273L13.1165 75.0455L9.8892 66.2727H11.3438L13.7528 73.2273H13.8438L16.2528 66.2727H17.7074L14.0028 76.2727C13.8362 76.7235 13.6297 77.0966 13.3835 77.392C13.1373 77.6913 12.8513 77.9129 12.5256 78.0568C12.2036 78.2008 11.84 78.2727 11.4347 78.2727ZM19.4773 78.2727V66.2727H20.7727V67.6591H20.9318C21.0303 67.5076 21.1667 67.3144 21.3409 67.0795C21.5189 66.8409 21.7727 66.6288 22.1023 66.4432C22.4356 66.2538 22.8864 66.1591 23.4545 66.1591C24.1894 66.1591 24.8371 66.3428 25.3977 66.7102C25.9583 67.0777 26.3958 67.5985 26.7102 68.2727C27.0246 68.947 27.1818 69.7424 27.1818 70.6591C27.1818 71.5833 27.0246 72.3845 26.7102 73.0625C26.3958 73.7367 25.9602 74.2595 25.4034 74.6307C24.8466 74.9981 24.2045 75.1818 23.4773 75.1818C22.9167 75.1818 22.4678 75.089 22.1307 74.9034C21.7936 74.714 21.5341 74.5 21.3523 74.2614C21.1705 74.0189 21.0303 73.8182 20.9318 73.6591H20.8182V78.2727H19.4773ZM20.7955 70.6364C20.7955 71.2955 20.892 71.8769 21.0852 72.3807C21.2784 72.8807 21.5606 73.2727 21.9318 73.5568C22.303 73.8371 22.7576 73.9773 23.2955 73.9773C23.8561 73.9773 24.3239 73.8295 24.6989 73.5341C25.0777 73.2348 25.3617 72.8333 25.5511 72.3295C25.7443 71.822 25.8409 71.2576 25.8409 70.6364C25.8409 70.0227 25.7462 69.4697 25.5568 68.9773C25.3712 68.4811 25.089 68.089 24.7102 67.8011C24.3352 67.5095 23.8636 67.3636 23.2955 67.3636C22.75 67.3636 22.2917 67.5019 21.9205 67.7784C21.5492 68.0511 21.2689 68.4337 21.0795 68.9261C20.8902 69.4148 20.7955 69.9848 20.7955 70.6364ZM32.8864 75.1818C32.0455 75.1818 31.3201 74.9962 30.7102 74.625C30.1042 74.25 29.6364 73.7273 29.3068 73.0568C28.9811 72.3826 28.8182 71.5985 28.8182 70.7045C28.8182 69.8106 28.9811 69.0227 29.3068 68.3409C29.6364 67.6553 30.0947 67.1212 30.6818 66.7386C31.2727 66.3523 31.9621 66.1591 32.75 66.1591C33.2045 66.1591 33.6534 66.2348 34.0966 66.3864C34.5398 66.5379 34.9432 66.7841 35.3068 67.125C35.6705 67.4621 35.9602 67.9091 36.1761 68.4659C36.392 69.0227 36.5 69.7083 36.5 70.5227V71.0909H29.7727V69.9318H35.1364C35.1364 69.4394 35.0379 69 34.8409 68.6136C34.6477 68.2273 34.3712 67.9223 34.0114 67.6989C33.6553 67.4754 33.2348 67.3636 32.75 67.3636C32.2159 67.3636 31.7538 67.4962 31.3636 67.7614C30.9773 68.0227 30.6799 68.3636 30.4716 68.7841C30.2633 69.2045 30.1591 69.6553 30.1591 70.1364V70.9091C30.1591 71.5682 30.2727 72.1269 30.5 72.5852C30.7311 73.0398 31.0511 73.3864 31.4602 73.625C31.8693 73.8598 32.3447 73.9773 32.8864 73.9773C33.2386 73.9773 33.5568 73.928 33.8409 73.8295C34.1288 73.7273 34.3769 73.5758 34.5852 73.375C34.7936 73.1705 34.9545 72.9167 35.0682 72.6136L36.3636 72.9773C36.2273 73.4167 35.9981 73.803 35.6761 74.1364C35.3542 74.4659 34.9564 74.7235 34.483 74.9091C34.0095 75.0909 33.4773 75.1818 32.8864 75.1818ZM44.7216 68.2273L43.517 68.5682C43.4413 68.3674 43.3295 68.1723 43.1818 67.983C43.0379 67.7898 42.8409 67.6307 42.5909 67.5057C42.3409 67.3807 42.0208 67.3182 41.6307 67.3182C41.0966 67.3182 40.6515 67.4413 40.2955 67.6875C39.9432 67.9299 39.767 68.2386 39.767 68.6136C39.767 68.947 39.8883 69.2102 40.1307 69.4034C40.3731 69.5966 40.7519 69.7576 41.267 69.8864L42.5625 70.2045C43.3428 70.3939 43.9242 70.6837 44.3068 71.0739C44.6894 71.4602 44.8807 71.9583 44.8807 72.5682C44.8807 73.0682 44.7367 73.5152 44.4489 73.9091C44.1648 74.303 43.767 74.6136 43.2557 74.8409C42.7443 75.0682 42.1496 75.1818 41.4716 75.1818C40.5814 75.1818 39.8447 74.9886 39.2614 74.6023C38.678 74.2159 38.3087 73.6515 38.1534 72.9091L39.4261 72.5909C39.5473 73.0606 39.7765 73.4129 40.1136 73.6477C40.4545 73.8826 40.8996 74 41.4489 74C42.0739 74 42.5701 73.8674 42.9375 73.6023C43.3087 73.3333 43.4943 73.0114 43.4943 72.6364C43.4943 72.3333 43.3883 72.0795 43.1761 71.875C42.964 71.6667 42.6383 71.5114 42.1989 71.4091L40.7443 71.0682C39.9451 70.8788 39.358 70.5852 38.983 70.1875C38.6117 69.786 38.4261 69.2841 38.4261 68.6818C38.4261 68.1894 38.5644 67.7538 38.8409 67.375C39.1212 66.9962 39.5019 66.6989 39.983 66.483C40.4678 66.267 41.017 66.1591 41.6307 66.1591C42.4943 66.1591 43.1723 66.3485 43.6648 66.7273C44.161 67.1061 44.5133 67.6061 44.7216 68.2273ZM50.4446 75.1818C49.6264 75.1818 48.9219 74.9886 48.331 74.6023C47.7401 74.2159 47.2855 73.6837 46.9673 73.0057C46.6491 72.3277 46.4901 71.553 46.4901 70.6818C46.4901 69.7955 46.6529 69.0133 46.9787 68.3352C47.3082 67.6534 47.7666 67.1212 48.3537 66.7386C48.9446 66.3523 49.634 66.1591 50.4219 66.1591C51.0355 66.1591 51.5885 66.2727 52.081 66.5C52.5734 66.7273 52.9768 67.0455 53.2912 67.4545C53.6056 67.8636 53.8007 68.3409 53.8764 68.8864H52.5355C52.4332 68.4886 52.206 68.1364 51.8537 67.8295C51.5052 67.5189 51.0355 67.3636 50.4446 67.3636C49.9219 67.3636 49.4635 67.5 49.0696 67.7727C48.6795 68.0417 48.3745 68.4223 48.1548 68.9148C47.9389 69.4034 47.831 69.9773 47.831 70.6364C47.831 71.3106 47.937 71.8977 48.1491 72.3977C48.3651 72.8977 48.6681 73.286 49.0582 73.5625C49.4522 73.839 49.9143 73.9773 50.4446 73.9773C50.7931 73.9773 51.1094 73.9167 51.3935 73.7955C51.6776 73.6742 51.9181 73.5 52.1151 73.2727C52.312 73.0455 52.4522 72.7727 52.5355 72.4545H53.8764C53.8007 72.9697 53.6132 73.4337 53.3139 73.8466C53.0185 74.2557 52.6264 74.5814 52.1378 74.8239C51.6529 75.0625 51.0885 75.1818 50.4446 75.1818ZM55.8366 75V66.2727H57.1321V67.5909H57.223C57.3821 67.1591 57.67 66.8087 58.0866 66.5398C58.5033 66.2708 58.973 66.1364 59.4957 66.1364C59.5942 66.1364 59.7173 66.1383 59.8651 66.142C60.0128 66.1458 60.1245 66.1515 60.2003 66.1591V67.5227C60.1548 67.5114 60.0507 67.4943 59.8878 67.4716C59.7287 67.4451 59.5601 67.4318 59.3821 67.4318C58.9579 67.4318 58.5791 67.5208 58.2457 67.6989C57.9162 67.8731 57.6548 68.1155 57.4616 68.4261C57.2723 68.733 57.1776 69.0833 57.1776 69.4773V75H55.8366ZM61.7898 75V66.2727H63.1307V75H61.7898ZM62.4716 64.8182C62.2102 64.8182 61.9848 64.7292 61.7955 64.5511C61.6098 64.3731 61.517 64.1591 61.517 63.9091C61.517 63.6591 61.6098 63.4451 61.7955 63.267C61.9848 63.089 62.2102 63 62.4716 63C62.733 63 62.9564 63.089 63.142 63.267C63.3314 63.4451 63.4261 63.6591 63.4261 63.9091C63.4261 64.1591 63.3314 64.3731 63.142 64.5511C62.9564 64.7292 62.733 64.8182 62.4716 64.8182ZM65.5866 78.2727V66.2727H66.8821V67.6591H67.0412C67.1397 67.5076 67.276 67.3144 67.4503 67.0795C67.6283 66.8409 67.8821 66.6288 68.2116 66.4432C68.545 66.2538 68.9957 66.1591 69.5639 66.1591C70.2988 66.1591 70.9465 66.3428 71.5071 66.7102C72.0677 67.0777 72.5052 67.5985 72.8196 68.2727C73.134 68.947 73.2912 69.7424 73.2912 70.6591C73.2912 71.5833 73.134 72.3845 72.8196 73.0625C72.5052 73.7367 72.0696 74.2595 71.5128 74.6307C70.956 74.9981 70.3139 75.1818 69.5866 75.1818C69.026 75.1818 68.5772 75.089 68.2401 74.9034C67.9029 74.714 67.6435 74.5 67.4616 74.2614C67.2798 74.0189 67.1397 73.8182 67.0412 73.6591H66.9276V78.2727H65.5866ZM66.9048 70.6364C66.9048 71.2955 67.0014 71.8769 67.1946 72.3807C67.3878 72.8807 67.67 73.2727 68.0412 73.5568C68.4124 73.8371 68.867 73.9773 69.4048 73.9773C69.9654 73.9773 70.4332 73.8295 70.8082 73.5341C71.187 73.2348 71.4711 72.8333 71.6605 72.3295C71.8537 71.822 71.9503 71.2576 71.9503 70.6364C71.9503 70.0227 71.8556 69.4697 71.6662 68.9773C71.4806 68.4811 71.1984 68.089 70.8196 67.8011C70.4446 67.5095 69.973 67.3636 69.4048 67.3636C68.8594 67.3636 68.401 67.5019 68.0298 67.7784C67.6586 68.0511 67.3783 68.4337 67.1889 68.9261C66.9995 69.4148 66.9048 69.9848 66.9048 70.6364ZM79.1321 66.2727V67.4091H74.6094V66.2727H79.1321ZM75.9276 64.1818H77.2685V72.5C77.2685 72.8788 77.3234 73.1629 77.4332 73.3523C77.5469 73.5379 77.6908 73.6629 77.8651 73.7273C78.0431 73.7879 78.2306 73.8182 78.4276 73.8182C78.5753 73.8182 78.6965 73.8106 78.7912 73.7955C78.8859 73.7765 78.9616 73.7614 79.0185 73.75L79.2912 74.9545C79.2003 74.9886 79.0734 75.0227 78.9105 75.0568C78.7476 75.0947 78.5412 75.1136 78.2912 75.1136C77.9124 75.1136 77.5412 75.0322 77.1776 74.8693C76.8177 74.7064 76.5185 74.4583 76.2798 74.125C76.045 73.7917 75.9276 73.3712 75.9276 72.8636V64.1818Z" fill="black"/>
<path d="M15 25V50H65V0H15V25Z" fill="#007ACC"/>
<path d="M26.0571 25.1661L26.0413 27.2136H32.5491V45.7058H37.1522V27.2136H43.6602V25.2058C43.6602 24.0944 43.6364 23.1659 43.6047 23.1421C43.5809 23.1105 39.6204 23.0944 34.819 23.1025L26.0807 23.1263L26.0571 25.1659V25.1661ZM55.3452 23.0681C56.6149 23.3855 57.5832 23.9489 58.4721 24.8696C58.9325 25.3618 59.6149 26.2585 59.6706 26.4728C59.6862 26.5362 57.5118 27.9966 56.1944 28.8142C56.1467 28.8458 55.9561 28.6396 55.7418 28.322C55.0991 27.3855 54.4245 26.9808 53.3926 26.9093C51.877 26.8062 50.9006 27.5997 50.9086 28.9251C50.9086 29.3142 50.9641 29.5443 51.1229 29.8616C51.4563 30.5523 52.0752 30.965 54.0198 31.8062C57.5991 33.3458 59.1307 34.3616 60.0833 35.8062C61.1467 37.4173 61.3848 39.9888 60.6626 41.9015C59.869 43.9808 57.9008 45.3935 55.1307 45.8616C54.2737 46.0124 52.242 45.9886 51.3213 45.822C49.3135 45.465 47.4086 44.4728 46.234 43.1712C45.7737 42.6634 44.8768 41.3378 44.9325 41.2427C44.9563 41.2109 45.1625 41.0839 45.3926 40.9489C45.6149 40.822 46.4563 40.3378 47.2499 39.8777L48.6864 39.0443L48.9879 39.4888C49.4086 40.1314 50.3291 41.0124 50.8848 41.3062C52.4799 42.1474 54.6706 42.0284 55.7499 41.0601C56.2102 40.6396 56.4006 40.203 56.4006 39.5601C56.4006 38.9808 56.3292 38.7269 56.0276 38.2903C55.6389 37.7347 54.8452 37.2665 52.5911 36.2903C50.0118 35.179 48.9006 34.4888 47.8848 33.3935C47.2975 32.7587 46.7418 31.7427 46.5118 30.8935C46.3213 30.187 46.2735 28.4173 46.4245 27.703C46.9563 25.2109 48.8372 23.4728 51.5514 22.957C52.4323 22.7903 54.4799 22.8538 55.3452 23.0681V23.0681Z" fill="white"/>
</svg>
