<svg width="58" height="83" viewBox="0 0 58 83" fill="none" xmlns="http://www.w3.org/2000/svg">
<path d="M8.15199 68.3636L11.6065 78.1591H11.7429L15.1974 68.3636H16.6747L12.402 80H10.9474L6.67472 68.3636H8.15199ZM23.8054 76.4318V71.2727H25.1463V80H23.8054V78.5227H23.7145C23.5099 78.9659 23.1918 79.3428 22.7599 79.6534C22.3281 79.9602 21.7827 80.1136 21.1236 80.1136C20.5781 80.1136 20.0933 79.9943 19.669 79.7557C19.2448 79.5133 18.9115 79.1496 18.669 78.6648C18.4266 78.1761 18.3054 77.5606 18.3054 76.8182V71.2727H19.6463V76.7273C19.6463 77.3636 19.8243 77.8712 20.1804 78.25C20.5402 78.6288 20.9986 78.8182 21.5554 78.8182C21.8887 78.8182 22.2277 78.733 22.5724 78.5625C22.9209 78.392 23.2126 78.1307 23.4474 77.7784C23.6861 77.4261 23.8054 76.9773 23.8054 76.4318ZM31.2614 80.1818C30.4205 80.1818 29.6951 79.9962 29.0852 79.625C28.4792 79.25 28.0114 78.7273 27.6818 78.0568C27.3561 77.3826 27.1932 76.5985 27.1932 75.7045C27.1932 74.8106 27.3561 74.0227 27.6818 73.3409C28.0114 72.6553 28.4697 72.1212 29.0568 71.7386C29.6477 71.3523 30.3371 71.1591 31.125 71.1591C31.5795 71.1591 32.0284 71.2348 32.4716 71.3864C32.9148 71.5379 33.3182 71.7841 33.6818 72.125C34.0455 72.4621 34.3352 72.9091 34.5511 73.4659C34.767 74.0227 34.875 74.7083 34.875 75.5227V76.0909H28.1477V74.9318H33.5114C33.5114 74.4394 33.4129 74 33.2159 73.6136C33.0227 73.2273 32.7462 72.9223 32.3864 72.6989C32.0303 72.4754 31.6098 72.3636 31.125 72.3636C30.5909 72.3636 30.1288 72.4962 29.7386 72.7614C29.3523 73.0227 29.0549 73.3636 28.8466 73.7841C28.6383 74.2045 28.5341 74.6553 28.5341 75.1364V75.9091C28.5341 76.5682 28.6477 77.1269 28.875 77.5852C29.1061 78.0398 29.4261 78.3864 29.8352 78.625C30.2443 78.8598 30.7197 78.9773 31.2614 78.9773C31.6136 78.9773 31.9318 78.928 32.2159 78.8295C32.5038 78.7273 32.7519 78.5758 32.9602 78.375C33.1686 78.1705 33.3295 77.9167 33.4432 77.6136L34.7386 77.9773C34.6023 78.4167 34.3731 78.803 34.0511 79.1364C33.7292 79.4659 33.3314 79.7235 32.858 79.9091C32.3845 80.0909 31.8523 80.1818 31.2614 80.1818ZM41.5511 68.3636H42.9602V76.6818C42.9602 77.4242 42.8239 78.0549 42.5511 78.5739C42.2784 79.0928 41.8939 79.4867 41.3977 79.7557C40.9015 80.0246 40.3163 80.1591 39.642 80.1591C39.0057 80.1591 38.4394 80.0436 37.9432 79.8125C37.447 79.5777 37.0568 79.2443 36.7727 78.8125C36.4886 78.3807 36.3466 77.8674 36.3466 77.2727H37.733C37.733 77.6023 37.8144 77.8902 37.9773 78.1364C38.1439 78.3788 38.3712 78.5682 38.6591 78.7045C38.947 78.8409 39.2746 78.9091 39.642 78.9091C40.0473 78.9091 40.392 78.8239 40.6761 78.6534C40.9602 78.483 41.1761 78.233 41.3239 77.9034C41.4754 77.5701 41.5511 77.1629 41.5511 76.6818V68.3636ZM51.7841 73.2273L50.5795 73.5682C50.5038 73.3674 50.392 73.1723 50.2443 72.983C50.1004 72.7898 49.9034 72.6307 49.6534 72.5057C49.4034 72.3807 49.0833 72.3182 48.6932 72.3182C48.1591 72.3182 47.714 72.4413 47.358 72.6875C47.0057 72.9299 46.8295 73.2386 46.8295 73.6136C46.8295 73.947 46.9508 74.2102 47.1932 74.4034C47.4356 74.5966 47.8144 74.7576 48.3295 74.8864L49.625 75.2045C50.4053 75.3939 50.9867 75.6837 51.3693 76.0739C51.7519 76.4602 51.9432 76.9583 51.9432 77.5682C51.9432 78.0682 51.7992 78.5152 51.5114 78.9091C51.2273 79.303 50.8295 79.6136 50.3182 79.8409C49.8068 80.0682 49.2121 80.1818 48.5341 80.1818C47.6439 80.1818 46.9072 79.9886 46.3239 79.6023C45.7405 79.2159 45.3712 78.6515 45.2159 77.9091L46.4886 77.5909C46.6098 78.0606 46.839 78.4129 47.1761 78.6477C47.517 78.8826 47.9621 79 48.5114 79C49.1364 79 49.6326 78.8674 50 78.6023C50.3712 78.3333 50.5568 78.0114 50.5568 77.6364C50.5568 77.3333 50.4508 77.0795 50.2386 76.875C50.0265 76.6667 49.7008 76.5114 49.2614 76.4091L47.8068 76.0682C47.0076 75.8788 46.4205 75.5852 46.0455 75.1875C45.6742 74.786 45.4886 74.2841 45.4886 73.6818C45.4886 73.1894 45.6269 72.7538 45.9034 72.375C46.1837 71.9962 46.5644 71.6989 47.0455 71.483C47.5303 71.267 48.0795 71.1591 48.6932 71.1591C49.5568 71.1591 50.2348 71.3485 50.7273 71.7273C51.2235 72.1061 51.5758 72.6061 51.7841 73.2273Z" fill="black"/>
<path d="M46.3348 0H57.9186L28.9593 49.9548L0 0H22.1538L28.9593 11.5837L35.6199 0H46.3348Z" fill="#41B883"/>
<path d="M0 0L28.9593 49.9548L57.9186 0H46.3348L28.9593 29.9729L11.4389 0H0Z" fill="#41B883"/>
<path d="M11.439 0L28.9593 30.1176L46.3349 0H35.62L28.9593 11.5837L22.1539 0H11.439Z" fill="#35495E"/>
</svg>
