<svg width="76" height="83" viewBox="0 0 76 83" fill="none" xmlns="http://www.w3.org/2000/svg">
<path d="M1.98011 80H0.502841L4.77557 68.3636H6.23011L10.5028 80H9.02557L5.5483 70.2045H5.45739L1.98011 80ZM2.52557 75.4545H8.48011V76.7045H2.52557V75.4545ZM15.429 80.1818C14.7017 80.1818 14.0597 79.9981 13.5028 79.6307C12.946 79.2595 12.5104 78.7367 12.196 78.0625C11.8816 77.3845 11.7244 76.5833 11.7244 75.6591C11.7244 74.7424 11.8816 73.947 12.196 73.2727C12.5104 72.5985 12.9479 72.0777 13.5085 71.7102C14.0691 71.3428 14.7169 71.1591 15.4517 71.1591C16.0199 71.1591 16.4688 71.2538 16.7983 71.4432C17.1316 71.6288 17.3854 71.8409 17.5597 72.0795C17.7377 72.3144 17.8759 72.5076 17.9744 72.6591H18.0881V68.3636H19.429V80H18.1335V78.6591H17.9744C17.8759 78.8182 17.7358 79.0189 17.554 79.2614C17.3722 79.5 17.1127 79.714 16.7756 79.9034C16.4384 80.089 15.9896 80.1818 15.429 80.1818ZM15.6108 78.9773C16.1487 78.9773 16.6032 78.8371 16.9744 78.5568C17.3456 78.2727 17.6278 77.8807 17.821 77.3807C18.0142 76.8769 18.1108 76.2955 18.1108 75.6364C18.1108 74.9848 18.0161 74.4148 17.8267 73.9261C17.6373 73.4337 17.357 73.0511 16.9858 72.7784C16.6146 72.5019 16.1563 72.3636 15.6108 72.3636C15.0426 72.3636 14.5691 72.5095 14.1903 72.8011C13.8153 73.089 13.5331 73.4811 13.3438 73.9773C13.1581 74.4697 13.0653 75.0227 13.0653 75.6364C13.0653 76.2576 13.16 76.822 13.3494 77.3295C13.5426 77.8333 13.8267 78.2348 14.2017 78.5341C14.5805 78.8295 15.0502 78.9773 15.6108 78.9773ZM25.6165 80.1818C24.8286 80.1818 24.1373 79.9943 23.5426 79.6193C22.9517 79.2443 22.4896 78.7197 22.1562 78.0455C21.8267 77.3712 21.6619 76.5833 21.6619 75.6818C21.6619 74.7727 21.8267 73.9792 22.1562 73.3011C22.4896 72.6231 22.9517 72.0966 23.5426 71.7216C24.1373 71.3466 24.8286 71.1591 25.6165 71.1591C26.4044 71.1591 27.0938 71.3466 27.6847 71.7216C28.2794 72.0966 28.7415 72.6231 29.071 73.3011C29.4044 73.9792 29.571 74.7727 29.571 75.6818C29.571 76.5833 29.4044 77.3712 29.071 78.0455C28.7415 78.7197 28.2794 79.2443 27.6847 79.6193C27.0938 79.9943 26.4044 80.1818 25.6165 80.1818ZM25.6165 78.9773C26.215 78.9773 26.7074 78.8239 27.0938 78.517C27.4801 78.2102 27.7661 77.8068 27.9517 77.3068C28.1373 76.8068 28.2301 76.2652 28.2301 75.6818C28.2301 75.0985 28.1373 74.5549 27.9517 74.0511C27.7661 73.5473 27.4801 73.1402 27.0938 72.8295C26.7074 72.5189 26.215 72.3636 25.6165 72.3636C25.018 72.3636 24.5256 72.5189 24.1392 72.8295C23.7528 73.1402 23.4669 73.5473 23.2812 74.0511C23.0956 74.5549 23.0028 75.0985 23.0028 75.6818C23.0028 76.2652 23.0956 76.8068 23.2812 77.3068C23.4669 77.8068 23.7528 78.2102 24.1392 78.517C24.5256 78.8239 25.018 78.9773 25.6165 78.9773ZM31.7997 80V68.3636H33.1406V72.6591H33.2543C33.3527 72.5076 33.4891 72.3144 33.6634 72.0795C33.8414 71.8409 34.0952 71.6288 34.4247 71.4432C34.758 71.2538 35.2088 71.1591 35.777 71.1591C36.5118 71.1591 37.1596 71.3428 37.7202 71.7102C38.2808 72.0777 38.7183 72.5985 39.0327 73.2727C39.3471 73.947 39.5043 74.7424 39.5043 75.6591C39.5043 76.5833 39.3471 77.3845 39.0327 78.0625C38.7183 78.7367 38.2827 79.2595 37.7259 79.6307C37.169 79.9981 36.527 80.1818 35.7997 80.1818C35.2391 80.1818 34.7902 80.089 34.4531 79.9034C34.116 79.714 33.8565 79.5 33.6747 79.2614C33.4929 79.0189 33.3527 78.8182 33.2543 78.6591H33.0952V80H31.7997ZM33.1179 75.6364C33.1179 76.2955 33.2145 76.8769 33.4077 77.3807C33.6009 77.8807 33.883 78.2727 34.2543 78.5568C34.6255 78.8371 35.08 78.9773 35.6179 78.9773C36.1785 78.9773 36.6463 78.8295 37.0213 78.5341C37.4001 78.2348 37.6842 77.8333 37.8736 77.3295C38.0668 76.822 38.1634 76.2576 38.1634 75.6364C38.1634 75.0227 38.0687 74.4697 37.8793 73.9773C37.6937 73.4811 37.4115 73.089 37.0327 72.8011C36.6577 72.5095 36.1861 72.3636 35.6179 72.3636C35.0724 72.3636 34.6141 72.5019 34.2429 72.7784C33.8717 73.0511 33.5914 73.4337 33.402 73.9261C33.2126 74.4148 33.1179 74.9848 33.1179 75.6364ZM45.2145 80.1818C44.3736 80.1818 43.6482 79.9962 43.0384 79.625C42.4323 79.25 41.9645 78.7273 41.6349 78.0568C41.3092 77.3826 41.1463 76.5985 41.1463 75.7045C41.1463 74.8106 41.3092 74.0227 41.6349 73.3409C41.9645 72.6553 42.4228 72.1212 43.0099 71.7386C43.6009 71.3523 44.2902 71.1591 45.0781 71.1591C45.5327 71.1591 45.9815 71.2348 46.4247 71.3864C46.8679 71.5379 47.2713 71.7841 47.6349 72.125C47.9986 72.4621 48.2884 72.9091 48.5043 73.4659C48.7202 74.0227 48.8281 74.7083 48.8281 75.5227V76.0909H42.1009V74.9318H47.4645C47.4645 74.4394 47.366 74 47.169 73.6136C46.9759 73.2273 46.6993 72.9223 46.3395 72.6989C45.9834 72.4754 45.563 72.3636 45.0781 72.3636C44.544 72.3636 44.0819 72.4962 43.6918 72.7614C43.3054 73.0227 43.008 73.3636 42.7997 73.7841C42.5914 74.2045 42.4872 74.6553 42.4872 75.1364V75.9091C42.4872 76.5682 42.6009 77.1269 42.8281 77.5852C43.0592 78.0398 43.3793 78.3864 43.7884 78.625C44.1974 78.8598 44.6728 78.9773 45.2145 78.9773C45.5668 78.9773 45.8849 78.928 46.169 78.8295C46.4569 78.7273 46.705 78.5758 46.9134 78.375C47.1217 78.1705 47.2827 77.9167 47.3963 77.6136L48.6918 77.9773C48.5554 78.4167 48.3262 78.803 48.0043 79.1364C47.6823 79.4659 47.2846 79.7235 46.8111 79.9091C46.3376 80.0909 45.8054 80.1818 45.2145 80.1818ZM56.2315 68.3636L59.2315 73.2045H59.3224L62.3224 68.3636H63.9815L60.3224 74.1818L63.9815 80H62.3224L59.3224 75.25H59.2315L56.2315 80H54.5724L58.3224 74.1818L54.5724 68.3636H56.2315ZM69.4062 80H65.8153V68.3636H69.5653C70.6941 68.3636 71.66 68.5966 72.4631 69.0625C73.2661 69.5246 73.8816 70.1894 74.3097 71.0568C74.7377 71.9205 74.9517 72.9545 74.9517 74.1591C74.9517 75.3712 74.7358 76.4148 74.304 77.2898C73.8722 78.161 73.2434 78.8314 72.4176 79.3011C71.5919 79.767 70.5881 80 69.4062 80ZM67.2244 78.75H69.3153C70.2775 78.75 71.0748 78.5644 71.7074 78.1932C72.34 77.822 72.8116 77.2936 73.1222 76.608C73.4328 75.9223 73.5881 75.1061 73.5881 74.1591C73.5881 73.2197 73.4347 72.411 73.1278 71.733C72.821 71.0511 72.3627 70.5284 71.7528 70.1648C71.143 69.7973 70.3835 69.6136 69.4744 69.6136H67.2244V78.75Z" fill="black"/>
<path d="M17 0V50H67V0H17ZM38.2439 35.8913L33.6211 26.3643L29.1608 35.8686H24.8138L31.211 23.6812L25.0258 11.3574H29.5377L33.9168 20.7253L38.2592 11.3347H42.4945L36.3042 23.2946L42.8601 35.8913H38.2438H38.2439ZM58.0642 34.8908C56.1542 35.8004 54.1532 36.2097 52.2433 36.2097C47.3093 36.2324 43.785 33.1855 43.785 27.0009C43.9455 20.6653 48.167 17.1301 54.0851 17.6103V11.3574H58.1323V32.4125C58.1407 34.9235 58.4179 34.682 58.0642 34.8908ZM54.085 21.1801V32.4352C50.0901 33.4718 47.8813 31.0406 47.9004 26.8189C47.9154 22.4895 50.76 20.2425 54.085 21.1801Z" fill="black"/>
</svg>
