<svg width="70" height="50" viewBox="0 0 70 50" fill="none" xmlns="http://www.w3.org/2000/svg">
<path d="M67.761 19.0532C66.2029 17.9722 62.6324 17.5668 59.841 18.1073C59.5167 15.4046 58.0234 13.04 55.4267 10.9454L53.9337 9.86432L52.8948 11.4184C51.5967 13.4454 50.9475 16.2832 51.1421 18.9859C51.207 19.9316 51.5315 21.6208 52.5053 23.1073C51.5967 23.6478 49.714 24.3235 47.2472 24.3235H0.312089L0.182359 24.8641C-0.272236 27.5665 -0.272236 36.0122 5.05101 42.4984C9.07587 47.4305 15.0483 49.9305 22.9032 49.9305C39.9113 49.9305 52.5053 41.7549 58.4129 26.9584C60.7499 27.0259 65.7486 26.9584 68.2805 21.8908C68.3453 21.7557 68.4751 21.4854 68.9294 20.4722L69.1891 19.9316L67.761 19.0532ZM37.834 0H30.6934V6.75649H37.834V0ZM37.834 8.10784H30.6934V14.8643H37.834V8.10757V8.10784ZM29.3948 8.10784H22.2542V14.8643H29.3948V8.10757V8.10784ZM20.9556 8.10784H13.8148V14.8643H20.9556V8.10757V8.10784ZM12.5164 16.2157H5.3756V22.9722H12.5161V16.2154L12.5164 16.2157ZM20.9556 16.2157H13.8148V22.9722H20.9556V16.2154V16.2157ZM29.3948 16.2157H22.2542V22.9722H29.3948V16.2154V16.2157ZM37.8342 16.2157H30.6932V22.9722H37.8342V16.2154V16.2157ZM46.2734 16.2157H39.1324V22.9722H46.2734V16.2154V16.2157Z" fill="#2396ED"/>
</svg>
