<svg width="30" height="30" viewBox="0 0 30 30" fill="none" xmlns="http://www.w3.org/2000/svg">
<path d="M27.5143 29.1217C28.4018 29.1217 29.1216 28.4021 29.1216 27.5144V1.60726C29.1216 0.719508 28.4018 0 27.5143 0H1.60726C0.719394 0 0 0.719508 0 1.60726V27.5144C0 28.4021 0.719394 29.1217 1.60726 29.1217H27.5143Z" fill="#395185"/>
<path d="M20.0932 29.1217V17.8443H23.8786L24.4454 13.4493H20.0932V10.6432C20.0932 9.37072 20.4466 8.50356 22.2714 8.50356L24.5987 8.50253V4.57169C24.196 4.51811 22.8146 4.39844 21.2074 4.39844C17.8518 4.39844 15.5547 6.44662 15.5547 10.2081V13.4493H11.7595V17.8443H15.5547V29.1217H20.0932Z" fill="white"/>
</svg>
