<svg width="49" height="48" viewBox="0 0 49 48" fill="none" xmlns="http://www.w3.org/2000/svg">
<path fill-rule="evenodd" clip-rule="evenodd" d="M24.1851 1.29467e-05C18.4432 -0.00434482 12.8875 2.03582 8.51299 5.75503C4.13852 9.47424 1.2312 14.6295 0.311844 20.2972C-0.607509 25.965 0.521179 31.7749 3.49571 36.6861C6.47025 41.5974 11.0963 45.2892 16.5451 47.1C17.7551 47.32 18.1951 46.5733 18.1951 45.9333C18.1951 45.36 18.1751 43.84 18.1617 41.8233C11.4417 43.2833 10.0217 38.5833 10.0217 38.5833C8.92173 35.79 7.3384 35.05 7.3384 35.05C5.14506 33.55 7.50506 33.58 7.50506 33.58C9.93173 33.75 11.2051 36.07 11.2051 36.07C13.3617 39.7633 16.8617 38.6967 18.2384 38.0767C18.4584 36.5167 19.0851 35.45 19.7717 34.8467C14.4051 34.2367 8.76506 32.1633 8.76506 22.9033C8.73017 20.5024 9.62197 18.1804 11.2551 16.42C11.0051 15.8067 10.1751 13.3533 11.4884 10.02C11.4884 10.02 13.5217 9.37335 18.1351 12.5C20.1071 11.9637 22.1414 11.6903 24.1851 11.6867C26.2287 11.6905 28.2629 11.964 30.2351 12.5C34.8484 9.37335 36.8751 10.0233 36.8751 10.0233C38.1951 13.35 37.3651 15.8067 37.1151 16.42C38.6651 18.11 39.5984 20.2633 39.5984 22.9033C39.5984 32.1867 33.9484 34.23 28.5651 34.8267C29.4317 35.5733 30.2051 37.05 30.2051 39.3033C30.2051 42.5367 30.1751 45.14 30.1751 45.9333C30.1751 46.58 30.6117 47.3333 31.8384 47.0967C37.2861 45.2836 41.9103 41.5901 44.8827 36.678C47.8551 31.7658 48.9815 25.9558 48.0602 20.2887C47.1389 14.6216 44.23 9.46769 39.8546 5.75008C35.4793 2.03247 29.9232 -0.00592732 24.1817 1.29467e-05H24.1851Z" fill="black"/>
</svg>
