<svg width="30" height="30" viewBox="0 0 30 30" fill="none" xmlns="http://www.w3.org/2000/svg">
<path d="M22.7364 29.1216L6.55776 29.1369C2.99845 29.1402 0.0838702 26.2313 0.0798256 22.672L0.0644558 6.49331C0.0612201 2.934 2.97014 0.0194171 6.52945 0.0153725L22.7081 2.69683e-06C26.2674 -0.00323303 29.182 2.90569 29.186 6.46499L29.2014 22.6436C29.2054 26.2038 26.2957 29.1183 22.7364 29.1216Z" fill="url(#paint0_radial_12_78)"/>
<path d="M22.7364 29.1216L6.55776 29.1369C2.99845 29.1402 0.0838702 26.2313 0.0798256 22.672L0.0644558 6.49331C0.0612201 2.934 2.97014 0.0194171 6.52945 0.0153725L22.7081 2.69683e-06C26.2674 -0.00323303 29.182 2.90569 29.186 6.46499L29.2014 22.6436C29.2054 26.2038 26.2957 29.1183 22.7364 29.1216Z" fill="url(#paint1_radial_12_78)"/>
<path d="M14.6332 20.2313C11.5116 20.2313 8.9707 17.6913 8.9707 14.5688C8.9707 11.4463 11.5116 8.90625 14.6332 8.90625C17.7549 8.90625 20.2958 11.4463 20.2958 14.5688C20.2958 17.6913 17.7549 20.2313 14.6332 20.2313ZM14.6332 10.5241C12.403 10.5241 10.5886 12.3386 10.5886 14.5688C10.5886 16.799 12.403 18.6134 14.6332 18.6134C16.8635 18.6134 18.6779 16.799 18.6779 14.5688C18.6779 12.3386 16.8635 10.5241 14.6332 10.5241Z" fill="white"/>
<path d="M20.7002 9.71537C21.3704 9.71537 21.9136 9.17211 21.9136 8.50197C21.9136 7.83183 21.3704 7.28857 20.7002 7.28857C20.0301 7.28857 19.4868 7.83183 19.4868 8.50197C19.4868 9.17211 20.0301 9.71537 20.7002 9.71537Z" fill="white"/>
<path d="M19.4867 25.085H9.77947C6.6578 25.085 4.11694 22.5449 4.11694 19.4225V9.71526C4.11694 6.59278 6.6578 4.05273 9.77947 4.05273H19.4867C22.6083 4.05273 25.1492 6.59278 25.1492 9.71526V19.4225C25.1492 22.5449 22.6083 25.085 19.4867 25.085ZM9.77947 5.6706C7.54924 5.6706 5.73481 7.48504 5.73481 9.71526V19.4225C5.73481 21.6527 7.54924 23.4671 9.77947 23.4671H19.4867C21.7169 23.4671 23.5313 21.6527 23.5313 19.4225V9.71526C23.5313 7.48504 21.7169 5.6706 19.4867 5.6706H9.77947Z" fill="white"/>
<defs>
<radialGradient id="paint0_radial_12_78" cx="0" cy="0" r="1" gradientUnits="userSpaceOnUse" gradientTransform="translate(10.8961 29.158) scale(36.3203)">
<stop stop-color="#FFDD55"/>
<stop offset="0.328" stop-color="#FF543F"/>
<stop offset="0.348" stop-color="#FC5245"/>
<stop offset="0.504" stop-color="#E64771"/>
<stop offset="0.643" stop-color="#D53E91"/>
<stop offset="0.761" stop-color="#CC39A4"/>
<stop offset="0.841" stop-color="#C837AB"/>
</radialGradient>
<radialGradient id="paint1_radial_12_78" cx="0" cy="0" r="1" gradientUnits="userSpaceOnUse" gradientTransform="translate(4.75303 -0.363772) scale(24.1167 16.069)">
<stop stop-color="#4168C9"/>
<stop offset="0.999" stop-color="#4168C9" stop-opacity="0"/>
</radialGradient>
</defs>
</svg>
