<svg width="50" height="50" viewBox="0 0 50 50" fill="none" xmlns="http://www.w3.org/2000/svg">
<path d="M42.6023 42.6031H35.1939V31.0009C35.1939 28.2343 35.1445 24.6728 31.3408 24.6728C27.4822 24.6728 26.8918 27.6872 26.8918 30.7995V42.6023H19.4836V18.7437H26.5955V22.0042H26.6951C27.4069 20.7872 28.4353 19.7861 29.6711 19.1074C30.9068 18.4287 32.3034 18.0978 33.7123 18.1501C41.2211 18.1501 42.6055 23.0892 42.6055 29.5146L42.6023 42.6031V42.6031ZM11.1242 15.4825C8.74981 15.4829 6.82461 13.5583 6.82422 11.1839C6.82383 8.8095 8.74824 6.8843 11.1227 6.88391C13.4971 6.88333 15.4223 8.80794 15.4227 11.1823C15.4229 12.3226 14.9701 13.4162 14.164 14.2227C13.3579 15.0291 12.2645 15.4823 11.1242 15.4825V15.4825ZM14.8285 42.6032H7.4123V18.7437H14.8283V42.6031L14.8285 42.6032ZM46.2957 0.00363904H3.68965C1.67598 -0.0190172 0.0246094 1.59407 0 3.60774V46.3915C0.0238281 48.4062 1.675 50.0208 3.68945 49.9997H46.2957C48.3145 50.0247 49.9721 48.4101 50 46.3915V3.60442C49.9713 1.58684 48.3135 -0.0260485 46.2957 0.000318729" fill="#0A66C2"/>
</svg>
