<svg width="47" height="53" viewBox="0 0 47 53" fill="none" xmlns="http://www.w3.org/2000/svg">
<path d="M23.3984 52.7706C22.6865 52.7709 21.9871 52.5837 21.3705 52.2278L14.9173 48.4076C13.9543 47.8685 14.4236 47.6782 14.7421 47.567C15.7663 47.2505 16.7471 46.8073 17.6615 46.2477C17.738 46.2123 17.8223 46.197 17.9064 46.2033C17.9905 46.2095 18.0716 46.2371 18.142 46.2835L23.1007 49.2293C23.193 49.2781 23.2959 49.3037 23.4003 49.3037C23.5048 49.3037 23.6077 49.2781 23.7 49.2293L43.0369 38.0681C43.1274 38.0139 43.2023 37.9371 43.2541 37.8453C43.306 37.7534 43.3331 37.6497 43.3328 37.5442V15.2181C43.3329 15.111 43.3053 15.0056 43.2529 14.9122C43.2004 14.8188 43.1247 14.7405 43.0332 14.6848L23.6962 3.53306C23.605 3.48171 23.5022 3.45473 23.3975 3.45473C23.2929 3.45473 23.19 3.48171 23.0988 3.53306L3.77316 14.6885C3.68098 14.7431 3.60444 14.8205 3.55095 14.9132C3.49746 15.006 3.46883 15.1111 3.46784 15.2181V37.5348C3.46811 37.64 3.49635 37.7433 3.54967 37.834C3.60298 37.9248 3.67947 37.9997 3.77128 38.0512L9.0748 41.1119C11.949 42.548 13.7093 40.8556 13.7093 39.1556V17.1217C13.7093 16.9717 13.7688 16.8279 13.8749 16.7219C13.9809 16.6158 14.1247 16.5563 14.2747 16.5563H16.7248C16.8747 16.5563 17.0185 16.6158 17.1246 16.7219C17.2306 16.8279 17.2902 16.9717 17.2902 17.1217V39.1575C17.2902 42.9928 15.2019 45.1885 11.5645 45.1885C9.99524 45.2158 8.45061 44.7962 7.11095 43.9785L2.02794 41.0629C1.41087 40.7036 0.898854 40.1886 0.543007 39.5695C0.18716 38.9505 -6.83135e-05 38.2488 1.34036e-05 37.5348V15.2181C-0.00182075 14.503 0.184616 13.7999 0.540587 13.1796C0.896559 12.5593 1.40953 12.0436 2.02794 11.6843L21.3668 0.519442C21.9897 0.178629 22.6884 0 23.3984 0C24.1085 0 24.8072 0.178629 25.4301 0.519442L44.7671 11.6843C45.3841 12.043 45.8962 12.5572 46.2524 13.1756C46.6086 13.794 46.7963 14.4951 46.7969 15.2087V37.5348C46.7958 38.2488 46.6079 38.9502 46.2518 39.5692C45.8957 40.1881 45.3839 40.7031 44.7671 41.0629L25.4301 52.2278C24.8124 52.5842 24.1116 52.7715 23.3984 52.7706V52.7706Z" fill="#83CD29"/>
<path d="M19.731 30.0658C19.731 29.9158 19.7905 29.772 19.8966 29.666C20.0026 29.5599 20.1464 29.5004 20.2964 29.5004H22.7973C22.931 29.5008 23.0601 29.5486 23.1619 29.6352C23.2637 29.7217 23.3315 29.8416 23.3533 29.9734C23.7303 32.5196 24.8611 33.8031 29.9743 33.8031C34.0471 33.8031 35.7829 32.8815 35.7829 30.7198C35.7829 29.474 35.291 28.5486 28.9603 27.9285C23.6681 27.4046 20.3963 26.2323 20.3963 22.0031C20.3963 18.1018 23.685 15.7742 29.1978 15.7742C35.3927 15.7742 38.4591 17.9246 38.8474 22.5383C38.8533 22.6154 38.8434 22.6928 38.8182 22.7658C38.7931 22.8389 38.7532 22.906 38.7011 22.963C38.649 23.0201 38.5858 23.0658 38.5153 23.0975C38.4449 23.1291 38.3686 23.146 38.2914 23.1471H35.7734C35.6471 23.1453 35.525 23.1013 35.4267 23.022C35.3283 22.9428 35.2593 22.8329 35.2307 22.7098C34.6294 20.0317 33.1575 19.176 29.1996 19.176C24.7518 19.176 24.2354 20.7253 24.2354 21.8862C24.2354 23.2922 24.846 23.7031 30.8506 24.4965C36.7931 25.2824 39.6163 26.3944 39.6163 30.5709C39.6163 34.785 36.1033 37.1974 29.9761 37.1974C21.5045 37.2088 19.731 33.3244 19.731 30.0658V30.0658Z" fill="#83CD29"/>
</svg>
