<svg width="57" height="50" viewBox="0 0 57 50" fill="none" xmlns="http://www.w3.org/2000/svg">
<path d="M46.1586 16.1894C45.5611 15.9844 44.9586 15.7945 44.3515 15.6199C44.4535 15.2032 44.5474 14.7916 44.6307 14.3872C45.9987 7.74667 45.1044 2.39689 42.0498 0.635488C39.1211 -1.05311 34.3314 0.707637 29.4941 4.91751C29.0173 5.33315 28.5512 5.76077 28.0961 6.19996C27.7914 5.90791 27.4813 5.62153 27.166 5.34097C22.0963 0.839655 17.0147 -1.05749 13.9634 0.708953C11.0373 2.40281 10.1708 7.43198 11.4024 13.7254C11.5249 14.3487 11.6633 14.9688 11.8173 15.585C11.098 15.7894 10.4039 16.007 9.73969 16.2386C3.79583 18.3109 0 21.5585 0 24.9272C0 28.4063 4.075 31.896 10.2658 34.012C10.7677 34.1829 11.2738 34.3412 11.7836 34.4868C11.618 35.1505 11.471 35.8188 11.3428 36.4907C10.1686 42.675 11.0855 47.5853 14.0037 49.2684C17.0178 51.0065 22.0765 49.2201 27.0022 44.9142C27.4016 44.5641 27.7922 44.2042 28.1737 43.8346C28.6666 44.3102 29.1726 44.7719 29.6912 45.2193C34.4627 49.325 39.175 50.9829 42.0904 49.2951C45.1015 47.5519 46.0803 42.2769 44.8097 35.8592C44.7096 35.3564 44.5973 34.8561 44.473 34.3587C44.8283 34.2535 45.177 34.1451 45.5169 34.0324C51.9529 31.9002 56.1404 28.4528 56.1404 24.9272C56.1404 21.5462 52.2219 18.2767 46.1586 16.1894ZM44.7627 31.7561C44.4557 31.8576 44.1408 31.9557 43.8197 32.0511C43.1092 29.8017 42.1504 27.41 40.977 24.9388C42.0967 22.5265 43.0186 20.1653 43.7092 17.9307C44.2836 18.0969 44.8408 18.2721 45.3781 18.457C50.5732 20.2456 53.7421 22.8897 53.7421 24.9272C53.7421 27.0973 50.3197 29.9147 44.7627 31.7561ZM42.457 36.325C43.0189 39.1627 43.0989 41.7285 42.7268 43.7344C42.3925 45.5368 41.7202 46.7383 40.8886 47.2197C39.1195 48.2438 35.336 46.9127 31.2555 43.4013C30.7731 42.9853 30.3024 42.5561 29.8439 42.114C31.4259 40.3839 33.0068 38.3728 34.5498 36.139C37.2638 35.8982 39.8279 35.5043 42.1531 34.9668C42.2651 35.4171 42.3664 35.8699 42.457 36.325ZM19.1395 47.0427C17.411 47.653 16.0342 47.6706 15.202 47.1908C13.4311 46.1695 12.695 42.2267 13.6991 36.9381C13.8185 36.3132 13.9552 35.6917 14.109 35.0743C16.4086 35.5831 18.9539 35.9489 21.6743 36.1695C23.2278 38.3552 24.8544 40.3642 26.4936 42.1234C26.1453 42.4605 25.7887 42.789 25.4241 43.1085C23.2458 45.0125 21.0632 46.3633 19.1395 47.0427ZM11.0417 31.7427C8.30417 30.807 6.04342 29.591 4.49386 28.264C3.10132 27.0717 2.39846 25.8877 2.39846 24.9272C2.39846 22.8829 5.44605 20.2754 10.5292 18.5033C11.1461 18.2883 11.7917 18.0855 12.4616 17.8951C13.1643 20.1802 14.0857 22.5695 15.1978 24.9855C14.0713 27.4372 13.1366 29.8647 12.4272 32.1767C11.9619 32.0434 11.4999 31.8987 11.0417 31.7427ZM13.7561 13.2647C12.7011 7.87277 13.4018 3.80544 15.1651 2.78461C17.0432 1.69733 21.1963 3.24755 25.5737 7.13439C25.8591 7.38842 26.1399 7.6476 26.416 7.9118C24.7849 9.66334 23.1732 11.6574 21.6336 13.8302C18.9932 14.075 16.4658 14.4679 14.1421 14.9945C13.9989 14.4213 13.8702 13.8446 13.7561 13.2649V13.2647ZM37.9726 19.2445C37.4237 18.2964 36.8545 17.3603 36.2654 16.4368C38.0566 16.6633 39.7728 16.964 41.3844 17.3315C40.9007 18.8824 40.2976 20.5037 39.5877 22.166C39.0688 21.1815 38.5304 20.2075 37.9726 19.2445ZM28.0971 9.62584C29.2033 10.8243 30.3112 12.1622 31.4009 13.614C29.1904 13.5096 26.9761 13.5092 24.7656 13.6127C25.8564 12.1743 26.9737 10.8381 28.0971 9.62584ZM18.1583 19.2609C17.6075 20.2162 17.0791 21.1841 16.5735 22.164C15.8752 20.5076 15.2776 18.8789 14.7897 17.3061C16.3914 16.9478 18.0996 16.6548 19.8794 16.4324C19.2836 17.3616 18.7098 18.3046 18.1583 19.2607V19.2609ZM19.9305 33.5925C18.0917 33.3872 16.3579 33.1094 14.7566 32.7607C15.2522 31.1598 15.8629 29.4965 16.5763 27.8046C17.084 28.7852 17.6146 29.7537 18.1678 30.7094C18.7366 31.6918 19.3257 32.6541 19.9305 33.5925ZM28.1634 40.3973C27.0265 39.171 25.8928 37.8142 24.7855 36.355C25.8605 36.3971 26.9564 36.4186 28.0702 36.4186C29.2145 36.4186 30.3456 36.3929 31.459 36.3434C30.3658 37.8289 29.2621 39.1877 28.1634 40.3973ZM39.6103 27.7182C40.3607 29.4287 40.9932 31.0833 41.4954 32.6568C39.8678 33.0282 38.1103 33.3274 36.2586 33.5495C36.8519 32.6088 37.4265 31.6565 37.982 30.6929C38.5468 29.7136 39.0897 28.7217 39.6103 27.7182ZM35.9046 29.4947C35.0542 30.972 34.156 32.4212 33.2114 33.8401C31.5003 33.9613 29.7855 34.0215 28.0702 34.0206C26.323 34.0206 24.6237 33.9662 22.9873 33.86C22.018 32.4444 21.1027 30.9927 20.2432 29.5079H20.2434C19.388 28.0309 18.5889 26.522 17.848 24.9844C18.5871 23.4464 19.3837 21.9368 20.2362 20.4587L20.236 20.459C21.0882 18.9805 21.9962 17.5349 22.9581 16.1254C24.6276 15.9991 26.3397 15.9333 28.07 15.9333H28.0702C29.8083 15.9333 31.5226 15.9997 33.1917 16.1269C34.1439 17.5344 35.0461 18.9749 35.8967 20.446C36.7521 21.9208 37.5592 23.4231 38.3169 24.9504C37.567 26.4933 36.7624 28.0091 35.9046 29.4947ZM40.852 2.71312C42.7318 3.79733 43.4629 8.16948 42.2818 13.903C42.2064 14.2688 42.1217 14.6414 42.0296 15.0193C39.7002 14.4815 37.1711 14.0818 34.523 13.8333C32.9805 11.6366 31.382 9.63943 29.7774 7.91049C30.1979 7.50512 30.6285 7.11026 31.0686 6.72628C35.2134 3.11948 39.0871 1.69536 40.852 2.71312ZM28.0702 19.914C30.8388 19.914 33.0833 22.1585 33.0833 24.9272C33.0833 27.6958 30.8388 29.9403 28.0702 29.9403C25.3015 29.9403 23.057 27.6958 23.057 24.9272C23.057 22.1585 25.3015 19.914 28.0702 19.914Z" fill="#00D8FF"/>
</svg>
