<svg width="84" height="50" viewBox="0 0 84 50" fill="none" xmlns="http://www.w3.org/2000/svg">
<path d="M41.5584 0C30.4763 0 23.5497 5.54123 20.7792 16.6234C24.9351 11.0821 29.7834 9.00422 35.3247 10.3896C38.486 11.1799 40.7458 13.4737 43.2471 16.0123C47.3218 20.1484 52.0373 24.9351 62.3377 24.9351C73.4198 24.9351 80.3464 19.3938 83.1169 8.31169C78.961 13.8529 74.1127 15.9308 68.5714 14.5455C65.4101 13.7552 63.1503 11.4614 60.649 8.92273C56.5743 4.78669 51.8588 0 41.5584 0ZM20.7792 24.9351C9.69708 24.9351 2.77045 30.4763 0 41.5584C4.15584 36.0172 9.00422 33.9393 14.5455 35.3247C17.7068 36.1149 19.9666 38.4088 22.4679 40.9474C26.5425 45.0834 31.2581 49.8701 41.5584 49.8701C52.6406 49.8701 59.5672 44.3289 62.3377 33.2468C58.1818 38.788 53.3334 40.8659 47.7922 39.4805C44.6308 38.6903 42.3711 36.3964 39.8698 33.8578C35.7951 29.7218 31.0795 24.9351 20.7792 24.9351Z" fill="url(#paint0_linear_11_42)"/>
<defs>
<linearGradient id="paint0_linear_11_42" x1="-2.30899" y1="15.9584" x2="69.476" y2="57.3484" gradientUnits="userSpaceOnUse">
<stop stop-color="#2298BD"/>
<stop offset="1" stop-color="#0ED7B5"/>
</linearGradient>
</defs>
</svg>
