<svg width="40" height="33" viewBox="0 0 40 33" fill="none" xmlns="http://www.w3.org/2000/svg">
<path d="M40 3.90133C38.5048 4.57774 36.9171 5.01937 35.2912 5.21107C37.0038 4.16869 38.2861 2.53097 38.9003 0.601585C37.2895 1.57092 35.5282 2.25501 33.6916 2.62458C32.9231 1.79394 31.9948 1.13239 30.9643 0.680933C29.9337 0.229474 28.8229 -0.00228364 27.7006 1.69615e-05C26.4643 -0.00129568 25.2438 0.281346 24.1304 0.82679C23.0169 1.37223 22.0393 2.16636 21.2708 3.14973C20.5022 4.1331 19.9626 5.28026 19.6924 6.50535C19.4221 7.73045 19.4282 9.00176 19.7101 10.2241C16.4477 10.0577 13.2562 9.19631 10.3428 7.69597C7.42945 6.19563 4.85933 4.08986 2.7993 1.51536C1.74993 3.34885 1.42814 5.51961 1.89945 7.58559C2.37077 9.65158 3.59976 11.4575 5.33617 12.6355C4.03312 12.5927 2.75861 12.2369 1.6171 11.5973V11.7014C1.61664 13.6259 2.27209 15.4912 3.47214 16.9806C4.67219 18.47 6.34286 19.4916 8.20045 19.8721C6.9903 20.2071 5.72075 20.2566 4.48888 20.0168C5.01463 21.6713 6.03533 23.1182 7.40886 24.156C8.78239 25.1937 10.4404 25.7707 12.152 25.8065C10.4493 27.1649 8.49959 28.1688 6.41435 28.7607C4.32912 29.3526 2.14939 29.521 0 29.256C3.75249 31.7061 8.12076 33.0059 12.5819 33C27.6706 33 35.9285 20.301 35.9285 9.29006C35.9285 8.92455 35.921 8.56919 35.906 8.2113C37.5137 7.03696 38.8997 5.5778 39.9975 3.90387L40 3.90133Z" fill="#2396ED"/>
</svg>
